<?xml version="1.0" standalone="no"?>
<!DOCTYPE svg PUBLIC "-//W3C//DTD SVG 1.1//EN" "http://www.w3.org/Graphics/SVG/1.1/DTD/svg11.dtd" >
<svg xmlns="http://www.w3.org/2000/svg">
<metadata></metadata>
<defs>
<font id="encode_sansregular" horiz-adv-x="1239" >
<font-face units-per-em="2048" ascent="1638" descent="-410" />
<missing-glyph horiz-adv-x="481" />
<glyph unicode="&#xfb01;" horiz-adv-x="1296" d="M33 950v156h239v55q0 145 23.5 240.5t82 152t158 81t250.5 30.5l11 -135q-106 -6 -174 -22.5t-106 -51.5t-52 -95.5t-14 -156.5v-98h292v-156h-292v-950h-181v950h-237zM940 1444q0 111 111 110q115 0 114 -110q1 -109 -114 -109q-111 0 -111 109zM963 0v1106h178v-1106 h-178z" />
<glyph unicode="&#xfb02;" horiz-adv-x="1300" d="M33 950v156h239v55q0 145 23.5 240.5t82 152t158 81t250.5 30.5l11 -135q-106 -6 -174 -22.5t-106 -51.5t-52 -95.5t-14 -156.5v-98h292v-156h-292v-950h-181v950h-237zM961 0v1655h180v-1655h-180z" />
<glyph horiz-adv-x="0" />
<glyph unicode="&#xd;" horiz-adv-x="598" />
<glyph horiz-adv-x="0" />
<glyph horiz-adv-x="0" />
<glyph unicode=" "  horiz-adv-x="481" />
<glyph unicode="&#x09;" horiz-adv-x="481" />
<glyph unicode="&#xa0;" horiz-adv-x="481" />
<glyph unicode="!" horiz-adv-x="520" d="M160 104q0 49 27.5 77t78.5 28q49 0 78 -28.5t29 -76.5q0 -47 -29 -74.5t-78 -27.5q-51 0 -78.5 27.5t-27.5 74.5zM170 1495v21h180v-21l-35 -1089v-27h-112v27z" />
<glyph unicode="&#x22;" horiz-adv-x="778" d="M139 983v672h158v-8l-64 -664h-94zM510 983v672h158v-8l-64 -664h-94z" />
<glyph unicode="#" horiz-adv-x="1173" d="M102 459v129h193l27 338h-220v129h230l39 461h135l-39 -461h270l39 461h135l-39 -461h197v-129h-207l-26 -338h233v-129h-244l-37 -459h-137l37 459h-268l-37 -459h-135l37 459h-183zM430 588h268l29 338h-270z" />
<glyph unicode="$" horiz-adv-x="1189" d="M92 41v156q123 -31 248 -48.5t221 -17.5q178 0 271.5 65.5t93.5 188.5q0 70 -27 118t-73 81.5t-111.5 57.5t-141.5 44q-121 33 -206.5 72t-141 91t-82 120.5t-26.5 158.5q0 166 107.5 273.5t293.5 136.5v283h172v-277q76 -4 162 -16t190 -35l-6 -154q-98 27 -198.5 40.5 t-182.5 13.5q-162 0 -255 -70t-93 -190q0 -57 18.5 -100.5t59.5 -77t106.5 -62.5t161.5 -55q100 -29 185.5 -62t147 -83t95 -121.5t33.5 -176.5q0 -174 -103.5 -277.5t-301.5 -129.5v-293h-172v282q-98 4 -217 19.5t-228 44.5z" />
<glyph unicode="%" horiz-adv-x="1980" d="M84 1055q0 240 94 360.5t277 120.5q182 0 276 -121t94 -360q0 -242 -94 -363t-276 -121t-276.5 121t-94.5 363zM225 1055q0 -182 56.5 -269.5t173.5 -87.5t173 87t56 270q0 354 -229 354t-230 -354zM555 0l705 1516h165l-706 -1516h-164zM1157 461q0 240 95.5 361.5 t277.5 121.5q180 0 275.5 -122t95.5 -361q0 -242 -95.5 -363t-275.5 -121q-182 0 -277.5 121t-95.5 363zM1298 461q0 -182 57.5 -269.5t174.5 -87.5q115 0 172 87.5t57 269.5t-57 269t-172 87q-231 0 -232 -356z" />
<glyph unicode="&#x26;" horiz-adv-x="1495" d="M104 422q0 141 70 242.5t205 154.5q-61 74 -87 152t-26 172q0 195 124 297t355 102q86 0 176.5 -17.5t200.5 -56.5l2 -10l-32 -121h-15q-182 68 -317 68q-311 0 -311 -275q0 -72 24.5 -134t77.5 -122.5t138 -121t206 -125.5l240 -133q18 92 18 206v156h168v-154 q0 -164 -37 -292l176 -97v-16l-71 -123h-17l-147 84q-158 -281 -557 -281q-131 0 -235.5 31t-177.5 88.5t-112 140t-39 185.5zM289 430q0 -147 103.5 -231t283.5 -84q299 0 409 223l-274 160q-104 59 -186 112.5t-142 106.5q-195 -92 -194 -287z" />
<glyph unicode="'" horiz-adv-x="405" d="M139 983v672h158v-8l-64 -664h-94z" />
<glyph unicode="(" horiz-adv-x="612" d="M92 725q0 287 82 556t238 497h163v-9q-158 -223 -243.5 -490t-85.5 -554q0 -289 86 -555t243 -489v-9h-163q-156 227 -238 496.5t-82 556.5z" />
<glyph unicode=")" horiz-adv-x="610" d="M39 -319q158 223 243 489t85 555q0 287 -85 554t-243 490v9h162q156 -227 236.5 -496.5t80.5 -556.5t-81 -556t-236 -497h-162v9z" />
<glyph unicode="*" horiz-adv-x="1013" d="M94 1356l37 112l158 -49l192 -98l-32 217v164h118v-164l-35 -217l193 98l160 49l35 -112l-156 -49l-215 -35l153 -154l99 -135l-96 -68l-97 134l-100 198l-100 -198l-99 -134l-94 68l96 135l154 154l-215 35z" />
<glyph unicode="+" horiz-adv-x="1001" d="M96 694v127h340v348h129v-348h342v-127h-342v-348h-129v348h-340z" />
<glyph unicode="," horiz-adv-x="477" d="M68 -297l92 508h186l-141 -528z" />
<glyph unicode="-" horiz-adv-x="940" d="M137 500v147h666v-147h-666z" />
<glyph unicode="." horiz-adv-x="483" d="M125 104q0 57 31.5 84t85.5 27q53 0 84.5 -27.5t31.5 -83.5q0 -55 -31.5 -83.5t-84.5 -28.5t-85 28.5t-32 83.5z" />
<glyph unicode="/" horiz-adv-x="792" d="M63 -246l504 1762h162l-504 -1762h-162z" />
<glyph unicode="0" horiz-adv-x="1357" d="M113 756q0 387 144 583.5t423 196.5q276 0 420.5 -196.5t144.5 -583.5t-144.5 -583t-420.5 -196q-279 0 -423 196t-144 583zM293 756q0 -319 95 -472t292 -153q193 0 288 152.5t95 472.5q0 322 -95.5 474t-287.5 152q-195 0 -291 -152.5t-96 -473.5z" />
<glyph unicode="1" horiz-adv-x="829" d="M45 1239v12l449 265h137v-1516h-182v1305h-9l-352 -175h-16z" />
<glyph unicode="2" horiz-adv-x="1128" d="M94 4v199q0 100 28 179t82 144.5t135 124t187 117.5q162 88 233.5 168t71.5 184q0 254 -309 254q-84 0 -176 -14t-186 -39l-21 158q123 29 222.5 41t191.5 12q459 0 459 -399q0 -80 -21.5 -144.5t-66.5 -121t-114 -108.5t-163 -106q-186 -109 -274 -201t-88 -206v-90h733 v-152h-924z" />
<glyph unicode="3" horiz-adv-x="1079" d="M113 1503q70 16 156.5 24.5t162.5 8.5q242 0 370 -103.5t128 -302.5q0 -133 -62.5 -222t-181.5 -124v-10q137 -29 211 -123t74 -241q0 -209 -139.5 -319.5t-405.5 -110.5q-78 0 -162 7t-149 21v146h8q25 -6 59.5 -10.5t73.5 -8.5t77 -6t68 -2q383 0 383 297 q0 141 -89 208.5t-283 67.5h-136v142h134q172 0 252.5 67.5t80.5 204.5t-80.5 204.5t-250.5 67.5q-51 0 -126 -8t-161 -20h-10z" />
<glyph unicode="4" d="M47 461v14l508 1061h8l168 -25l4 -18l-489 -981v-8h530l51 504h127v-504h226v-148h-226v-356h-180v356h-690z" />
<glyph unicode="5" horiz-adv-x="1089" d="M106 8v148h37q72 -14 137.5 -21.5t127.5 -7.5q201 0 301 73.5t100 248.5q0 80 -28.5 134t-89 86.5t-154 48t-224.5 17.5l-155 4l-17 17l56 760h733v-152h-592l-31 -477q178 -2 309.5 -24.5t215 -75t124.5 -136.5t41 -207q0 -127 -41 -215t-116.5 -144t-180 -82 t-233.5 -26q-154 0 -320 31z" />
<glyph unicode="6" horiz-adv-x="1265" d="M111 672q0 207 46 368.5t135 272t220 168t301 57.5q63 0 130 -8t142 -27l-14 -145q-76 18 -135 26.5t-119 8.5q-236 0 -367 -155t-153 -454q84 70 188.5 109t208.5 39q113 0 204 -31t154.5 -88t97.5 -140t34 -186q0 -117 -37 -211t-105.5 -160.5t-164.5 -102.5t-215 -36 q-272 0 -411.5 173.5t-139.5 521.5zM293 647q4 -272 93 -399t276 -127q156 0 245.5 97t89.5 267q0 152 -87.5 234t-247.5 82q-96 0 -195.5 -42t-173.5 -112z" />
<glyph unicode="7" horiz-adv-x="1005" d="M49 1499l14 17h869l35 -97v-51l-543 -1370l-43 -27l-152 29v29l543 1325h-711z" />
<glyph unicode="8" horiz-adv-x="1261" d="M106 389q0 88 26 153.5t66 114t88 81t93 53.5q-49 25 -90 56.5t-72 74.5t-47 99t-16 128q0 94 35.5 167t100 122t153.5 73.5t196 24.5q106 0 192.5 -24.5t147.5 -73.5t94 -122t33 -169q0 -78 -20.5 -138.5t-54.5 -105.5t-76 -76.5t-85 -54.5q61 -25 113.5 -56.5 t90.5 -76.5t60.5 -104.5t22.5 -137.5q0 -197 -136 -302t-388 -105q-256 0 -391.5 100t-135.5 299zM281 403q0 -141 96 -209.5t256 -68.5q158 0 254 67.5t96 196.5q0 74 -28.5 125t-79 86t-117 59.5t-142.5 45.5l-96 28q-33 -14 -73.5 -38.5t-77.5 -63.5t-62.5 -94.5 t-25.5 -133.5zM322 1141q0 -74 29.5 -123t79.5 -85t117.5 -60.5t143.5 -45.5l29 -8q31 16 69.5 42t71.5 65t55.5 91t22.5 122q0 131 -86 195.5t-221 64.5q-137 0 -224 -64.5t-87 -193.5z" />
<glyph unicode="9" horiz-adv-x="1267" d="M84 1028q0 117 37 211t105.5 160.5t164.5 102.5t215 36q272 0 411.5 -173t139.5 -521q0 -416 -181 -641.5t-521 -225.5q-63 0 -130 8.5t-143 26.5l15 146q76 -18 135 -26.5t119 -8.5q236 0 366.5 154.5t153.5 453.5q-84 -70 -188.5 -108.5t-209.5 -38.5 q-113 0 -203.5 30.5t-154 88t-97.5 140.5t-34 185zM270 1030q0 -152 88 -233.5t248 -81.5q96 0 195.5 42t173.5 111q-4 272 -93 399.5t-276 127.5q-156 0 -246 -97.5t-90 -267.5z" />
<glyph unicode=":" horiz-adv-x="499" d="M133 104q0 57 32 84t85 27t85 -27.5t32 -83.5q0 -55 -32 -83.5t-85 -28.5t-85 28.5t-32 83.5zM133 1004q0 57 32 83.5t85 26.5t85 -27.5t32 -82.5t-32 -84t-85 -29t-85 28.5t-32 84.5z" />
<glyph unicode=";" horiz-adv-x="550" d="M111 -297l92 508h186l-141 -528zM170 1004q0 57 31.5 83.5t85.5 26.5q53 0 84.5 -27.5t31.5 -82.5t-31.5 -84t-84.5 -29t-85 28.5t-32 84.5z" />
<glyph unicode="&#x3c;" horiz-adv-x="1054" d="M92 690v121l819 360v-143l-641 -280l637 -279v-141z" />
<glyph unicode="=" horiz-adv-x="1077" d="M143 442v133h793v-133h-793zM143 883v131h793v-131h-793z" />
<glyph unicode="&#x3e;" horiz-adv-x="1054" d="M145 1028v143l818 -360v-121l-813 -362v141l632 279z" />
<glyph unicode="?" horiz-adv-x="921" d="M66 1483q78 23 164.5 38t179.5 15q86 0 165.5 -21.5t140 -68.5t96.5 -124t36 -187q0 -104 -37 -178t-95.5 -125.5t-131 -82t-144.5 -49.5l-4 -294v-37h-133v37l-10 387q63 16 132 38.5t126 59.5t93 92t36 137q0 76 -25.5 128t-66.5 83t-95.5 44.5t-109.5 13.5 q-78 0 -151.5 -13.5t-145.5 -34.5zM268 98q0 49 28 77t77 28q51 0 79.5 -28t28.5 -77q0 -47 -28.5 -74.5t-79.5 -27.5q-49 0 -77 27.5t-28 74.5z" />
<glyph unicode="@" horiz-adv-x="1812" d="M102 535q0 199 58.5 356.5t167 266t263 165.5t345.5 57q186 0 327.5 -51t237.5 -148.5t145.5 -237.5t49.5 -316q0 -248 -94.5 -383t-276.5 -135q-109 0 -163 51t-64 131h-11q-29 -41 -67.5 -73t-82.5 -53.5t-92 -33.5t-93 -12q-135 0 -208 96t-73 260q0 117 37 215 t103.5 169t160.5 111t209 40q66 0 142.5 -17.5t162.5 -50.5l-80 -430q-8 -43 -13 -79t-5 -66q0 -72 31.5 -110t109.5 -38q117 0 178.5 106.5t61.5 301.5q0 301 -159 467t-474 166q-162 0 -293 -49.5t-223 -142.5t-142.5 -227t-50.5 -306t47.5 -301.5t133.5 -215.5 t205.5 -130t265.5 -44q90 0 193.5 17.5t213.5 52.5l41 -115q-123 -35 -236.5 -55t-211.5 -20q-172 0 -314.5 52t-246 153.5t-160 253t-56.5 352.5zM594 475q0 -111 44 -178.5t134 -67.5q53 0 104.5 20.5t95.5 59.5t75.5 95.5t44.5 127.5l59 338q-47 14 -90 22.5t-78 8.5 q-86 0 -157.5 -32.5t-123 -89t-80 -134.5t-28.5 -170z" />
<glyph unicode="A" horiz-adv-x="1394" d="M14 0v14l545 1502h277l544 -1502v-14h-180l-166 451h-678l-161 -451h-181zM408 604h577l-186 512l-94 264h-17l-94 -264z" />
<glyph unicode="B" horiz-adv-x="1361" d="M182 10v1495q147 16 255 22.5t210 6.5q301 0 434 -96.5t133 -313.5q0 -135 -67.5 -228t-190.5 -120v-8q150 -29 230 -122t80 -247q0 -419 -594 -419q-231 0 -490 30zM356 139q95 -18 314 -18q211 0 311 70.5t100 220.5q0 147 -94 217.5t-293 70.5h-338v-561zM356 836h328 q188 0 268 64.5t80 215.5q0 150 -86 213.5t-291 63.5q-92 0 -163.5 -3.5t-135.5 -13.5v-540z" />
<glyph unicode="C" horiz-adv-x="1206" d="M104 754q0 397 170 589.5t514 192.5q70 0 159 -9t179 -26v-155q-98 16 -177 24t-140 8q-268 0 -393 -148.5t-125 -473.5q0 -319 122 -469t382 -150q33 0 76.5 3t90 8.5t90.5 12.5t74 15v-153q-72 -16 -165.5 -28.5t-169.5 -12.5q-686 0 -687 772z" />
<glyph unicode="D" horiz-adv-x="1492" d="M182 6v1505q53 4 111.5 8.5t115 7.5t107.5 5t92 2q403 0 592 -187.5t189 -588.5q0 -203 -48.5 -350.5t-148.5 -242.5t-256 -141.5t-371 -46.5q-119 0 -222 7.5t-161 21.5zM365 150q74 -10 131 -14.5t125 -4.5q152 0 261 36t180 112.5t104.5 195.5t33.5 283t-32.5 281.5 t-103.5 192.5t-179.5 110.5t-257.5 35.5q-53 0 -127 -4t-135 -10v-1214z" />
<glyph unicode="E" horiz-adv-x="1261" d="M182 0v1516h963v-152h-780v-520h727v-152h-727v-540h798v-152h-981z" />
<glyph unicode="F" horiz-adv-x="1204" d="M182 0v1516h953v-152h-770v-537h702v-151h-702v-676h-183z" />
<glyph unicode="G" horiz-adv-x="1355" d="M104 754q0 782 723 782q90 0 188.5 -12.5t196.5 -36.5v-156q-123 29 -206.5 38t-163.5 9q-287 0 -419 -150.5t-132 -471.5q0 -317 125 -468t393 -151q47 0 113.5 7.5t130.5 17.5v608h172v-725q-51 -14 -106.5 -26.5t-111 -20.5t-106.5 -12t-94 -4q-702 0 -703 772z" />
<glyph unicode="H" horiz-adv-x="1570" d="M182 0v1516h183v-664h841v664h183v-1516h-183v700h-841v-700h-183z" />
<glyph unicode="I" horiz-adv-x="546" d="M182 0v1516h183v-1516h-183z" />
<glyph unicode="J" horiz-adv-x="544" d="M25 -328q45 100 76.5 184.5t50 166t26.5 167.5t8 191v1135h183v-1145q0 -102 -11.5 -191.5t-37 -177.5t-67.5 -182t-103 -207z" />
<glyph unicode="K" horiz-adv-x="1368" d="M182 0v1516h183v-668h288l461 668h207l-471 -676l-70 -54v-12l74 -51l504 -723h-207l-479 694h-307v-694h-183z" />
<glyph unicode="L" horiz-adv-x="1083" d="M182 0v1516h183v-1364h692v-152h-875z" />
<glyph unicode="M" horiz-adv-x="1906" d="M182 0v1516h250l387 -926l125 -328h14l127 328l388 926h251v-1516h-170v1282h-12l-170 -426l-336 -795h-168l-336 795l-170 426h-12v-1282h-168z" />
<glyph unicode="N" horiz-adv-x="1597" d="M182 0v1516h158l778 -1057l119 -180h14v1237h166v-1516h-160l-780 1057l-117 178l-12 -2v-1233h-166z" />
<glyph unicode="O" horiz-adv-x="1529" d="M104 756q0 385 171 582.5t489 197.5q319 0 490 -197.5t171 -582.5q0 -383 -171 -579.5t-490 -196.5q-317 0 -488.5 195.5t-171.5 580.5zM291 756q0 -317 116.5 -469t356.5 -152t357.5 152.5t117.5 468.5q0 626 -473 626h-2q-238 0 -355.5 -153.5t-117.5 -472.5z" />
<glyph unicode="P" horiz-adv-x="1320" d="M182 0v1505q199 31 379 31q358 0 524 -126t166 -398q0 -274 -163.5 -400.5t-516.5 -126.5q-47 0 -97 2t-109 7v-494h-183zM365 653q16 -4 43.5 -7t59.5 -5t64.5 -4t63.5 -2q127 0 216 20.5t145.5 65.5t82 116.5t25.5 174.5q0 98 -26.5 168.5t-83 115.5t-146.5 66.5 t-217 21.5q-55 0 -117.5 -5t-109.5 -11v-715z" />
<glyph unicode="Q" horiz-adv-x="1523" d="M100 756q0 379 170 579.5t490 200.5q322 0 492.5 -200.5t170.5 -579.5q0 -356 -159.5 -544.5t-464.5 -188.5v-15q90 -20 165.5 -34.5t145.5 -25.5t139.5 -19.5t149.5 -14.5l-37 -160q-360 61 -602 139t-388.5 193t-209 276.5t-62.5 393.5zM285 756q0 -623 475 -623 q477 0 477 623q0 626 -475 626h-2q-475 0 -475 -626z" />
<glyph unicode="R" horiz-adv-x="1359" d="M182 0v1505q197 31 379 31q360 0 525 -116.5t165 -372.5q0 -180 -80.5 -291t-250.5 -158l380 -598h-202l-346 565q-41 -4 -86 -6t-93 -2q-41 0 -98 3t-110 9v-569h-183zM365 725q31 -8 96 -13t135 -5q127 0 216 18t145.5 59t82 105.5t25.5 157.5q0 180 -109.5 258.5 t-363.5 78.5q-53 0 -116.5 -5t-110.5 -11v-643z" />
<glyph unicode="S" horiz-adv-x="1187" d="M88 41v156q123 -31 248 -48.5t221 -17.5q178 0 271.5 65.5t93.5 188.5q0 70 -27 118t-73 81.5t-111.5 57.5t-141.5 44q-121 33 -207 72t-141 91t-81.5 120.5t-26.5 158.5q0 94 36.5 172t105.5 132.5t165 84t217 29.5q86 0 183.5 -13t217.5 -40l-6 -154 q-98 27 -198.5 40.5t-182.5 13.5q-162 0 -255 -70t-93 -190q0 -57 18.5 -100.5t59.5 -77t106.5 -62.5t161.5 -55q100 -29 185.5 -62t146.5 -83t95 -121.5t34 -176.5q0 -203 -139.5 -310.5t-403.5 -107.5q-51 0 -110.5 4.5t-122 12.5t-126 20.5t-120.5 26.5z" />
<glyph unicode="T" horiz-adv-x="1228" d="M35 1362v154h1161v-154h-489v-1362h-185v1362h-487z" />
<glyph unicode="U" horiz-adv-x="1546" d="M166 612v904h182v-900q0 -258 106.5 -369.5t319.5 -111.5t318.5 110.5t105.5 370.5v900h184v-904q0 -166 -34.5 -285.5t-108.5 -196.5t-189.5 -113.5t-275.5 -36.5q-162 0 -276.5 36.5t-188 113.5t-108.5 196.5t-35 285.5z" />
<glyph unicode="V" horiz-adv-x="1390" d="M16 1516h191l381 -1043l100 -295h17l100 295l381 1043h188l-555 -1516h-246z" />
<glyph unicode="W" horiz-adv-x="2078" d="M39 1516h192l269 -1033l69 -286h13l75 286l289 1033h191l282 -1033l74 -286h16l70 286l272 1033h193l-418 -1516h-244l-276 997l-59 273h-13l-59 -273l-281 -997h-243z" />
<glyph unicode="X" horiz-adv-x="1374" d="M8 0l561 782l-530 734h211l401 -570l29 -53h16l29 53l403 570h207l-534 -742l567 -774h-209l-440 612l-27 50h-14l-27 -50l-434 -612h-209z" />
<glyph unicode="Y" horiz-adv-x="1298" d="M6 1516h197l377 -701l59 -135h18l60 135l377 701h196l-549 -1004v-512h-182v506z" />
<glyph unicode="Z" horiz-adv-x="1200" d="M68 0v137l815 1211v10h-789v158h1014v-134l-813 -1214v-12h835v-156h-1062z" />
<glyph unicode="[" horiz-adv-x="661" d="M180 -328v2106h416v-131h-268v-1844h268v-131h-416z" />
<glyph unicode="\" horiz-adv-x="790" d="M63 1516h158l504 -1762h-158z" />
<glyph unicode="]" horiz-adv-x="659" d="M66 -197h268v1844h-268v131h415v-2106h-415v131z" />
<glyph unicode="^" horiz-adv-x="976" d="M94 985l318 631h151l320 -631h-135l-256 496h-9l-254 -496h-135z" />
<glyph unicode="_" horiz-adv-x="1208" d="M109 -121h993v-147h-993v147z" />
<glyph unicode="`" horiz-adv-x="528" d="M74 1651h194l146 -371l-135 -20z" />
<glyph unicode="a" horiz-adv-x="1091" d="M80 281q0 160 100.5 243.5t321.5 100.5l264 20v80q0 72 -13.5 120t-45 77.5t-85 42t-133.5 12.5q-70 0 -150.5 -8t-174.5 -27l-14 137q109 20 197.5 29.5t178.5 9.5q215 0 317.5 -88t102.5 -274v-756h-149l-19 139h-12q-100 -72 -196.5 -110.5t-194.5 -38.5 q-143 0 -219 74.5t-76 216.5zM262 295q0 -166 178 -166q74 0 159 35t167 88v278l-215 -18q-160 -14 -224.5 -62.5t-64.5 -154.5z" />
<glyph unicode="b" horiz-adv-x="1236" d="M154 25v1630h180v-672q61 70 148 106.5t200 36.5q223 0 340 -137t117 -424t-143.5 -435.5t-405.5 -152.5q-94 0 -200.5 11.5t-235.5 36.5zM334 135q51 -8 116.5 -14t137.5 -6q186 0 277 101t91 339q0 229 -75.5 326.5t-239.5 97.5q-61 0 -116.5 -16.5t-97.5 -46 t-67.5 -73.5t-25.5 -100v-608z" />
<glyph unicode="c" horiz-adv-x="972" d="M96 551q0 573 527 573q63 0 132.5 -7t129.5 -21v-152q-61 14 -123 20.5t-121 6.5q-186 0 -274 -101.5t-88 -316.5q0 -219 85 -318.5t273 -99.5q68 0 124 5t124 20v-150q-49 -12 -120.5 -20t-141.5 -8q-526 0 -527 569z" />
<glyph unicode="d" horiz-adv-x="1236" d="M96 545q0 147 39 255.5t110.5 181.5t173 108.5t224.5 35.5q72 0 137.5 -7t122.5 -13v549h178v-1655h-155l-17 135h-12q-115 -155 -342 -155q-225 0 -342 137t-117 428zM281 553q0 -231 75.5 -330.5t239.5 -99.5q61 0 116.5 17.5t98.5 49t67.5 77.5t24.5 106v592 q-55 10 -121.5 16t-140.5 6q-180 0 -270 -100.5t-90 -333.5z" />
<glyph unicode="e" horiz-adv-x="1114" d="M98 539q0 285 128 435t372 150q424 0 424 -493q0 -94 -14 -144h-729q10 -193 95 -276.5t259 -83.5q78 0 166 14.5t174 42.5l10 -137q-82 -31 -181.5 -48t-191.5 -17q-254 0 -383 140t-129 417zM279 614h577q0 201 -63.5 286t-198.5 85q-295 0 -315 -371z" />
<glyph unicode="f" horiz-adv-x="774" d="M35 950v156h239v55q0 145 24 240.5t82 152t157.5 81t250.5 30.5l11 -135q-106 -6 -174 -22.5t-106 -51.5t-52 -95.5t-14 -156.5v-98h292v-156h-292v-950h-181v950h-237z" />
<glyph unicode="g" horiz-adv-x="1236" d="M96 551q0 145 39 252.5t110.5 179.5t173 107.5t224.5 35.5q98 0 208 -12t232 -47v-958q0 -164 -43 -270.5t-115.5 -171t-170.5 -90.5t-209 -26q-98 0 -194.5 12.5t-174.5 35.5l12 141q76 -20 162 -33.5t172 -13.5t158 19.5t123 65.5t79.5 121.5t28.5 188.5v72h-10 q-117 -160 -346 -160q-223 0 -341 133t-118 418zM281 561q0 -225 75.5 -322.5t239.5 -97.5q61 0 117.5 17.5t98.5 49.5t66.5 78t24.5 105v574q-55 10 -121.5 16t-140.5 6q-180 0 -270 -98t-90 -328z" />
<glyph unicode="h" d="M156 0v1655h178v-676q158 76 265.5 111.5t201.5 35.5q141 0 216 -74.5t75 -228.5v-823h-181v764q0 115 -43 163t-135 48q-78 0 -180 -33t-219 -88v-854h-178z" />
<glyph unicode="i" horiz-adv-x="493" d="M135 1444q0 110 109 110h2q115 0 114 -110q1 -109 -114 -109q-111 0 -111 109zM158 0v1106h178v-1106h-178z" />
<glyph unicode="j" horiz-adv-x="487" d="M18 -408q37 74 62.5 148t43 153.5t26 170t8.5 198.5v67.5v145.5v186.5v191.5t-1 160.5t-1 92.5h178v-930q-4 -170 -51 -328.5t-133 -298.5zM129 1444q0 57 25.5 83.5t85.5 26.5q113 0 112 -110q1 -109 -112 -109q-59 0 -85 27t-26 82z" />
<glyph unicode="k" horiz-adv-x="1130" d="M156 0v1655h178v-1024h190l371 475h203l-412 -518l-37 -17v-8l39 -18l442 -545h-202l-408 506h-186v-506h-178z" />
<glyph unicode="l" horiz-adv-x="497" d="M160 0v1655h180v-1655h-180z" />
<glyph unicode="m" horiz-adv-x="1843" d="M156 0v1106h147l12 -129h11q131 78 223 113.5t178 35.5q199 0 264 -151h8q133 82 227.5 116.5t178.5 34.5q141 0 216 -74.5t75 -228.5v-823h-178v762q0 115 -44 163t-137 48q-63 0 -144 -31t-175 -84v-858h-180v762q0 115 -44 163t-137 48q-66 0 -148.5 -33t-174.5 -86 v-854h-178z" />
<glyph unicode="n" d="M156 0v1106h149l12 -129h11q82 39 148.5 67.5t122.5 47t105.5 26.5t96.5 8q141 0 216 -74.5t75 -228.5v-823h-181v764q0 115 -43 163t-135 48q-78 0 -181 -33t-216 -88v-854h-180z" />
<glyph unicode="o" horiz-adv-x="1216" d="M96 553q0 281 131 427t381 146t381 -146t131 -427t-131 -427t-381 -146t-381 147t-131 426zM279 553q0 -223 79.5 -324.5t249.5 -101.5q172 0 251 101.5t79 324.5t-79 324.5t-251 101.5q-170 0 -249.5 -101.5t-79.5 -324.5z" />
<glyph unicode="p" d="M156 -451v1557h155l15 -131h12q120 151 343 151h3q223 0 340 -136t117 -425q0 -287 -144.5 -436t-404.5 -149q-72 0 -137.5 6t-118.5 12v-449h-180zM336 139q51 -8 119.5 -15t140.5 -7q180 0 271 101t91 337q0 231 -75.5 329.5t-241.5 98.5q-61 0 -116.5 -17.5t-97.5 -49 t-66.5 -77.5t-24.5 -104v-596z" />
<glyph unicode="q" horiz-adv-x="1236" d="M96 545q0 283 143.5 432t405.5 149q117 0 235.5 -13t202.5 -30v-1534h-174v586q-63 -78 -153 -116.5t-201 -38.5q-459 0 -459 565zM279 555q0 -227 74.5 -329.5t242.5 -102.5q66 0 122 18.5t97 52t64.5 79.5t23.5 104v590q-76 10 -139.5 15t-122.5 5q-188 0 -275 -102.5 t-87 -329.5z" />
<glyph unicode="r" horiz-adv-x="800" d="M156 0v1106h149l12 -152h9q115 63 211 108.5t182 61.5h57v-170h-63q-92 -12 -189.5 -48t-187.5 -83v-823h-180z" />
<glyph unicode="s" horiz-adv-x="964" d="M92 25v147q102 -25 193.5 -40t173.5 -15q123 0 185.5 47t62.5 133q0 47 -16.5 79t-47.5 54.5t-74 35.5t-94 23q-63 12 -128.5 27.5t-119 49.5t-87.5 92.5t-34 156.5q0 150 108 234t300 84q35 0 67.5 -2.5t69.5 -7.5t82 -12t107 -19l-9 -150q-104 23 -173.5 34t-129.5 11 q-247 0 -247 -167q0 -52 19 -82q19 -32 54 -52t82 -32.5t103 -22.5q74 -14 136 -36t108 -58.5t72 -93t26 -138.5q0 -154 -107.5 -241t-306.5 -87q-74 0 -160 11.5t-215 36.5z" />
<glyph unicode="t" horiz-adv-x="817" d="M33 948v158h239l27 276l141 19v-295h328v-158h-326v-616q0 -104 46.5 -153.5t144.5 -49.5q31 0 67.5 5t77.5 18v-144q-47 -12 -98 -19t-98 -7q-158 0 -239 79.5t-81 233.5v653h-229z" />
<glyph unicode="u" d="M147 283v823h181v-766q0 -111 39 -159t131 -48q98 0 202.5 42t202.5 91v840h180v-1106h-149l-12 135h-9q-84 -41 -147.5 -70.5t-117.5 -48t-106.5 -27.5t-113.5 -9q-281 0 -281 303z" />
<glyph unicode="v" horiz-adv-x="1140" d="M39 1081v25h186l287 -795l49 -168h21l49 168l289 795h184v-25l-418 -1081h-233z" />
<glyph unicode="w" horiz-adv-x="1628" d="M47 1094v12h176l199 -762l35 -162h14l39 162l215 762h174l223 -762l41 -162h15l36 162l189 762h174v-12l-297 -1094h-205l-221 743l-35 148h-12l-35 -148l-213 -743h-203z" />
<glyph unicode="x" horiz-adv-x="1132" d="M27 0v25l417 548l-395 519v14h191l254 -340l69 -98h10l70 98l248 340h192v-14l-395 -525l418 -542v-25h-188l-271 362l-78 111h-12l-74 -111l-268 -362h-188z" />
<glyph unicode="y" horiz-adv-x="1157" d="M33 1085v21h192l297 -754l49 -155h13l49 155l309 754h186v-21l-647 -1536l-164 31l-2 19l170 411z" />
<glyph unicode="z" horiz-adv-x="1007" d="M76 2v119l606 825v10h-586v150h817v-113l-602 -829v-14h623v-148h-858z" />
<glyph unicode="{" horiz-adv-x="733" d="M68 655v148q74 0 113.5 54t39.5 159v512q0 137 49 193.5t172 56.5q20 0 53 -1t67 -3t61.5 -3.5t38.5 -3.5v-120h-191q-53 0 -75.5 -21.5t-22.5 -71.5v-575q0 -96 -41 -166t-113 -86q72 -14 113 -83t41 -163v-581q0 -49 22.5 -71t75.5 -22h191v-120q-10 -2 -37 -4 t-61 -3.5t-66.5 -2.5t-51.5 -1q-123 0 -174 56.5t-51 195.5v516q0 104 -40 157.5t-113 53.5z" />
<glyph unicode="|" horiz-adv-x="528" d="M180 -451v2106h170v-2106h-170z" />
<glyph unicode="}" horiz-adv-x="733" d="M72 -193h192q53 0 75.5 21.5t22.5 71.5v581q0 94 40 163t112 83q-72 16 -112 86t-40 166v575q0 49 -22.5 71t-75.5 22h-192v120q8 2 36.5 3.5t62.5 3.5t67.5 3t52.5 1q123 0 173 -56.5t50 -193.5v-512q0 -213 152 -213v-148q-152 0 -152 -211v-516q0 -139 -51 -195.5 t-174 -56.5q-18 0 -51 1t-67 2.5t-62.5 3.5t-36.5 4v120z" />
<glyph unicode="~" horiz-adv-x="1318" d="M127 584q55 57 98 97t83 62.5t79 32.5t82 10q61 0 109.5 -23.5t92.5 -53t87 -53t94 -23.5q66 0 130.5 39t98.5 100l113 -63q-25 -41 -60.5 -81t-78.5 -73t-91.5 -52.5t-99.5 -19.5q-68 0 -119 24.5t-95 53.5t-84 53.5t-83 24.5q-63 0 -120.5 -33t-135.5 -110z" />
<glyph unicode="&#xa1;" horiz-adv-x="489" d="M143 1001q0 47 28 75t79 28q49 0 77.5 -27.5t28.5 -75.5q0 -47 -28.5 -75.5t-77.5 -28.5q-51 0 -79 27.5t-28 76.5zM154 -389l32 1089v27h113v-27l35 -1089v-21h-180v21z" />
<glyph unicode="&#xa2;" horiz-adv-x="1011" d="M98 551q0 522 443 569v232h129v-230q53 -2 110.5 -9t106.5 -17v-152q-61 14 -123 20.5t-121 6.5q-186 0 -274 -101.5t-88 -316.5q0 -219 85 -318.5t273 -99.5q68 0 124 5t124 20v-150q-41 -10 -99.5 -17t-117.5 -9v-230h-129v232q-442 43 -443 565z" />
<glyph unicode="&#xa3;" horiz-adv-x="1308" d="M102 0v162h312v520h-312v147h312v242q0 231 106.5 344t345.5 113q76 0 158 -13.5t186 -44.5l-18 -149q-90 25 -168 37t-139 12q-160 0 -224.5 -68.5t-64.5 -230.5v-242h434v-147h-434v-520h586v-162h-1080z" />
<glyph unicode="&#xa4;" horiz-adv-x="1265" d="M119 334l112 110l101 72q-76 98 -76 242q0 141 76 239l-101 74l-112 111l90 88l110 -111l74 -102q96 74 240 73q72 0 131 -19t106 -54l76 102l111 111l90 -88l-113 -111l-104 -74q37 -47 57.5 -107.5t20.5 -131.5q0 -72 -20.5 -132.5t-55.5 -107.5l102 -74l113 -110 l-90 -88l-111 110l-76 101q-96 -74 -237 -74q-143 0 -240 74l-74 -101l-110 -110zM381 758q0 -125 68.5 -192.5t183.5 -67.5t181.5 66.5t66.5 193.5q0 123 -65.5 190.5t-182.5 67.5q-115 0 -183.5 -66.5t-68.5 -191.5z" />
<glyph unicode="&#xa5;" horiz-adv-x="1404" d="M66 1516h196l377 -701l59 -135h19l59 135l377 701h197l-486 -887h305v-123h-368v-178h368v-125h-368v-203h-183v203h-419v125h419v178h-419v123h352z" />
<glyph unicode="&#xa6;" horiz-adv-x="526" d="M178 416h172v-867h-172v867zM178 788v867h172v-867h-172z" />
<glyph unicode="&#xa7;" horiz-adv-x="1024" d="M121 25v137q199 -49 364 -49q123 0 185.5 47t62.5 137q0 94 -63.5 134t-167.5 61q-61 12 -127 26t-120 48t-88 92.5t-34 156.5q0 129 84 209q-37 35 -60.5 85t-23.5 128q0 150 108.5 233.5t299.5 83.5q35 0 67.5 -2t69.5 -7t83 -12t105 -20l-6 -143q-104 23 -175 33 t-130 10q-246 0 -246 -172q0 -49 19.5 -82t54.5 -53.5t82 -32.5t102 -22q72 -14 134.5 -35t108.5 -57.5t71.5 -93t25.5 -138.5q0 -133 -80 -215q80 -68 80 -207q0 -154 -107 -241t-306 -87q-74 0 -160 11.5t-213 36.5zM307 825q0 -53 18.5 -86.5t50.5 -55t74 -35t89 -25.5 q35 -8 75.5 -21t69.5 -27q51 51 51 134q0 51 -15 86.5t-44 60.5t-68 39t-86 25q-35 10 -78 18t-73 25q-63 -49 -64 -138z" />
<glyph unicode="&#xa8;" horiz-adv-x="983" d="M127 1434q0 102 106 102q104 0 105 -102q-1 -105 -105 -105q-106 0 -106 105zM616 1434q0 102 105 102q106 0 106 -102q0 -105 -106 -105q-104 0 -105 105z" />
<glyph unicode="&#xa9;" horiz-adv-x="1730" d="M104 758q0 174 54.5 318.5t155 246.5t240.5 158.5t312 56.5t311.5 -56.5t240 -158.5t154.5 -246.5t54 -318.5q0 -176 -54 -319.5t-154.5 -246t-240 -159t-311.5 -56.5t-312 56.5t-240.5 159t-155 246t-54.5 319.5zM217 758q0 -152 45 -276t130 -212t204.5 -136t269.5 -48 q147 0 267 48t204 136t130 212t46 276t-46 275.5t-130 212.5t-203.5 137.5t-267.5 48.5q-150 0 -269.5 -48.5t-204.5 -137.5t-130 -213t-45 -275zM518 750q0 213 101.5 318.5t277.5 105.5q47 0 91 -5.5t85 -15.5v-111q-41 8 -83 13.5t-81 5.5q-129 0 -196.5 -77t-67.5 -232 q0 -158 69.5 -232t192.5 -74q37 0 80 5.5t90 13.5v-109q-84 -22 -180 -22q-176 0 -277.5 103.5t-101.5 312.5z" />
<glyph unicode="&#xaa;" horiz-adv-x="907" d="M94 932q0 104 81 166.5t241 72.5l200 15v55q0 47 -9 79t-31.5 50.5t-61.5 26.5t-98 8q-39 0 -95.5 -4t-138.5 -17l-16 117q90 14 158.5 20.5t121.5 6.5q172 0 247 -61.5t75 -192.5v-553h-129l-10 96h-8q-82 -51 -150.5 -77.5t-134.5 -26.5q-111 0 -176.5 60.5 t-65.5 158.5zM248 944q0 -115 133 -115q47 0 100.5 16.5t134.5 57.5v182l-106 -6q-76 -4 -126 -13t-81 -25.5t-43 -40t-12 -56.5z" />
<glyph unicode="&#xab;" horiz-adv-x="1255" d="M70 549v8l368 487h191l-369 -487v-8l369 -488h-191zM604 549v8l369 487h190l-368 -487v-8l368 -488h-190z" />
<glyph unicode="&#xac;" horiz-adv-x="1665" d="M131 723v154h1380v-648h-176v494h-1204z" />
<glyph unicode="&#xad;" horiz-adv-x="940" d="M137 500v147h666v-147h-666z" />
<glyph unicode="&#xae;" horiz-adv-x="1480" d="M113 913q0 137 46 252t129 199t198.5 131t252.5 47t254 -47t200 -131t130 -198.5t47 -252.5q0 -137 -47 -251.5t-130 -197.5t-200 -130t-254 -47t-252.5 47t-198.5 130t-129 197.5t-46 251.5zM211 913q0 -117 39 -215t108.5 -168.5t166.5 -109.5t214 -39t215.5 39 t168 109.5t108.5 169t39 214.5q0 117 -39 214.5t-108.5 168t-168 110.5t-215.5 40t-214 -40t-166.5 -110.5t-108.5 -168t-39 -214.5zM512 582v684q53 6 102.5 10t90.5 4q160 0 234.5 -53t74.5 -166q0 -156 -146 -201l-2 -6l170 -272h-108l-156 254h-164v-254h-96zM608 922 q16 -2 46 -2h57q203 0 202 139q0 72 -46 104.5t-152 32.5q-23 0 -50.5 -1t-56.5 -5v-268z" />
<glyph unicode="&#xaf;" horiz-adv-x="964" d="M129 1327v133h668v-133h-668z" />
<glyph unicode="&#xb0;" horiz-adv-x="948" d="M90 1149q0 80 30 148.5t81 119.5t121.5 80t152.5 29t151.5 -29t121 -80t80 -119.5t28.5 -148.5t-28.5 -149.5t-80 -121t-121 -80t-151.5 -28.5t-152.5 28.5t-121.5 80t-81 121t-30 149.5zM217 1149q0 -57 18.5 -105.5t52.5 -84t81 -55t106 -19.5q117 0 186.5 73.5 t69.5 190.5q0 115 -69.5 189.5t-186.5 74.5q-59 0 -106 -20.5t-81 -55t-52.5 -83t-18.5 -105.5z" />
<glyph unicode="&#xb1;" horiz-adv-x="1095" d="M147 813v129h336v346h129v-346h334v-129h-334v-342h-129v342h-336zM150 184v129h798v-129h-798z" />
<glyph unicode="&#xb2;" horiz-adv-x="884" d="M82 618v156q0 68 18.5 126t57.5 108.5t101.5 96.5t150.5 93q63 33 106 62.5t68.5 57.5t36 55.5t10.5 60.5q0 172 -221 172q-106 0 -277 -39l-20 135q96 23 174 33t147 10q356 0 357 -301q0 -109 -66 -189.5t-217 -162.5q-66 -37 -112 -70t-73.5 -66.5t-40 -68.5 t-12.5 -76v-57h523v-136h-711z" />
<glyph unicode="&#xb3;" horiz-adv-x="841" d="M92 1722q55 12 124 19.5t126 7.5q188 0 286.5 -80t98.5 -229q0 -90 -41 -154.5t-117 -93.5q182 -59 183 -270q0 -156 -103.5 -239t-300.5 -83q-66 0 -133.5 6t-120.5 17v139h15q41 -8 103 -14.5t107 -6.5q141 0 209 50.5t68 148.5q0 92 -64.5 137t-205.5 45h-109v121h107 q242 0 241 182q0 92 -57 137.5t-182 45.5q-37 0 -93.5 -5.5t-121.5 -15.5h-15z" />
<glyph unicode="&#xb4;" horiz-adv-x="509" d="M96 1262l144 378h186l-203 -393z" />
<glyph unicode="&#xb5;" horiz-adv-x="1296" d="M176 -451v1557h178v-791q0 -98 43 -144t125 -46q98 0 194.5 36t215.5 91v854h180v-1106h-149l-15 135h-8q-84 -41 -146.5 -70.5t-116.5 -48t-106.5 -27.5t-113.5 -9q-29 0 -54.5 4t-48.5 10v-445h-178z" />
<glyph unicode="&#xb6;" horiz-adv-x="1226" d="M80 1034q0 137 35 231.5t98 152t153.5 83t200.5 25.5q53 0 104.5 -5t110.5 -16v-1505h-106v545q-27 -2 -55.5 -2h-53.5q-111 0 -201 25.5t-153 83t-98 151.5t-35 231zM901 0v1505h125v-1505h-125z" />
<glyph unicode="&#xb7;" horiz-adv-x="491" d="M127 758q0 115 117 114q117 0 116 -114q1 -113 -116 -113q-57 0 -87 26.5t-30 86.5z" />
<glyph unicode="&#xb8;" horiz-adv-x="630" d="M74 -303q61 -23 141 -23q78 0 112.5 28t34.5 93q0 51 -23.5 106.5t-82.5 141.5h133q33 -49 53.5 -86t32.5 -66.5t17.5 -56.5t5.5 -55q0 -111 -63.5 -170.5t-180.5 -59.5q-41 0 -89 7.5t-91 17.5v123z" />
<glyph unicode="&#xb9;" horiz-adv-x="665" d="M43 1518l2 20l344 195h115v-1119h-158v940l-262 -122h-16z" />
<glyph unicode="&#xba;" horiz-adv-x="970" d="M98 1118q0 209 102.5 310.5t284.5 101.5t284.5 -101.5t102.5 -310.5t-102.5 -310t-284.5 -101t-284.5 101t-102.5 310zM250 1118q0 -84 17.5 -139t48 -89t73.5 -48.5t96 -14.5t96.5 14.5t74 48.5t47 89t16.5 139t-16.5 140.5t-47 90t-73.5 47t-97 13.5q-53 0 -96 -13.5 t-73.5 -47t-48 -90t-17.5 -140.5z" />
<glyph unicode="&#xbb;" horiz-adv-x="1255" d="M96 61l367 488v8l-367 487h189l366 -487v-8l-366 -488h-189zM631 61l366 488v8l-366 487h188l367 -487v-8l-367 -488h-188z" />
<glyph unicode="&#xbc;" horiz-adv-x="2019" d="M57 1313l2 20l344 195h115v-1118h-158v940l-262 -123h-16zM469 0l707 1516h163l-706 -1516h-164zM1094 356l383 772l18 5l127 -19l8 -31l-362 -696h370l39 369h111v-369h168v-129h-168v-258h-158v258h-504z" />
<glyph unicode="&#xbd;" horiz-adv-x="2082" d="M57 1313l2 20l344 195h115v-1118h-158v940l-262 -123h-16zM469 0l707 1516h163l-706 -1516h-164zM1266 4v156q0 68 17 124t57 107t101.5 98.5t151.5 94.5q63 35 106.5 63.5t69 56t36 55t10.5 60.5q0 172 -220 172q-59 0 -128.5 -10t-149.5 -29l-21 135q96 23 173 33 t149 10q356 0 356 -301q0 -55 -15 -100t-49 -87t-87.5 -82t-130.5 -83q-68 -39 -113 -71.5t-72.5 -65.5t-40 -67.5t-12.5 -75.5v-58h522v-135h-710z" />
<glyph unicode="&#xbe;" horiz-adv-x="2170" d="M117 1518q55 12 123.5 19t126.5 7q188 0 286.5 -80t98.5 -229q0 -90 -41 -154.5t-117 -93.5q182 -59 182 -270q0 -156 -103 -239t-300 -83q-66 0 -133.5 6.5t-120.5 16.5v139h14q41 -8 103.5 -14t107.5 -6q141 0 209 50t68 148q0 92 -64.5 137.5t-206.5 45.5h-108v120 h106q242 0 242 183q0 92 -57.5 137t-182.5 45q-37 0 -93 -5t-122 -16h-14zM618 0l707 1516h164l-707 -1516h-164zM1247 356l383 772l19 5l127 -19l8 -31l-363 -696h371l39 369h111v-369h167v-129h-167v-258h-158v258h-504z" />
<glyph unicode="&#xbf;" horiz-adv-x="909" d="M70 -20q0 104 36.5 177.5t95 125t131.5 82t144 49.5l4 295v36h133v-36l11 -387q-66 -16 -133.5 -39t-125 -60t-93 -92t-35.5 -137q0 -78 25.5 -129t66.5 -82t95 -44t110 -13q78 0 151.5 13t144.5 34l21 -142q-78 -23 -165 -38t-179 -15q-86 0 -166 21.5t-140.5 68.5 t-96 124t-35.5 188zM436 1016q0 47 29 74.5t80 27.5q49 0 76.5 -27.5t27.5 -74.5q0 -49 -27.5 -77t-76.5 -28q-51 0 -80 28t-29 77z" />
<glyph unicode="&#xc0;" horiz-adv-x="1394" d="M14 0v14l545 1502h277l544 -1502v-14h-180l-166 451h-678l-161 -451h-181zM408 604h577l-186 512l-94 264h-17l-94 -264zM422 1939h188l152 -274l-141 -27z" />
<glyph unicode="&#xc1;" horiz-adv-x="1394" d="M14 0v14l545 1502h277l544 -1502v-14h-180l-166 451h-678l-161 -451h-181zM408 604h577l-186 512l-94 264h-17l-94 -264zM618 1653l152 286h188l-200 -301z" />
<glyph unicode="&#xc2;" horiz-adv-x="1394" d="M14 0v14l545 1502h277l544 -1502v-14h-180l-166 451h-678l-161 -451h-181zM360 1663v143l338 154l340 -154v-143l-340 152zM408 604h577l-186 512l-94 264h-17l-94 -264z" />
<glyph unicode="&#xc3;" horiz-adv-x="1394" d="M14 0v14l545 1502h277l544 -1502v-14h-180l-166 451h-678l-161 -451h-181zM299 1763q57 76 125 115t133 39q49 0 92 -13.5t84 -28.5t82 -28.5t88 -13.5q92 0 182 78l50 -56q-53 -74 -124 -114.5t-143 -40.5q-45 0 -88 13t-85 28.5t-83 29t-84 13.5q-47 0 -90 -17.5 t-90 -58.5zM408 604h577l-186 512l-94 264h-17l-94 -264z" />
<glyph unicode="&#xc4;" horiz-adv-x="1394" d="M14 0v14l545 1502h277l544 -1502v-14h-180l-166 451h-678l-161 -451h-181zM315 1792q0 113 115 113q117 0 117 -113q0 -115 -117 -115q-115 0 -115 115zM408 604h577l-186 512l-94 264h-17l-94 -264zM848 1792q0 113 117 113q55 0 85.5 -27t30.5 -86t-30.5 -87t-85.5 -28 q-117 0 -117 115z" />
<glyph unicode="&#xc5;" horiz-adv-x="1394" d="M14 0v14l545 1502h277l544 -1502v-14h-180l-166 451h-678l-161 -451h-181zM408 604h577l-186 512l-94 264h-17l-94 -264zM453 1817q0 98 69.5 161.5t177.5 63.5q106 0 175 -63.5t69 -161.5q0 -94 -69 -157t-175 -63q-109 0 -178 62.5t-69 157.5zM551 1817q0 -61 37.5 -95 t111.5 -34q72 0 109 33.5t37 95.5q0 63 -37 99t-109 36q-74 0 -111.5 -36t-37.5 -99z" />
<glyph unicode="&#xc6;" horiz-adv-x="1816" d="M12 0v14l615 1502h1071v-152h-678l27 -520h598v-154h-590l26 -538h639v-152h-821l-18 449h-506l-185 -449h-178zM440 606h434l-30 766h-88z" />
<glyph unicode="&#xc7;" horiz-adv-x="1206" d="M104 754q0 397 170 589.5t514 192.5q70 0 159 -9t179 -26v-155q-98 16 -177 24t-140 8q-268 0 -393 -148.5t-125 -473.5q0 -319 122 -469t382 -150q33 0 76.5 3t90 8.5t90.5 12.5t74 15v-153q-66 -16 -151.5 -26.5t-159.5 -14.5q41 -68 55.5 -112t14.5 -91 q0 -111 -63.5 -170.5t-180.5 -59.5q-41 0 -89 7.5t-91 17.5v123q61 -23 141 -23q78 0 113 28t35 93q0 43 -15.5 87t-54.5 106q-575 59 -576 766z" />
<glyph unicode="&#xc8;" horiz-adv-x="1261" d="M182 0v1516h963v-152h-780v-520h727v-152h-727v-540h798v-152h-981zM414 1939h188l152 -274l-142 -27z" />
<glyph unicode="&#xc9;" horiz-adv-x="1261" d="M182 0v1516h963v-152h-780v-520h727v-152h-727v-540h798v-152h-981zM582 1653l151 286h189l-201 -301z" />
<glyph unicode="&#xca;" horiz-adv-x="1261" d="M182 0v1516h963v-152h-780v-520h727v-152h-727v-540h798v-152h-981zM338 1663v143l338 154l340 -154v-143l-340 152z" />
<glyph unicode="&#xcb;" horiz-adv-x="1261" d="M182 0v1516h963v-152h-780v-520h727v-152h-727v-540h798v-152h-981zM289 1792q0 113 114 113q117 0 117 -113q0 -115 -117 -115q-115 0 -114 115zM821 1792q0 113 117 113q55 0 86 -27t31 -86t-31 -87t-86 -28q-117 0 -117 115z" />
<glyph unicode="&#xcc;" horiz-adv-x="546" d="M18 1939h189l151 -274l-141 -27zM182 0v1516h183v-1516h-183z" />
<glyph unicode="&#xcd;" horiz-adv-x="546" d="M182 0v1516h183v-1516h-183zM195 1653l151 286h189l-201 -301z" />
<glyph unicode="&#xce;" horiz-adv-x="546" d="M-61 1663v143l337 154l340 -154v-143l-340 152zM182 0v1516h183v-1516h-183z" />
<glyph unicode="&#xcf;" horiz-adv-x="546" d="M-104 1792q0 113 114 113q117 0 117 -113q0 -115 -117 -115q-115 0 -114 115zM182 0v1516h183v-1516h-183zM428 1792q0 113 117 113q55 0 86 -27t31 -86t-31 -87t-86 -28q-117 0 -117 115z" />
<glyph unicode="&#xd0;" horiz-adv-x="1515" d="M8 684v147h199v680q53 4 111.5 8.5t114.5 7.5t107.5 5t92.5 2q403 0 591.5 -187.5t188.5 -588.5q0 -203 -48 -350.5t-148.5 -242.5t-256 -141.5t-370.5 -46.5q-119 0 -222.5 7.5t-160.5 21.5v678h-199zM389 150q74 -10 131 -14.5t125 -4.5q152 0 261.5 36t180 112.5 t104.5 195.5t34 283t-33 281.5t-103.5 192.5t-179 110.5t-258.5 35.5q-53 0 -126.5 -4t-135.5 -10v-533h369v-147h-369v-534z" />
<glyph unicode="&#xd1;" horiz-adv-x="1597" d="M182 0v1516h158l778 -1057l119 -180h14v1237h166v-1516h-160l-780 1057l-117 178l-12 -2v-1233h-166zM399 1763q57 76 125 115t133 39q49 0 92.5 -13.5t84 -28.5t81.5 -28.5t89 -13.5q92 0 182 78l49 -56q-53 -74 -124 -114.5t-142 -40.5q-45 0 -88 13t-85 28.5t-83 29 t-84 13.5q-47 0 -90 -17.5t-90 -58.5z" />
<glyph unicode="&#xd2;" horiz-adv-x="1529" d="M104 756q0 385 171 582.5t489 197.5q319 0 490 -197.5t171 -582.5q0 -383 -171 -579.5t-490 -196.5q-317 0 -488.5 195.5t-171.5 580.5zM291 756q0 -317 116.5 -469t356.5 -152t357.5 152.5t117.5 468.5q0 627 -475 626q-238 0 -355.5 -153.5t-117.5 -472.5zM489 1939 h189l151 -274l-141 -27z" />
<glyph unicode="&#xd3;" horiz-adv-x="1529" d="M104 756q0 385 171 582.5t489 197.5q319 0 490 -197.5t171 -582.5q0 -383 -171 -579.5t-490 -196.5q-317 0 -488.5 195.5t-171.5 580.5zM291 756q0 -317 116.5 -469t356.5 -152t357.5 152.5t117.5 468.5q0 627 -475 626q-238 0 -355.5 -153.5t-117.5 -472.5zM684 1653 l152 286h188l-201 -301z" />
<glyph unicode="&#xd4;" horiz-adv-x="1529" d="M104 756q0 385 171 582.5t489 197.5q319 0 490 -197.5t171 -582.5q0 -383 -171 -579.5t-490 -196.5q-317 0 -488.5 195.5t-171.5 580.5zM291 756q0 -317 116.5 -469t356.5 -152t357.5 152.5t117.5 468.5q0 627 -475 626q-238 0 -355.5 -153.5t-117.5 -472.5zM426 1663 v143l338 154l340 -154v-143l-340 152z" />
<glyph unicode="&#xd5;" horiz-adv-x="1529" d="M104 756q0 385 171 582.5t489 197.5q319 0 490 -197.5t171 -582.5q0 -383 -171 -579.5t-490 -196.5q-317 0 -488.5 195.5t-171.5 580.5zM291 756q0 -317 116.5 -469t356.5 -152t357.5 152.5t117.5 468.5q0 627 -475 626q-238 0 -355.5 -153.5t-117.5 -472.5zM365 1763 q57 76 124.5 115t133.5 39q49 0 92 -13.5t84 -28.5t82 -28.5t88 -13.5q92 0 182 78l49 -56q-53 -74 -123.5 -114.5t-142.5 -40.5q-45 0 -88 13t-85 28.5t-83 29t-84 13.5q-47 0 -90 -17.5t-90 -58.5z" />
<glyph unicode="&#xd6;" horiz-adv-x="1529" d="M104 756q0 385 171 582.5t489 197.5q319 0 490 -197.5t171 -582.5q0 -383 -171 -579.5t-490 -196.5q-317 0 -488.5 195.5t-171.5 580.5zM291 756q0 -317 116.5 -469t356.5 -152t357.5 152.5t117.5 468.5q0 627 -475 626q-238 0 -355.5 -153.5t-117.5 -472.5zM379 1792 q0 113 115 113q117 0 116 -113q1 -115 -116 -115q-115 0 -115 115zM911 1792q0 113 117 113q55 0 86 -27t31 -86t-31 -87t-86 -28q-117 0 -117 115z" />
<glyph unicode="&#xd7;" horiz-adv-x="968" d="M119 485l274 275l-274 272l92 92l272 -274l275 274l92 -92l-275 -274l275 -273l-90 -90l-275 273l-274 -273z" />
<glyph unicode="&#xd8;" horiz-adv-x="1533" d="M78 0l172 213q-141 193 -141 543q0 385 170 582.5t489 197.5q266 0 432 -143l98 123h156l-172 -213q72 -98 108.5 -234.5t36.5 -312.5q0 -383 -170 -579.5t-489 -196.5q-270 0 -436 143l-101 -123h-153zM293 756q0 -248 74 -396l727 902q-117 121 -326 120 q-238 0 -356.5 -153.5t-118.5 -472.5zM438 256q119 -121 330 -121q240 0 357.5 152.5t117.5 468.5q0 250 -78 401z" />
<glyph unicode="&#xd9;" horiz-adv-x="1546" d="M166 612v904h182v-900q0 -258 106.5 -369.5t319.5 -111.5t318.5 110.5t105.5 370.5v900h184v-904q0 -166 -34.5 -285.5t-108.5 -196.5t-189.5 -113.5t-275.5 -36.5q-162 0 -276.5 36.5t-188 113.5t-108.5 196.5t-35 285.5zM500 1939h188l152 -274l-142 -27z" />
<glyph unicode="&#xda;" horiz-adv-x="1546" d="M166 612v904h182v-900q0 -258 106.5 -369.5t319.5 -111.5t318.5 110.5t105.5 370.5v900h184v-904q0 -166 -34.5 -285.5t-108.5 -196.5t-189.5 -113.5t-275.5 -36.5q-162 0 -276.5 36.5t-188 113.5t-108.5 196.5t-35 285.5zM678 1653l151 286h189l-201 -301z" />
<glyph unicode="&#xdb;" horiz-adv-x="1546" d="M166 612v904h182v-900q0 -258 106.5 -369.5t319.5 -111.5t318.5 110.5t105.5 370.5v900h184v-904q0 -166 -34.5 -285.5t-108.5 -196.5t-189.5 -113.5t-275.5 -36.5q-162 0 -276.5 36.5t-188 113.5t-108.5 196.5t-35 285.5zM430 1663v143l338 154l340 -154v-143l-340 152z " />
<glyph unicode="&#xdc;" horiz-adv-x="1546" d="M166 612v904h182v-900q0 -258 106.5 -369.5t319.5 -111.5t318.5 110.5t105.5 370.5v900h184v-904q0 -166 -34.5 -285.5t-108.5 -196.5t-189.5 -113.5t-275.5 -36.5q-162 0 -276.5 36.5t-188 113.5t-108.5 196.5t-35 285.5zM387 1792q0 113 115 113q117 0 116 -113 q1 -115 -116 -115q-115 0 -115 115zM920 1792q0 113 116 113q55 0 86 -27t31 -86t-31 -87t-86 -28q-117 0 -116 115z" />
<glyph unicode="&#xdd;" horiz-adv-x="1298" d="M6 1516h197l377 -701l59 -135h18l60 135l377 701h196l-549 -1004v-512h-182v506zM571 1653l152 286h188l-200 -301z" />
<glyph unicode="&#xde;" horiz-adv-x="1329" d="M182 0v1518h183v-252q53 4 103 7t99 3q356 0 520 -124t164 -392q0 -135 -38.5 -233.5t-120.5 -162t-210 -93t-307 -29.5q-49 0 -101 2t-109 8v-252h-183zM365 416q12 -4 39.5 -6t59.5 -5.5t65.5 -4.5t58.5 -1q133 0 225 18.5t148.5 61.5t82 111.5t25.5 169.5 q0 98 -26.5 165.5t-85 110.5t-151.5 62.5t-226 19.5q-47 0 -112 -4t-103 -12v-686z" />
<glyph unicode="&#xdf;" horiz-adv-x="1345" d="M156 0v1208q0 240 121.5 346.5t369.5 106.5q250 0 374 -108.5t124 -344.5v-217h-213q-123 0 -186.5 -44t-63.5 -128q0 -49 19.5 -81.5t54.5 -53t82 -33t102 -22.5q72 -14 134.5 -35t108.5 -57.5t72.5 -93t26.5 -138.5q0 -154 -108.5 -241t-305.5 -87q-74 0 -160.5 11.5 t-211.5 36.5v137q203 -49 364 -49q123 0 184.5 47t61.5 137q0 47 -16.5 80t-47 54.5t-72.5 35.5t-93 25q-63 12 -129 26t-119.5 48t-87 92.5t-33.5 156.5q0 147 108.5 232.5t301.5 85.5h45v75q0 164 -76 233.5t-238 69.5q-164 0 -238.5 -68.5t-74.5 -234.5v-1208h-180z" />
<glyph unicode="&#xe0;" horiz-adv-x="1091" d="M80 281q0 160 100.5 243.5t321.5 100.5l264 20v80q0 72 -13.5 120t-45 77.5t-85 42t-133.5 12.5q-70 0 -150.5 -8t-174.5 -27l-14 137q109 20 197.5 29.5t178.5 9.5q215 0 317.5 -88t102.5 -274v-756h-149l-19 139h-12q-100 -72 -196.5 -110.5t-194.5 -38.5 q-143 0 -219 74.5t-76 216.5zM262 295q0 -166 178 -166q74 0 159 35t167 88v278l-215 -18q-160 -14 -224.5 -62.5t-64.5 -154.5zM281 1651h194l146 -371l-136 -20z" />
<glyph unicode="&#xe1;" horiz-adv-x="1091" d="M80 281q0 160 100.5 243.5t321.5 100.5l264 20v80q0 72 -13.5 120t-45 77.5t-85 42t-133.5 12.5q-70 0 -150.5 -8t-174.5 -27l-14 137q109 20 197.5 29.5t178.5 9.5q215 0 317.5 -88t102.5 -274v-756h-149l-19 139h-12q-100 -72 -196.5 -110.5t-194.5 -38.5 q-143 0 -219 74.5t-76 216.5zM262 295q0 -166 178 -166q74 0 159 35t167 88v278l-215 -18q-160 -14 -224.5 -62.5t-64.5 -154.5zM485 1262l144 378h186l-203 -393z" />
<glyph unicode="&#xe2;" horiz-adv-x="1091" d="M80 281q0 160 100.5 243.5t321.5 100.5l264 20v80q0 72 -13.5 120t-45 77.5t-85 42t-133.5 12.5q-70 0 -150.5 -8t-174.5 -27l-14 137q109 20 197.5 29.5t178.5 9.5q215 0 317.5 -88t102.5 -274v-756h-149l-19 139h-12q-100 -72 -196.5 -110.5t-194.5 -38.5 q-143 0 -219 74.5t-76 216.5zM213 1292v144l338 151l340 -151v-144l-338 152zM262 295q0 -166 178 -166q74 0 159 35t167 88v278l-215 -18q-160 -14 -224.5 -62.5t-64.5 -154.5z" />
<glyph unicode="&#xe3;" horiz-adv-x="1091" d="M80 281q0 160 100.5 243.5t321.5 100.5l264 20v80q0 72 -13.5 120t-45 77.5t-85 42t-133.5 12.5q-70 0 -150.5 -8t-174.5 -27l-14 137q109 20 197.5 29.5t178.5 9.5q215 0 317.5 -88t102.5 -274v-756h-149l-19 139h-12q-100 -72 -196.5 -110.5t-194.5 -38.5 q-143 0 -219 74.5t-76 216.5zM135 1384q57 76 125 115t133 39q49 0 92 -13.5t84 -30.5t82 -30.5t86 -13.5q92 0 183 78l51 -55q-53 -76 -124 -116t-142 -40q-45 0 -88.5 13t-85.5 29.5t-83.5 30t-85.5 13.5q-45 0 -88 -17.5t-88 -58.5zM262 295q0 -166 178 -166q74 0 159 35 t167 88v278l-215 -18q-160 -14 -224.5 -62.5t-64.5 -154.5z" />
<glyph unicode="&#xe4;" horiz-adv-x="1091" d="M80 281q0 160 100.5 243.5t321.5 100.5l264 20v80q0 72 -13.5 120t-45 77.5t-85 42t-133.5 12.5q-70 0 -150.5 -8t-174.5 -27l-14 137q109 20 197.5 29.5t178.5 9.5q215 0 317.5 -88t102.5 -274v-756h-149l-19 139h-12q-100 -72 -196.5 -110.5t-194.5 -38.5 q-143 0 -219 74.5t-76 216.5zM201 1434q0 102 106 102q104 0 105 -102q-1 -105 -105 -105q-106 0 -106 105zM262 295q0 -166 178 -166q74 0 159 35t167 88v278l-215 -18q-160 -14 -224.5 -62.5t-64.5 -154.5zM690 1434q0 102 105 102q106 0 106 -102q0 -105 -106 -105 q-104 0 -105 105z" />
<glyph unicode="&#xe5;" horiz-adv-x="1091" d="M80 281q0 160 100.5 243.5t321.5 100.5l264 20v80q0 72 -13.5 120t-45 77.5t-85 42t-133.5 12.5q-70 0 -150.5 -8t-174.5 -27l-14 137q109 20 197.5 29.5t178.5 9.5q215 0 317.5 -88t102.5 -274v-756h-149l-19 139h-12q-100 -72 -196.5 -110.5t-194.5 -38.5 q-143 0 -219 74.5t-76 216.5zM262 295q0 -166 178 -166q74 0 159 35t167 88v278l-215 -18q-160 -14 -224.5 -62.5t-64.5 -154.5zM301 1452q0 98 69.5 160.5t180.5 62.5q106 0 176 -62.5t70 -160.5q0 -96 -70 -158.5t-176 -62.5q-111 0 -180.5 62.5t-69.5 158.5zM403 1452 q0 -61 38 -96t110 -35t107.5 35t35.5 96t-35.5 97t-107.5 36t-110 -36t-38 -97z" />
<glyph unicode="&#xe6;" horiz-adv-x="1787" d="M82 281q0 158 101.5 241.5t318.5 100.5l266 20v96q0 133 -62.5 185.5t-216.5 52.5q-72 0 -151.5 -8t-171.5 -27l-16 137q111 20 199.5 29.5t176.5 9.5q287 0 355 -196h12q55 98 150.5 149t230.5 51q207 0 313.5 -124t106.5 -363q0 -49 -2 -83t-9 -60h-735 q8 -188 94 -277.5t261 -89.5q80 0 168 14.5t176 42.5l10 -139q-84 -29 -183.5 -46t-189.5 -17q-293 0 -412 194l-12 2q-82 -51 -149.5 -87t-126 -57.5t-109.5 -31.5t-100 -10q-143 0 -218 74.5t-75 216.5zM264 295q0 -168 178 -168q72 0 155 33t177 96q-2 6 -3 47t-2 90 t-1 91v51l-217 -19q-160 -14 -223.5 -65.5t-63.5 -155.5zM948 604h582q-6 203 -66.5 291t-193.5 88q-303 0 -322 -379z" />
<glyph unicode="&#xe7;" horiz-adv-x="972" d="M96 551q0 573 527 573q63 0 132.5 -7t129.5 -21v-152q-61 14 -123 20.5t-121 6.5q-186 0 -274 -101.5t-88 -316.5q0 -219 85 -318.5t273 -99.5q68 0 124 5t124 20v-150q-45 -10 -106.5 -18t-125.5 -10q41 -68 55.5 -112t14.5 -91q0 -111 -63.5 -170.5t-180.5 -59.5 q-41 0 -89 7.5t-91 17.5v123q61 -23 141 -23q78 0 113 28t35 93q0 43 -16.5 87t-55.5 108q-420 53 -420 561z" />
<glyph unicode="&#xe8;" horiz-adv-x="1114" d="M98 539q0 285 128 435t372 150q424 0 424 -493q0 -94 -14 -144h-729q10 -193 95 -276.5t259 -83.5q78 0 166 14.5t174 42.5l10 -137q-82 -31 -181.5 -48t-191.5 -17q-254 0 -383 140t-129 417zM279 614h577q0 201 -63.5 286t-198.5 85q-295 0 -315 -371zM301 1651h195 l145 -371l-135 -20z" />
<glyph unicode="&#xe9;" horiz-adv-x="1114" d="M98 539q0 285 128 435t372 150q424 0 424 -493q0 -94 -14 -144h-729q10 -193 95 -276.5t259 -83.5q78 0 166 14.5t174 42.5l10 -137q-82 -31 -181.5 -48t-191.5 -17q-254 0 -383 140t-129 417zM279 614h577q0 201 -63.5 286t-198.5 85q-295 0 -315 -371zM530 1262 l144 378h186l-203 -393z" />
<glyph unicode="&#xea;" horiz-adv-x="1114" d="M98 539q0 285 128 435t372 150q424 0 424 -493q0 -94 -14 -144h-729q10 -193 95 -276.5t259 -83.5q78 0 166 14.5t174 42.5l10 -137q-82 -31 -181.5 -48t-191.5 -17q-254 0 -383 140t-129 417zM246 1292v144l338 151l340 -151v-144l-338 152zM279 614h577 q0 201 -63.5 286t-198.5 85q-295 0 -315 -371z" />
<glyph unicode="&#xeb;" horiz-adv-x="1114" d="M98 539q0 285 128 435t372 150q424 0 424 -493q0 -94 -14 -144h-729q10 -193 95 -276.5t259 -83.5q78 0 166 14.5t174 42.5l10 -137q-82 -31 -181.5 -48t-191.5 -17q-254 0 -383 140t-129 417zM229 1434q0 102 107 102q104 0 104 -102q0 -105 -104 -105q-106 0 -107 105z M279 614h577q0 201 -63.5 286t-198.5 85q-295 0 -315 -371zM719 1434q0 102 104 102q106 0 107 -102q-1 -105 -107 -105q-104 0 -104 105z" />
<glyph unicode="&#xec;" horiz-adv-x="493" d="M-31 1651h195l145 -371l-135 -20zM158 0v1106h178v-1106h-178z" />
<glyph unicode="&#xed;" horiz-adv-x="493" d="M158 0v1106h178v-1106h-178zM188 1262l144 378h186l-203 -393z" />
<glyph unicode="&#xee;" horiz-adv-x="493" d="M-78 1292v144l328 151l332 -151v-144l-330 152zM158 0v1106h178v-1106h-178z" />
<glyph unicode="&#xef;" horiz-adv-x="493" d="M-90 1434q0 102 106 102q104 0 105 -102q-1 -105 -105 -105q-106 0 -106 105zM158 0v1106h178v-1106h-178zM379 1434q0 102 104 102q106 0 107 -102q-1 -105 -107 -105q-104 0 -104 105z" />
<glyph unicode="&#xf0;" d="M96 551q0 279 130 427t370 148q117 0 194.5 -43t131.5 -137q-41 199 -125 367l-355 -39v127l287 31q-35 59 -78 114.5t-90 108.5h191q35 -45 69.5 -95.5t69.5 -109.5l301 33v-125l-238 -27q72 -147 119 -328.5t47 -394.5q0 -307 -132 -467.5t-382 -160.5q-248 0 -379 147 t-131 424zM279 553q0 -221 78.5 -323.5t250.5 -102.5q170 0 250 110.5t80 346.5q0 82 -19.5 153.5t-60.5 124.5t-103.5 85t-148.5 32q-170 0 -248.5 -102.5t-78.5 -323.5z" />
<glyph unicode="&#xf1;" d="M156 0v1106h149l12 -129h11q82 39 148.5 67.5t122.5 47t105.5 26.5t96.5 8q141 0 216 -74.5t75 -228.5v-823h-181v764q0 115 -43 163t-135 48q-78 0 -181 -33t-216 -88v-854h-180zM215 1384q57 76 125 115t133 39q49 0 92 -13.5t84 -30.5t82 -30.5t86 -13.5q92 0 182 78 l52 -55q-53 -76 -124 -116t-143 -40q-45 0 -88 13t-85 29.5t-84 30t-85 13.5q-45 0 -88 -17.5t-88 -58.5z" />
<glyph unicode="&#xf2;" horiz-adv-x="1216" d="M96 553q0 281 131 427t381 146t381 -146t131 -427t-131 -427t-381 -146t-381 147t-131 426zM279 553q0 -223 79.5 -324.5t249.5 -101.5q172 0 251 101.5t79 324.5t-79 324.5t-251 101.5q-170 0 -249.5 -101.5t-79.5 -324.5zM319 1651h195l145 -371l-135 -20z" />
<glyph unicode="&#xf3;" horiz-adv-x="1216" d="M96 553q0 281 131 427t381 146t381 -146t131 -427t-131 -427t-381 -146t-381 147t-131 426zM279 553q0 -223 79.5 -324.5t249.5 -101.5q172 0 251 101.5t79 324.5t-79 324.5t-251 101.5q-170 0 -249.5 -101.5t-79.5 -324.5zM537 1262l143 378h186l-202 -393z" />
<glyph unicode="&#xf4;" horiz-adv-x="1216" d="M96 553q0 281 131 427t381 146t381 -146t131 -427t-131 -427t-381 -146t-381 147t-131 426zM264 1292v144l338 151l340 -151v-144l-338 152zM279 553q0 -223 79.5 -324.5t249.5 -101.5q172 0 251 101.5t79 324.5t-79 324.5t-251 101.5q-170 0 -249.5 -101.5t-79.5 -324.5 z" />
<glyph unicode="&#xf5;" horiz-adv-x="1216" d="M96 553q0 281 131 427t381 146t381 -146t131 -427t-131 -427t-381 -146t-381 147t-131 426zM188 1384q57 76 125 115t133 39q49 0 92.5 -13.5t84.5 -30.5t81.5 -30.5t86.5 -13.5q92 0 182 78l51 -55q-53 -76 -124 -116t-142 -40q-45 0 -88 13t-85 29.5t-84 30t-85 13.5 q-45 0 -88 -17.5t-88 -58.5zM279 553q0 -223 79.5 -324.5t249.5 -101.5q172 0 251 101.5t79 324.5t-79 324.5t-251 101.5q-170 0 -249.5 -101.5t-79.5 -324.5z" />
<glyph unicode="&#xf6;" horiz-adv-x="1216" d="M96 553q0 281 131 427t381 146t381 -146t131 -427t-131 -427t-381 -146t-381 147t-131 426zM252 1434q0 102 106 102q104 0 105 -102q-1 -105 -105 -105q-106 0 -106 105zM279 553q0 -223 79.5 -324.5t249.5 -101.5q172 0 251 101.5t79 324.5t-79 324.5t-251 101.5 q-170 0 -249.5 -101.5t-79.5 -324.5zM741 1434q0 102 105 102q106 0 106 -102q0 -105 -106 -105q-104 0 -105 105z" />
<glyph unicode="&#xf7;" horiz-adv-x="1069" d="M129 694v127h811v-127h-811zM444 424q0 47 27 71.5t70 24.5t68.5 -24.5t25.5 -71.5t-25.5 -70.5t-68.5 -23.5t-70 23.5t-27 70.5zM444 1077q0 47 27 73t70 26t68.5 -26t25.5 -73q0 -45 -25.5 -69.5t-68.5 -24.5t-70 24.5t-27 69.5z" />
<glyph unicode="&#xf8;" horiz-adv-x="1228" d="M51 0l148 170q-96 143 -97 383q0 274 128 423.5t384 149.5q205 0 334 -104l74 84h154l-150 -170q100 -143 100 -383q0 -276 -129 -424.5t-383 -148.5q-213 0 -335 104l-74 -84h-154zM285 553q0 -156 34 -246l523 596q-80 76 -228 76q-178 0 -253.5 -104.5t-75.5 -321.5z M383 205q77 -78 231 -78q178 0 254 104.5t76 321.5q0 152 -37 248z" />
<glyph unicode="&#xf9;" d="M147 283v823h181v-766q0 -111 39 -159t131 -48q98 0 202.5 42t202.5 91v840h180v-1106h-149l-12 135h-9q-84 -41 -147.5 -70.5t-117.5 -48t-106.5 -27.5t-113.5 -9q-281 0 -281 303zM330 1651h194l146 -371l-135 -20z" />
<glyph unicode="&#xfa;" d="M147 283v823h181v-766q0 -111 39 -159t131 -48q98 0 202.5 42t202.5 91v840h180v-1106h-149l-12 135h-9q-84 -41 -147.5 -70.5t-117.5 -48t-106.5 -27.5t-113.5 -9q-281 0 -281 303zM545 1262l143 378h186l-202 -393z" />
<glyph unicode="&#xfb;" d="M147 283v823h181v-766q0 -111 39 -159t131 -48q98 0 202.5 42t202.5 91v840h180v-1106h-149l-12 135h-9q-84 -41 -147.5 -70.5t-117.5 -48t-106.5 -27.5t-113.5 -9q-281 0 -281 303zM274 1292v144l338 151l340 -151v-144l-338 152z" />
<glyph unicode="&#xfc;" d="M147 283v823h181v-766q0 -111 39 -159t131 -48q98 0 202.5 42t202.5 91v840h180v-1106h-149l-12 135h-9q-84 -41 -147.5 -70.5t-117.5 -48t-106.5 -27.5t-113.5 -9q-281 0 -281 303zM260 1434q0 102 107 102q104 0 104 -102q0 -105 -104 -105q-106 0 -107 105zM750 1434 q0 102 104 102q106 0 107 -102q-1 -105 -107 -105q-104 0 -104 105z" />
<glyph unicode="&#xfd;" horiz-adv-x="1157" d="M33 1085v21h192l297 -754l49 -155h13l49 155l309 754h186v-21l-647 -1536l-164 31l-2 19l170 411zM520 1262l144 378h186l-203 -393z" />
<glyph unicode="&#xfe;" horiz-adv-x="1234" d="M156 -451v2106h178v-670q57 63 145 102t211 39q223 0 336 -136t113 -427q0 -293 -142.5 -438t-416.5 -145q-59 0 -126 7t-120 13v-451h-178zM334 139q57 -10 124 -18t122 -8q94 0 165.5 21.5t117.5 72.5t69.5 135t23.5 207t-19 207t-58 135t-98.5 73.5t-139.5 22.5 q-139 0 -223 -80t-84 -231v-537z" />
<glyph unicode="&#xff;" horiz-adv-x="1157" d="M33 1085v21h192l297 -754l49 -155h13l49 155l309 754h186v-21l-647 -1536l-164 31l-2 19l170 411zM229 1434q0 102 107 102q104 0 104 -102q0 -105 -104 -105q-106 0 -107 105zM719 1434q0 102 104 102q106 0 107 -102q-1 -105 -107 -105q-104 0 -104 105z" />
<glyph unicode="&#x100;" horiz-adv-x="1394" d="M14 0v14l545 1502h277l544 -1502v-14h-180l-166 451h-678l-161 -451h-181zM367 1724v134h659v-134h-659zM408 604h577l-186 512l-94 264h-17l-94 -264z" />
<glyph unicode="&#x101;" horiz-adv-x="1091" d="M80 281q0 160 100.5 243.5t321.5 100.5l264 20v80q0 72 -13.5 120t-45 77.5t-85 42t-133.5 12.5q-70 0 -150.5 -8t-174.5 -27l-14 137q109 20 197.5 29.5t178.5 9.5q215 0 317.5 -88t102.5 -274v-756h-149l-19 139h-12q-100 -72 -196.5 -110.5t-194.5 -38.5 q-143 0 -219 74.5t-76 216.5zM227 1327v133h668v-133h-668zM262 295q0 -166 178 -166q74 0 159 35t167 88v278l-215 -18q-160 -14 -224.5 -62.5t-64.5 -154.5z" />
<glyph unicode="&#x102;" horiz-adv-x="1394" d="M14 0v14l545 1502h277l544 -1502v-14h-180l-166 451h-678l-161 -451h-181zM328 1970h135q0 -92 59.5 -144t175.5 -52q119 0 178.5 52t59.5 144h135q0 -139 -93.5 -222t-279.5 -83t-278 84t-92 221zM408 604h577l-186 512l-94 264h-17l-94 -264z" />
<glyph unicode="&#x103;" horiz-adv-x="1091" d="M80 281q0 160 100.5 243.5t321.5 100.5l264 20v80q0 72 -13.5 120t-45 77.5t-85 42t-133.5 12.5q-70 0 -150.5 -8t-174.5 -27l-14 137q109 20 197.5 29.5t178.5 9.5q215 0 317.5 -88t102.5 -274v-756h-149l-19 139h-12q-100 -72 -196.5 -110.5t-194.5 -38.5 q-143 0 -219 74.5t-76 216.5zM176 1579h135q0 -111 60.5 -159t179.5 -48q117 0 177 48t60 159h134q0 -145 -88 -229t-283 -84q-197 0 -285 84t-90 229zM262 295q0 -166 178 -166q74 0 159 35t167 88v278l-215 -18q-160 -14 -224.5 -62.5t-64.5 -154.5z" />
<glyph unicode="&#x104;" horiz-adv-x="1392" d="M14 0v14l545 1502h277l544 -1502v-49q-125 -59 -182 -116.5t-57 -116.5q0 -70 94 -70q29 0 68.5 6t74.5 17v-111q-61 -25 -149 -25q-217 0 -217 172q0 78 51 142.5t168 136.5h-31l-166 451h-678l-161 -451h-181zM408 604h577l-186 512l-94 264h-17l-94 -264z" />
<glyph unicode="&#x105;" horiz-adv-x="1091" d="M80 281q0 160 100.5 243.5t321.5 100.5l264 20v80q0 72 -13.5 120t-45 77.5t-85 42t-133.5 12.5q-70 0 -150.5 -8t-174.5 -27l-14 137q109 20 197.5 29.5t178.5 9.5q215 0 317.5 -88t102.5 -274v-791q-125 -59 -182 -116.5t-57 -116.5q0 -70 94 -70q29 0 68.5 6t74.5 17 v-111q-61 -25 -149 -25q-217 0 -217 172q0 78 51 142.5t168 136.5l-19 139h-12q-100 -72 -196.5 -110.5t-194.5 -38.5q-143 0 -219 74.5t-76 216.5zM262 295q0 -166 178 -166q74 0 159 35t167 88v278l-215 -18q-160 -14 -224.5 -62.5t-64.5 -154.5z" />
<glyph unicode="&#x106;" horiz-adv-x="1206" d="M104 754q0 397 170 589.5t514 192.5q70 0 159 -9t179 -26v-155q-98 16 -177 24t-140 8q-268 0 -393 -148.5t-125 -473.5q0 -319 122 -469t382 -150q33 0 76.5 3t90 8.5t90.5 12.5t74 15v-153q-72 -16 -165.5 -28.5t-169.5 -12.5q-686 0 -687 772zM627 1653l151 286h189 l-201 -301z" />
<glyph unicode="&#x107;" horiz-adv-x="972" d="M96 551q0 573 527 573q63 0 132.5 -7t129.5 -21v-152q-61 14 -123 20.5t-121 6.5q-186 0 -274 -101.5t-88 -316.5q0 -219 85 -318.5t273 -99.5q68 0 124 5t124 20v-150q-49 -12 -120.5 -20t-141.5 -8q-526 0 -527 569zM502 1262l143 378h186l-202 -393z" />
<glyph unicode="&#x108;" horiz-adv-x="1206" d="M104 754q0 397 170 589.5t514 192.5q70 0 159 -9t179 -26v-155q-98 16 -177 24t-140 8q-268 0 -393 -148.5t-125 -473.5q0 -319 122 -469t382 -150q33 0 76.5 3t90 8.5t90.5 12.5t74 15v-153q-72 -16 -165.5 -28.5t-169.5 -12.5q-686 0 -687 772zM371 1663v143l338 154 l340 -154v-143l-340 152z" />
<glyph unicode="&#x109;" horiz-adv-x="972" d="M96 551q0 573 527 573q63 0 132.5 -7t129.5 -21v-152q-61 14 -123 20.5t-121 6.5q-186 0 -274 -101.5t-88 -316.5q0 -219 85 -318.5t273 -99.5q68 0 124 5t124 20v-150q-49 -12 -120.5 -20t-141.5 -8q-526 0 -527 569zM221 1292v144l338 151l340 -151v-144l-338 152z" />
<glyph unicode="&#x10a;" horiz-adv-x="1206" d="M104 754q0 397 170 589.5t514 192.5q70 0 159 -9t179 -26v-155q-98 16 -177 24t-140 8q-268 0 -393 -148.5t-125 -473.5q0 -319 122 -469t382 -150q33 0 76.5 3t90 8.5t90.5 12.5t74 15v-153q-72 -16 -165.5 -28.5t-169.5 -12.5q-686 0 -687 772zM606 1780q0 115 115 114 q117 0 117 -114q0 -59 -30 -86t-87 -27t-86 26.5t-29 86.5z" />
<glyph unicode="&#x10b;" horiz-adv-x="972" d="M96 551q0 573 527 573q63 0 132.5 -7t129.5 -21v-152q-61 14 -123 20.5t-121 6.5q-186 0 -274 -101.5t-88 -316.5q0 -219 85 -318.5t273 -99.5q68 0 124 5t124 20v-150q-49 -12 -120.5 -20t-141.5 -8q-526 0 -527 569zM440 1434q0 113 117 112q117 0 117 -112 q0 -115 -117 -115t-117 115z" />
<glyph unicode="&#x10c;" horiz-adv-x="1206" d="M104 754q0 397 170 589.5t514 192.5q70 0 159 -9t179 -26v-155q-98 16 -177 24t-140 8q-268 0 -393 -148.5t-125 -473.5q0 -319 122 -469t382 -150q33 0 76.5 3t90 8.5t90.5 12.5t74 15v-153q-72 -16 -165.5 -28.5t-169.5 -12.5q-686 0 -687 772zM375 1806v146l338 -152 l338 152v-146l-340 -151z" />
<glyph unicode="&#x10d;" horiz-adv-x="972" d="M96 551q0 573 527 573q63 0 132.5 -7t129.5 -21v-152q-61 14 -123 20.5t-121 6.5q-186 0 -274 -101.5t-88 -316.5q0 -219 85 -318.5t273 -99.5q68 0 124 5t124 20v-150q-49 -12 -120.5 -20t-141.5 -8q-526 0 -527 569zM217 1427v144l340 -152l340 152v-144l-340 -153z " />
<glyph unicode="&#x10e;" horiz-adv-x="1492" d="M182 6v1505q53 4 111.5 8.5t115 7.5t107.5 5t92 2q403 0 592 -187.5t189 -588.5q0 -203 -48.5 -350.5t-148.5 -242.5t-256 -141.5t-371 -46.5q-119 0 -222 7.5t-161 21.5zM358 1806v146l338 -152l338 152v-146l-340 -151zM365 150q74 -10 131 -14.5t125 -4.5 q152 0 261 36t180 112.5t104.5 195.5t33.5 283t-32.5 281.5t-103.5 192.5t-179.5 110.5t-257.5 35.5q-53 0 -127 -4t-135 -10v-1214z" />
<glyph unicode="&#x10f;" horiz-adv-x="1236" d="M96 545q0 147 39 255.5t110.5 181.5t173 108.5t224.5 35.5q72 0 137.5 -7t122.5 -13v549h178v-1655h-155l-17 135h-12q-115 -155 -342 -155q-225 0 -342 137t-117 428zM281 553q0 -231 75.5 -330.5t239.5 -99.5q61 0 116.5 17.5t98.5 49t67.5 77.5t24.5 106v592 q-55 10 -121.5 16t-140.5 6q-180 0 -270 -100.5t-90 -333.5zM1225 1188v467h149l-59 -467h-90z" />
<glyph unicode="&#x110;" horiz-adv-x="1515" d="M8 684v147h199v680q53 4 111.5 8.5t114.5 7.5t107.5 5t92.5 2q403 0 591.5 -187.5t188.5 -588.5q0 -203 -48 -350.5t-148.5 -242.5t-256 -141.5t-370.5 -46.5q-119 0 -222.5 7.5t-160.5 21.5v678h-199zM389 150q74 -10 131 -14.5t125 -4.5q152 0 261.5 36t180 112.5 t104.5 195.5t34 283t-33 281.5t-103.5 192.5t-179 110.5t-258.5 35.5q-53 0 -126.5 -4t-135.5 -10v-533h369v-147h-369v-534z" />
<glyph unicode="&#x111;" horiz-adv-x="1236" d="M96 545q0 147 39 255.5t110.5 181.5t173 108.5t224.5 35.5q72 0 137.5 -7t122.5 -13v215h-385v117h385v217h178v-217h162v-117h-162v-1321h-155l-17 135h-12q-115 -156 -342 -155q-225 0 -342 137t-117 428zM281 553q0 -231 75.5 -330.5t239.5 -99.5q61 0 116.5 17.5 t98.5 49t67.5 77.5t24.5 106v592q-55 10 -121.5 16t-140.5 6q-180 0 -270 -100.5t-90 -333.5z" />
<glyph unicode="&#x112;" horiz-adv-x="1261" d="M182 0v1516h963v-152h-780v-520h727v-152h-727v-540h798v-152h-981zM336 1724v134h659v-134h-659z" />
<glyph unicode="&#x113;" horiz-adv-x="1114" d="M98 539q0 285 128 435t372 150q424 0 424 -493q0 -94 -14 -144h-729q10 -193 95 -276.5t259 -83.5q78 0 166 14.5t174 42.5l10 -137q-82 -31 -181.5 -48t-191.5 -17q-254 0 -383 140t-129 417zM250 1327v133h668v-133h-668zM279 614h577q0 201 -63.5 286t-198.5 85 q-295 0 -315 -371z" />
<glyph unicode="&#x114;" horiz-adv-x="1261" d="M182 0v1516h963v-152h-780v-520h727v-152h-727v-540h798v-152h-981zM289 1970h135q0 -92 59.5 -144t175.5 -52q119 0 178.5 52t59.5 144h135q0 -139 -93.5 -222t-279.5 -83t-278 84t-92 221z" />
<glyph unicode="&#x115;" horiz-adv-x="1114" d="M98 539q0 285 128 435t372 150q424 0 424 -493q0 -94 -14 -144h-729q10 -193 95 -276.5t259 -83.5q78 0 166 14.5t174 42.5l10 -137q-82 -31 -181.5 -48t-191.5 -17q-254 0 -383 140t-129 417zM205 1579h135q0 -111 60.5 -159t179.5 -48q117 0 177 48t60 159h133 q0 -145 -87.5 -229t-282.5 -84q-197 0 -285 84t-90 229zM279 614h577q0 201 -63.5 286t-198.5 85q-295 0 -315 -371z" />
<glyph unicode="&#x116;" horiz-adv-x="1261" d="M182 0v1516h963v-152h-780v-520h727v-152h-727v-540h798v-152h-981zM547 1780q0 115 115 114q117 0 116 -114q0 -59 -29.5 -86t-86.5 -27t-86 26.5t-29 86.5z" />
<glyph unicode="&#x117;" horiz-adv-x="1114" d="M98 539q0 285 128 435t372 150q424 0 424 -493q0 -94 -14 -144h-729q10 -193 95 -276.5t259 -83.5q78 0 166 14.5t174 42.5l10 -137q-82 -31 -181.5 -48t-191.5 -17q-254 0 -383 140t-129 417zM279 614h577q0 201 -63.5 286t-198.5 85q-295 0 -315 -371zM465 1434 q0 113 117 112q117 0 116 -112q1 -115 -116 -115t-117 115z" />
<glyph unicode="&#x118;" horiz-adv-x="1261" d="M182 0v1516h963v-152h-780v-520h727v-152h-727v-540h798v-187q-125 -59 -182 -116.5t-57 -116.5q0 -70 94 -70q29 0 68.5 6t74.5 17v-111q-61 -25 -149 -25q-217 0 -217 172q0 78 51 142.5t168 136.5h-832z" />
<glyph unicode="&#x119;" horiz-adv-x="1116" d="M98 539q0 285 128 435t372 150q424 0 424 -493q0 -94 -14 -144h-729q10 -193 95 -276.5t259 -83.5q78 0 166 14.5t174 42.5l10 -137v-35q-125 -59 -182.5 -116.5t-57.5 -116.5q0 -70 95 -70q29 0 68.5 6t74.5 17v-111q-61 -25 -150 -24q-217 0 -217 172q0 61 32 114.5 t104 108.5q-35 -4 -70 -7t-70 -3q-254 0 -383 140t-129 417zM279 614h577q0 201 -63.5 286t-198.5 85q-295 0 -315 -371z" />
<glyph unicode="&#x11a;" horiz-adv-x="1261" d="M182 0v1516h963v-152h-780v-520h727v-152h-727v-540h798v-152h-981zM332 1806v146l338 -152l338 152v-146l-340 -151z" />
<glyph unicode="&#x11b;" horiz-adv-x="1114" d="M98 539q0 285 128 435t372 150q424 0 424 -493q0 -94 -14 -144h-729q10 -193 95 -276.5t259 -83.5q78 0 166 14.5t174 42.5l10 -137q-82 -31 -181.5 -48t-191.5 -17q-254 0 -383 140t-129 417zM244 1427v144l340 -152l340 152v-144l-340 -153zM279 614h577 q0 201 -63.5 286t-198.5 85q-295 0 -315 -371z" />
<glyph unicode="&#x11c;" horiz-adv-x="1355" d="M104 754q0 782 723 782q90 0 188.5 -12.5t196.5 -36.5v-156q-123 29 -206.5 38t-163.5 9q-287 0 -419 -150.5t-132 -471.5q0 -317 125 -468t393 -151q47 0 113.5 7.5t130.5 17.5v608h172v-725q-51 -14 -106.5 -26.5t-111 -20.5t-106.5 -12t-94 -4q-702 0 -703 772z M401 1663v143l338 154l340 -154v-143l-340 152z" />
<glyph unicode="&#x11d;" horiz-adv-x="1236" d="M96 551q0 145 39 252.5t110.5 179.5t173 107.5t224.5 35.5q98 0 208 -12t232 -47v-958q0 -164 -43 -270.5t-115.5 -171t-170.5 -90.5t-209 -26q-98 0 -194.5 12.5t-174.5 35.5l12 141q76 -20 162 -33.5t172 -13.5t158 19.5t123 65.5t79.5 121.5t28.5 188.5v72h-10 q-117 -160 -346 -160q-223 0 -341 133t-118 418zM281 561q0 -225 75.5 -322.5t239.5 -97.5q61 0 117.5 17.5t98.5 49.5t66.5 78t24.5 105v574q-55 10 -121.5 16t-140.5 6q-180 0 -270 -98t-90 -328zM305 1292v144l338 151l340 -151v-144l-338 152z" />
<glyph unicode="&#x11e;" horiz-adv-x="1355" d="M104 754q0 782 723 782q90 0 188.5 -12.5t196.5 -36.5v-156q-123 29 -206.5 38t-163.5 9q-287 0 -419 -150.5t-132 -471.5q0 -317 125 -468t393 -151q47 0 113.5 7.5t130.5 17.5v608h172v-725q-51 -14 -106.5 -26.5t-111 -20.5t-106.5 -12t-94 -4q-702 0 -703 772z M375 1970h135q0 -92 59.5 -144t175.5 -52q119 0 178.5 52t59.5 144h135q0 -139 -93.5 -222t-279.5 -83t-278 84t-92 221z" />
<glyph unicode="&#x11f;" horiz-adv-x="1236" d="M96 551q0 145 39 252.5t110.5 179.5t173 107.5t224.5 35.5q98 0 208 -12t232 -47v-958q0 -164 -43 -270.5t-115.5 -171t-170.5 -90.5t-209 -26q-98 0 -194.5 12.5t-174.5 35.5l12 141q76 -20 162 -33.5t172 -13.5t158 19.5t123 65.5t79.5 121.5t28.5 188.5v72h-10 q-117 -160 -346 -160q-223 0 -341 133t-118 418zM262 1579h135q0 -111 60.5 -159t179.5 -48q117 0 177 48t60 159h134q0 -145 -88 -229t-283 -84q-197 0 -285 84t-90 229zM281 561q0 -225 75.5 -322.5t239.5 -97.5q61 0 117.5 17.5t98.5 49.5t66.5 78t24.5 105v574 q-55 10 -121.5 16t-140.5 6q-180 0 -270 -98t-90 -328z" />
<glyph unicode="&#x120;" horiz-adv-x="1355" d="M104 754q0 782 723 782q90 0 188.5 -12.5t196.5 -36.5v-156q-123 29 -206.5 38t-163.5 9q-287 0 -419 -150.5t-132 -471.5q0 -317 125 -468t393 -151q47 0 113.5 7.5t130.5 17.5v608h172v-725q-51 -14 -106.5 -26.5t-111 -20.5t-106.5 -12t-94 -4q-702 0 -703 772z M635 1780q0 115 115 114q117 0 116 -114q0 -59 -29.5 -86t-86.5 -27t-86 26.5t-29 86.5z" />
<glyph unicode="&#x121;" horiz-adv-x="1236" d="M96 551q0 145 39 252.5t110.5 179.5t173 107.5t224.5 35.5q98 0 208 -12t232 -47v-958q0 -164 -43 -270.5t-115.5 -171t-170.5 -90.5t-209 -26q-98 0 -194.5 12.5t-174.5 35.5l12 141q76 -20 162 -33.5t172 -13.5t158 19.5t123 65.5t79.5 121.5t28.5 188.5v72h-10 q-117 -160 -346 -160q-223 0 -341 133t-118 418zM281 561q0 -225 75.5 -322.5t239.5 -97.5q61 0 117.5 17.5t98.5 49.5t66.5 78t24.5 105v574q-55 10 -121.5 16t-140.5 6q-180 0 -270 -98t-90 -328zM520 1434q0 113 117 112q117 0 117 -112q0 -115 -117 -115t-117 115z" />
<glyph unicode="&#x122;" horiz-adv-x="1355" d="M104 754q0 782 723 782q90 0 188.5 -12.5t196.5 -36.5v-156q-123 29 -206.5 38t-163.5 9q-287 0 -419 -150.5t-132 -471.5q0 -317 125 -468t393 -151q47 0 113.5 7.5t130.5 17.5v608h172v-725q-51 -14 -106.5 -26.5t-111 -20.5t-106.5 -12t-94 -4q-702 0 -703 772z M569 -451l99 310h188l-139 -310h-148z" />
<glyph unicode="&#x123;" horiz-adv-x="1236" d="M96 551q0 145 39 252.5t110.5 179.5t173 107.5t224.5 35.5q98 0 208 -12t232 -47v-958q0 -164 -43 -270.5t-115.5 -171t-170.5 -90.5t-209 -26q-98 0 -194.5 12.5t-174.5 35.5l12 141q76 -20 162 -33.5t172 -13.5t158 19.5t123 65.5t79.5 121.5t28.5 188.5v72h-10 q-117 -160 -346 -160q-223 0 -341 133t-118 418zM281 561q0 -225 75.5 -322.5t239.5 -97.5q61 0 117.5 17.5t98.5 49.5t66.5 78t24.5 105v574q-55 10 -121.5 16t-140.5 6q-180 0 -270 -98t-90 -328zM604 1319l137 307h146l-96 -307h-187z" />
<glyph unicode="&#x124;" horiz-adv-x="1570" d="M182 0v1516h183v-664h841v664h183v-1516h-183v700h-841v-700h-183zM434 1663v143l338 154l340 -154v-143l-340 152z" />
<glyph unicode="&#x125;" d="M156 0v1655h178v-676q158 76 265.5 111.5t201.5 35.5q141 0 216 -74.5t75 -228.5v-823h-181v764q0 115 -43 163t-135 48q-78 0 -180 -33t-219 -88v-854h-178zM311 1706v143l338 152l340 -152v-143l-338 152z" />
<glyph unicode="&#x126;" horiz-adv-x="1603" d="M14 1116v107h185v293h182v-293h842v293h182v-293h186v-107h-186v-1116h-182v700h-842v-700h-182v1116h-185zM381 852h842v264h-842v-264z" />
<glyph unicode="&#x127;" d="M-41 1321v117h197v217h178v-217h350v-117h-350v-342q158 76 265.5 111.5t201.5 35.5q141 0 216 -74.5t75 -228.5v-823h-181v764q0 115 -43 163t-135 48q-78 0 -180 -33t-219 -88v-854h-178v1321h-197z" />
<glyph unicode="&#x128;" horiz-adv-x="546" d="M-125 1763q57 76 125 115t133 39q49 0 92 -13.5t84 -28.5t82 -28.5t88 -13.5q92 0 183 78l49 -56q-53 -74 -124 -114.5t-143 -40.5q-45 0 -88 13t-85 28.5t-83 29t-84 13.5q-47 0 -90 -17.5t-90 -58.5zM182 0v1516h183v-1516h-183z" />
<glyph unicode="&#x129;" horiz-adv-x="493" d="M-156 1384q53 76 119 115t131 39q47 0 89 -13.5t82 -30.5t80 -30.5t85 -13.5q90 0 176 78l51 -55q-53 -76 -121.5 -116t-136.5 -40q-43 0 -85 13t-84 29.5t-81.5 30t-80.5 13.5q-45 0 -88 -17.5t-86 -58.5zM158 0v1106h178v-1106h-178z" />
<glyph unicode="&#x12a;" horiz-adv-x="546" d="M-53 1724v134h659v-134h-659zM182 0v1516h183v-1516h-183z" />
<glyph unicode="&#x12b;" horiz-adv-x="493" d="M-76 1327v133h668v-133h-668zM158 0v1106h178v-1106h-178z" />
<glyph unicode="&#x12c;" horiz-adv-x="546" d="M-98 1970h135q0 -92 59.5 -144t175.5 -52q119 0 178.5 52t59.5 144h135q0 -139 -93.5 -222t-279.5 -83t-278 84t-92 221zM182 0v1516h183v-1516h-183z" />
<glyph unicode="&#x12d;" horiz-adv-x="493" d="M-92 1579h119q0 -111 56 -159t167 -48t168 48t57 159h117q-2 -145 -83 -229t-259 -84q-176 0 -258 84t-84 229zM158 0v1106h178v-1106h-178z" />
<glyph unicode="&#x12e;" horiz-adv-x="546" d="M-4 -279q0 78 51 142.5t168 136.5h-33v1516h183v-1551q-125 -59 -182.5 -116.5t-57.5 -116.5q0 -70 94 -70q29 0 69 6t74 17v-111q-61 -25 -149 -25q-217 0 -217 172z" />
<glyph unicode="&#x12f;" horiz-adv-x="493" d="M-33 -279q0 78 51.5 142.5t167.5 136.5h-28v1106h178v-1141q-125 -59 -182.5 -116.5t-57.5 -116.5q0 -70 94 -70q29 0 69 6t75 17v-111q-61 -25 -150 -25q-217 0 -217 172zM135 1444q0 111 111 110q115 0 114 -110q1 -109 -114 -109q-111 0 -111 109z" />
<glyph unicode="&#x130;" horiz-adv-x="546" d="M160 1780q0 115 114 114q117 0 117 -114q0 -59 -30 -86t-87 -27t-85.5 26.5t-28.5 86.5zM182 0v1516h183v-1516h-183z" />
<glyph unicode="&#x131;" horiz-adv-x="493" d="M158 0v1106h178v-1106h-178z" />
<glyph unicode="&#x132;" horiz-adv-x="1091" d="M182 0v1516h183v-1516h-183zM571 -328q45 100 77 184.5t50.5 166t26.5 167.5t8 191v1135h182v-1145q0 -102 -11 -191.5t-36.5 -177.5t-67.5 -182t-104 -207z" />
<glyph unicode="&#x133;" horiz-adv-x="980" d="M135 1444q0 111 111 110q115 0 114 -110q1 -109 -114 -109q-111 0 -111 109zM158 0v1106h178v-1106h-178zM512 -408q37 74 62.5 148t43 153.5t25.5 170t8 198.5v67.5v145.5v186.5v191.5t-1 160.5t-1 92.5h178v-930q-4 -170 -51 -328.5t-133 -298.5zM623 1444 q0 57 25.5 83.5t84.5 26.5q113 0 113 -110q0 -109 -113 -109q-59 0 -84.5 27t-25.5 82z" />
<glyph unicode="&#x134;" horiz-adv-x="544" d="M-57 1663v143l338 154l340 -154v-143l-340 152zM25 -328q45 100 76.5 184.5t50 166t26.5 167.5t8 191v1135h183v-1145q0 -102 -11.5 -191.5t-37 -177.5t-67.5 -182t-103 -207z" />
<glyph unicode="&#x135;" horiz-adv-x="487" d="M-86 1298v144l328 151l329 -151v-144l-329 152zM18 -410q37 76 62.5 151t43 155.5t26 172t8.5 203.5v67.5v139.5v179.5v186.5t-1 159.5t-1 101.5h178v-930q-6 -172 -52 -328.5t-132 -298.5z" />
<glyph unicode="&#x136;" horiz-adv-x="1368" d="M182 0v1516h183v-668h288l461 668h207l-471 -676l-70 -54v-12l74 -51l504 -723h-207l-479 694h-307v-694h-183zM516 -451l98 310h189l-139 -310h-148z" />
<glyph unicode="&#x137;" horiz-adv-x="1130" d="M156 0v1655h178v-1024h190l371 475h203l-412 -518l-37 -17v-8l39 -18l442 -545h-202l-408 506h-186v-506h-178zM436 -451l99 310h188l-139 -310h-148z" />
<glyph unicode="&#x138;" horiz-adv-x="1138" d="M156 0v1106h180v-475h254l305 475h201l-348 -518l-37 -17v-8l39 -18l380 -545h-200l-344 506h-250v-506h-180z" />
<glyph unicode="&#x139;" horiz-adv-x="1083" d="M182 0v1516h183v-1364h692v-152h-875zM205 1653l151 286h189l-201 -301z" />
<glyph unicode="&#x13a;" horiz-adv-x="497" d="M160 0v1655h180v-1655h-180zM186 1729l144 378h186l-203 -393z" />
<glyph unicode="&#x13b;" horiz-adv-x="1083" d="M182 0v1516h183v-1364h692v-152h-875zM432 -451l98 310h189l-139 -310h-148z" />
<glyph unicode="&#x13c;" horiz-adv-x="497" d="M78 -451l98 310h189l-140 -310h-147zM160 0v1655h180v-1655h-180z" />
<glyph unicode="&#x13d;" horiz-adv-x="1095" d="M182 0v1516h183v-1364h692v-152h-875zM809 1087v467h149l-59 -467h-90z" />
<glyph unicode="&#x13e;" horiz-adv-x="499" d="M160 0v1655h180v-1655h-180zM481 1188v467h150l-60 -467h-90z" />
<glyph unicode="&#x13f;" horiz-adv-x="1099" d="M182 0v1516h183v-1364h692v-152h-875zM768 772q0 115 117 115t116 -115q1 -113 -116 -113q-57 0 -87 27t-30 86z" />
<glyph unicode="&#x140;" horiz-adv-x="647" d="M160 0v1655h180v-1655h-180zM455 758q0 115 116 114q117 0 117 -114q0 -113 -117 -113q-57 0 -86.5 26.5t-29.5 86.5z" />
<glyph unicode="&#x141;" horiz-adv-x="1126" d="M31 459v153l194 119v785h183v-672l325 203v-152l-325 -203v-540h692v-152h-875v580z" />
<glyph unicode="&#x142;" horiz-adv-x="659" d="M49 526v148l193 117v864h180v-756l203 123v-145l-203 -125v-752h-180v643z" />
<glyph unicode="&#x143;" horiz-adv-x="1597" d="M182 0v1516h158l778 -1057l119 -180h14v1237h166v-1516h-160l-780 1057l-117 178l-12 -2v-1233h-166zM702 1653l152 286h188l-200 -301z" />
<glyph unicode="&#x144;" d="M156 0v1106h149l12 -129h11q82 39 148.5 67.5t122.5 47t105.5 26.5t96.5 8q141 0 216 -74.5t75 -228.5v-823h-181v764q0 115 -43 163t-135 48q-78 0 -181 -33t-216 -88v-854h-180zM569 1262l144 378h186l-203 -393z" />
<glyph unicode="&#x145;" horiz-adv-x="1597" d="M182 0v1516h158l778 -1057l119 -180h14v1237h166v-1516h-160l-780 1057l-117 178l-12 -2v-1233h-166zM641 -451l98 310h189l-140 -310h-147z" />
<glyph unicode="&#x146;" d="M156 0v1106h149l12 -129h11q82 39 148.5 67.5t122.5 47t105.5 26.5t96.5 8q141 0 216 -74.5t75 -228.5v-823h-181v764q0 115 -43 163t-135 48q-78 0 -181 -33t-216 -88v-854h-180zM446 -451l99 310h188l-139 -310h-148z" />
<glyph unicode="&#x147;" horiz-adv-x="1597" d="M182 0v1516h158l778 -1057l119 -180h14v1237h166v-1516h-160l-780 1057l-117 178l-12 -2v-1233h-166zM465 1806v146l338 -152l338 152v-146l-340 -151z" />
<glyph unicode="&#x148;" d="M156 0v1106h149l12 -129h11q82 39 148.5 67.5t122.5 47t105.5 26.5t96.5 8q141 0 216 -74.5t75 -228.5v-823h-181v764q0 115 -43 163t-135 48q-78 0 -181 -33t-216 -88v-854h-180zM283 1427v144l340 -152l340 152v-144l-340 -153z" />
<glyph unicode="&#x149;" horiz-adv-x="1388" d="M74 1188v467h157v-8l-65 -459h-92zM305 0v1106h150l12 -129h10q82 39 148.5 67.5t123 47t105.5 26.5t96 8q141 0 216 -74.5t75 -228.5v-823h-180v764q0 115 -43 163t-135 48q-78 0 -181.5 -33t-216.5 -88v-854h-180z" />
<glyph unicode="&#x14a;" horiz-adv-x="1595" d="M182 0v1516h152l780 -1057l123 -180h12v1237h168v-1340q0 -59 -15.5 -132t-43 -149.5t-64.5 -150.5t-80 -135l-131 39q53 102 91 207.5t51 191.5l-744 1010l-119 178h-14v-1235h-166z" />
<glyph unicode="&#x14b;" horiz-adv-x="1236" d="M156 0v1106h149l12 -127h9q82 39 148.5 67.5t123.5 46t106.5 25.5t96.5 8q291 0 291 -303v-676q-2 -78 -16.5 -159.5t-37 -160.5t-52.5 -149.5t-62 -123.5l-142 30q59 131 94 292t35 331v530q0 123 -40 172t-136 49q-160 0 -399 -114v-844h-180z" />
<glyph unicode="&#x14c;" horiz-adv-x="1529" d="M104 756q0 385 171 582.5t489 197.5q319 0 490 -197.5t171 -582.5q0 -383 -171 -579.5t-490 -196.5q-317 0 -488.5 195.5t-171.5 580.5zM291 756q0 -317 116.5 -469t356.5 -152t357.5 152.5t117.5 468.5q0 627 -475 626q-238 0 -355.5 -153.5t-117.5 -472.5zM432 1724 v134h660v-134h-660z" />
<glyph unicode="&#x14d;" horiz-adv-x="1216" d="M96 553q0 281 131 427t381 146t381 -146t131 -427t-131 -427t-381 -146t-381 147t-131 426zM276 1327v133h668v-133h-668zM279 553q0 -223 79.5 -324.5t249.5 -101.5q172 0 251 101.5t79 324.5t-79 324.5t-251 101.5q-170 0 -249.5 -101.5t-79.5 -324.5z" />
<glyph unicode="&#x14e;" horiz-adv-x="1529" d="M104 756q0 385 171 582.5t489 197.5q319 0 490 -197.5t171 -582.5q0 -383 -171 -579.5t-490 -196.5q-317 0 -488.5 195.5t-171.5 580.5zM291 756q0 -317 116.5 -469t356.5 -152t357.5 152.5t117.5 468.5q0 627 -475 626q-238 0 -355.5 -153.5t-117.5 -472.5zM391 1970 h135q0 -92 59.5 -144t176.5 -52q119 0 178 52t59 144h136q0 -139 -93.5 -222t-279.5 -83t-278.5 84t-92.5 221z" />
<glyph unicode="&#x14f;" horiz-adv-x="1216" d="M96 553q0 281 131 427t381 146t381 -146t131 -427t-131 -427t-381 -146t-381 147t-131 426zM229 1579h136q0 -111 60 -159t179 -48q117 0 177.5 48t60.5 159h133q0 -145 -88 -229t-283 -84q-197 0 -285 84t-90 229zM279 553q0 -223 79.5 -324.5t249.5 -101.5 q172 0 251 101.5t79 324.5t-79 324.5t-251 101.5q-170 0 -249.5 -101.5t-79.5 -324.5z" />
<glyph unicode="&#x150;" horiz-adv-x="1529" d="M104 756q0 385 171 582.5t489 197.5q319 0 490 -197.5t171 -582.5q0 -383 -171 -579.5t-490 -196.5q-317 0 -488.5 195.5t-171.5 580.5zM291 756q0 -317 116.5 -469t356.5 -152t357.5 152.5t117.5 468.5q0 627 -475 626q-238 0 -355.5 -153.5t-117.5 -472.5zM510 1655 l152 274h180l-201 -301zM836 1655l151 274h182l-200 -301z" />
<glyph unicode="&#x151;" horiz-adv-x="1216" d="M96 553q0 281 131 427t381 146t381 -146t131 -427t-131 -427t-381 -146t-381 147t-131 426zM279 553q0 -223 79.5 -324.5t249.5 -101.5q172 0 251 101.5t79 324.5t-79 324.5t-251 101.5q-170 0 -249.5 -101.5t-79.5 -324.5zM346 1280l146 371h186l-207 -391zM727 1280 l143 371h187l-205 -391z" />
<glyph unicode="&#x152;" horiz-adv-x="2021" d="M104 756q0 383 173.5 579.5t494.5 196.5q59 0 112.5 -3t102.5 -13h911v-152h-731v-518h680v-152h-680v-542h750v-152h-930q-47 -8 -101.5 -12t-113.5 -4q-322 0 -495 195.5t-173 576.5zM289 756q0 -315 119.5 -467t367.5 -152q59 0 111.5 4t97.5 17v1200q-47 12 -98 16 t-111 4q-246 0 -366.5 -152.5t-120.5 -469.5z" />
<glyph unicode="&#x153;" horiz-adv-x="1959" d="M96 553q0 281 131 427t381 146q154 0 260.5 -65.5t155.5 -188.5h12q49 123 152.5 187.5t257.5 64.5q205 0 311.5 -123.5t106.5 -363.5q0 -47 -2 -81t-9 -62h-733q8 -188 93 -277.5t257 -89.5q80 0 168 14.5t179 42.5l10 -137q-84 -31 -182.5 -48t-188.5 -17 q-160 0 -267.5 63.5t-156.5 181.5h-10q-53 -121 -156.5 -184t-257.5 -63q-250 0 -381 147t-131 426zM279 553q0 -223 79.5 -324.5t249.5 -101.5q172 0 251 101.5t79 324.5t-79 324.5t-251 101.5q-170 0 -249.5 -101.5t-79.5 -324.5zM1118 606h582q-6 205 -66.5 292 t-193.5 87q-303 0 -322 -379z" />
<glyph unicode="&#x154;" horiz-adv-x="1359" d="M182 0v1505q197 31 379 31q360 0 525 -116.5t165 -372.5q0 -180 -80.5 -291t-250.5 -158l380 -598h-202l-346 565q-41 -4 -86 -6t-93 -2q-41 0 -98 3t-110 9v-569h-183zM365 725q31 -8 96 -13t135 -5q127 0 216 18t145.5 59t82 105.5t25.5 157.5q0 180 -109.5 258.5 t-363.5 78.5q-53 0 -116.5 -5t-110.5 -11v-643zM596 1653l152 286h188l-201 -301z" />
<glyph unicode="&#x155;" horiz-adv-x="800" d="M156 0v1106h149l12 -152h9q115 63 211 108.5t182 61.5h57v-170h-63q-92 -12 -189.5 -48t-187.5 -83v-823h-180zM389 1262l143 378h187l-203 -393z" />
<glyph unicode="&#x156;" horiz-adv-x="1359" d="M182 0v1505q197 31 379 31q360 0 525 -116.5t165 -372.5q0 -180 -80.5 -291t-250.5 -158l380 -598h-202l-346 565q-41 -4 -86 -6t-93 -2q-41 0 -98 3t-110 9v-569h-183zM365 725q31 -8 96 -13t135 -5q127 0 216 18t145.5 59t82 105.5t25.5 157.5q0 180 -109.5 258.5 t-363.5 78.5q-53 0 -116.5 -5t-110.5 -11v-643zM522 -451l99 310h188l-139 -310h-148z" />
<glyph unicode="&#x157;" horiz-adv-x="800" d="M68 -451l98 310h188l-139 -310h-147zM156 0v1106h149l12 -152h9q115 63 211 108.5t182 61.5h57v-170h-63q-92 -12 -189.5 -48t-187.5 -83v-823h-180z" />
<glyph unicode="&#x158;" horiz-adv-x="1359" d="M182 0v1505q197 31 379 31q360 0 525 -116.5t165 -372.5q0 -180 -80.5 -291t-250.5 -158l380 -598h-202l-346 565q-41 -4 -86 -6t-93 -2q-41 0 -98 3t-110 9v-569h-183zM346 1806v146l338 -152l338 152v-146l-340 -151zM365 725q31 -8 96 -13t135 -5q127 0 216 18 t145.5 59t82 105.5t25.5 157.5q0 180 -109.5 258.5t-363.5 78.5q-53 0 -116.5 -5t-110.5 -11v-643z" />
<glyph unicode="&#x159;" horiz-adv-x="800" d="M117 1427v144l340 -152l340 152v-144l-340 -153zM156 0v1106h149l12 -152h9q115 63 211 108.5t182 61.5h57v-170h-63q-92 -12 -189.5 -48t-187.5 -83v-823h-180z" />
<glyph unicode="&#x15a;" horiz-adv-x="1187" d="M88 41v156q123 -31 248 -48.5t221 -17.5q178 0 271.5 65.5t93.5 188.5q0 70 -27 118t-73 81.5t-111.5 57.5t-141.5 44q-121 33 -207 72t-141 91t-81.5 120.5t-26.5 158.5q0 94 36.5 172t105.5 132.5t165 84t217 29.5q86 0 183.5 -13t217.5 -40l-6 -154 q-98 27 -198.5 40.5t-182.5 13.5q-162 0 -255 -70t-93 -190q0 -57 18.5 -100.5t59.5 -77t106.5 -62.5t161.5 -55q100 -29 185.5 -62t146.5 -83t95 -121.5t34 -176.5q0 -203 -139.5 -310.5t-403.5 -107.5q-51 0 -110.5 4.5t-122 12.5t-126 20.5t-120.5 26.5zM520 1653 l152 286h188l-201 -301z" />
<glyph unicode="&#x15b;" horiz-adv-x="964" d="M92 25v147q102 -25 193.5 -40t173.5 -15q123 0 185.5 47t62.5 133q0 47 -16.5 79t-47.5 54.5t-74 35.5t-94 23q-63 12 -128.5 27.5t-119 49.5t-87.5 92.5t-34 156.5q0 150 108 234t300 84q35 0 67.5 -2.5t69.5 -7.5t82 -12t107 -19l-9 -150q-104 23 -173.5 34t-129.5 11 q-248 0 -247 -168q0 -49 19 -80.5t54 -52t82 -33t103 -22.5q74 -14 136 -36t108 -58.5t72 -93t26 -138.5q0 -154 -107.5 -241t-306.5 -87q-74 0 -160 11.5t-215 36.5zM410 1262l143 378h186l-202 -393z" />
<glyph unicode="&#x15c;" horiz-adv-x="1187" d="M88 41v156q123 -31 248 -48.5t221 -17.5q178 0 271.5 65.5t93.5 188.5q0 70 -27 118t-73 81.5t-111.5 57.5t-141.5 44q-121 33 -207 72t-141 91t-81.5 120.5t-26.5 158.5q0 94 36.5 172t105.5 132.5t165 84t217 29.5q86 0 183.5 -13t217.5 -40l-6 -154 q-98 27 -198.5 40.5t-182.5 13.5q-162 0 -255 -70t-93 -190q0 -57 18.5 -100.5t59.5 -77t106.5 -62.5t161.5 -55q100 -29 185.5 -62t146.5 -83t95 -121.5t34 -176.5q0 -203 -139.5 -310.5t-403.5 -107.5q-51 0 -110.5 4.5t-122 12.5t-126 20.5t-120.5 26.5zM272 1663v143 l338 154l340 -154v-143l-340 152z" />
<glyph unicode="&#x15d;" horiz-adv-x="964" d="M92 25v147q102 -25 193.5 -40t173.5 -15q123 0 185.5 47t62.5 133q0 47 -16.5 79t-47.5 54.5t-74 35.5t-94 23q-63 12 -128.5 27.5t-119 49.5t-87.5 92.5t-34 156.5q0 150 108 234t300 84q35 0 67.5 -2.5t69.5 -7.5t82 -12t107 -19l-9 -150q-104 23 -173.5 34t-129.5 11 q-248 0 -247 -168q0 -49 19 -80.5t54 -52t82 -33t103 -22.5q74 -14 136 -36t108 -58.5t72 -93t26 -138.5q0 -154 -107.5 -241t-306.5 -87q-74 0 -160 11.5t-215 36.5zM143 1292v144l338 151l340 -151v-144l-338 152z" />
<glyph unicode="&#x15e;" horiz-adv-x="1187" d="M88 41v156q123 -31 248 -48.5t221 -17.5q178 0 271.5 65.5t93.5 188.5q0 70 -27 118t-73 81.5t-111.5 57.5t-141.5 44q-121 33 -207 72t-141 91t-81.5 120.5t-26.5 158.5q0 94 36.5 172t105.5 132.5t165 84t217 29.5q86 0 183.5 -13t217.5 -40l-6 -154 q-98 27 -198.5 40.5t-182.5 13.5q-162 0 -255 -70t-93 -190q0 -57 18.5 -100.5t59.5 -77t106.5 -62.5t161.5 -55q100 -29 185.5 -62t146.5 -83t95 -121.5t34 -176.5q0 -174 -102.5 -277.5t-300.5 -129.5q43 -72 58 -117t15 -92q0 -111 -63.5 -170.5t-179.5 -59.5 q-41 0 -89.5 7.5t-91.5 17.5v123q61 -23 142 -23q78 0 112.5 28t34.5 93q0 41 -15.5 83t-49.5 99h-13q-51 0 -110.5 4.5t-122 12.5t-126 20.5t-120.5 26.5z" />
<glyph unicode="&#x15f;" horiz-adv-x="964" d="M92 25v147q102 -25 193.5 -40t173.5 -15q123 0 185.5 47t62.5 133q0 47 -16.5 79t-47.5 54.5t-74 35.5t-94 23q-63 12 -128.5 27.5t-119 49.5t-87.5 92.5t-34 156.5q0 150 108 234t300 84q35 0 67.5 -2.5t69.5 -7.5t82 -12t107 -19l-9 -150q-104 23 -173.5 34t-129.5 11 q-248 0 -247 -168q0 -49 19 -80.5t54 -52t82 -33t103 -22.5q74 -14 136 -36t108 -58.5t72 -93t26 -138.5q0 -131 -79 -214t-224 -105q41 -70 56 -115t15 -92q0 -111 -63 -170.5t-180 -59.5q-41 0 -89.5 7.5t-91.5 17.5v123q61 -23 142 -23q78 0 112.5 28t34.5 93 q0 41 -15.5 83t-49.5 99q-70 2 -153 13.5t-204 34.5z" />
<glyph unicode="&#x160;" horiz-adv-x="1187" d="M88 41v156q123 -31 248 -48.5t221 -17.5q178 0 271.5 65.5t93.5 188.5q0 70 -27 118t-73 81.5t-111.5 57.5t-141.5 44q-121 33 -207 72t-141 91t-81.5 120.5t-26.5 158.5q0 94 36.5 172t105.5 132.5t165 84t217 29.5q86 0 183.5 -13t217.5 -40l-6 -154 q-98 27 -198.5 40.5t-182.5 13.5q-162 0 -255 -70t-93 -190q0 -57 18.5 -100.5t59.5 -77t106.5 -62.5t161.5 -55q100 -29 185.5 -62t146.5 -83t95 -121.5t34 -176.5q0 -203 -139.5 -310.5t-403.5 -107.5q-51 0 -110.5 4.5t-122 12.5t-126 20.5t-120.5 26.5zM272 1806v146 l338 -152l338 152v-146l-340 -151z" />
<glyph unicode="&#x161;" horiz-adv-x="964" d="M92 25v147q102 -25 193.5 -40t173.5 -15q123 0 185.5 47t62.5 133q0 47 -16.5 79t-47.5 54.5t-74 35.5t-94 23q-63 12 -128.5 27.5t-119 49.5t-87.5 92.5t-34 156.5q0 150 108 234t300 84q35 0 67.5 -2.5t69.5 -7.5t82 -12t107 -19l-9 -150q-104 23 -173.5 34t-129.5 11 q-248 0 -247 -168q0 -49 19 -80.5t54 -52t82 -33t103 -22.5q74 -14 136 -36t108 -58.5t72 -93t26 -138.5q0 -154 -107.5 -241t-306.5 -87q-74 0 -160 11.5t-215 36.5zM143 1427v144l340 -152l340 152v-144l-340 -153z" />
<glyph unicode="&#x162;" horiz-adv-x="1228" d="M35 1362v154h1161v-154h-489v-1362h-19q47 -76 64.5 -123t17.5 -98q0 -111 -63.5 -170.5t-180.5 -59.5q-41 0 -89 7.5t-91 17.5v123q61 -23 141 -23q78 0 113 28t35 93q0 45 -18.5 92t-59.5 113h-35v1362h-487z" />
<glyph unicode="&#x163;" horiz-adv-x="817" d="M33 948v158h239l27 276l141 19v-295h328v-158h-326v-616q0 -104 46.5 -153.5t144.5 -49.5q31 0 67.5 5t77.5 18v-144q-47 -12 -98 -19t-98 -7h-19q41 -68 55.5 -112t14.5 -91q0 -111 -63.5 -170.5t-180.5 -59.5q-41 0 -89 7.5t-91 17.5v123q61 -23 141 -23q78 0 113 28 t35 93q0 47 -20.5 97.5t-67.5 121.5q-147 70 -148 281v653h-229z" />
<glyph unicode="&#x164;" horiz-adv-x="1228" d="M35 1362v154h1161v-154h-489v-1362h-185v1362h-487zM281 1806v146l337 -152l338 152v-146l-340 -151z" />
<glyph unicode="&#x165;" horiz-adv-x="798" d="M33 948v158h239l27 276l141 19v-295h228v-158h-226v-616q0 -104 46.5 -153.5t144.5 -49.5q31 0 67.5 5t77.5 18v-144q-47 -12 -98 -19t-98 -7q-158 0 -239 79.5t-81 233.5v653h-229zM631 1188v467h149l-59 -467h-90z" />
<glyph unicode="&#x166;" horiz-adv-x="1249" d="M43 1362v154h1161v-154h-489v-520h293v-121h-293v-721h-185v721h-276v121h276v520h-487z" />
<glyph unicode="&#x167;" horiz-adv-x="835" d="M51 948v158h240l26 276l142 19v-295h327v-158h-325v-250h284v-120h-284v-246q0 -104 46 -153.5t144 -49.5q31 0 68 5t78 18v-144q-47 -12 -98.5 -19t-98.5 -7q-158 0 -238.5 79.5t-80.5 233.5v283h-226v120h226v250h-230z" />
<glyph unicode="&#x168;" horiz-adv-x="1546" d="M166 612v904h182v-900q0 -258 106.5 -369.5t319.5 -111.5t318.5 110.5t105.5 370.5v900h184v-904q0 -166 -34.5 -285.5t-108.5 -196.5t-189.5 -113.5t-275.5 -36.5q-162 0 -276.5 36.5t-188 113.5t-108.5 196.5t-35 285.5zM369 1763q57 76 124.5 115t133.5 39 q49 0 92 -13.5t84 -28.5t82 -28.5t88 -13.5q92 0 182 78l49 -56q-53 -74 -123.5 -114.5t-142.5 -40.5q-45 0 -88 13t-85 28.5t-83 29t-84 13.5q-47 0 -90 -17.5t-90 -58.5z" />
<glyph unicode="&#x169;" d="M147 283v823h181v-766q0 -111 39 -159t131 -48q98 0 202.5 42t202.5 91v840h180v-1106h-149l-12 135h-9q-84 -41 -147.5 -70.5t-117.5 -48t-106.5 -27.5t-113.5 -9q-281 0 -281 303zM199 1384q57 76 124.5 115t133.5 39q49 0 92 -13.5t84 -30.5t82 -30.5t86 -13.5 q92 0 182 78l51 -55q-53 -76 -123.5 -116t-142.5 -40q-45 0 -88 13t-85 29.5t-84 30t-85 13.5q-45 0 -88 -17.5t-88 -58.5z" />
<glyph unicode="&#x16a;" horiz-adv-x="1546" d="M166 612v904h182v-900q0 -258 106.5 -369.5t319.5 -111.5t318.5 110.5t105.5 370.5v900h184v-904q0 -166 -34.5 -285.5t-108.5 -196.5t-189.5 -113.5t-275.5 -36.5q-162 0 -276.5 36.5t-188 113.5t-108.5 196.5t-35 285.5zM434 1724v134h660v-134h-660z" />
<glyph unicode="&#x16b;" d="M147 283v823h181v-766q0 -111 39 -159t131 -48q98 0 202.5 42t202.5 91v840h180v-1106h-149l-12 135h-9q-84 -41 -147.5 -70.5t-117.5 -48t-106.5 -27.5t-113.5 -9q-281 0 -281 303zM281 1327v133h667v-133h-667z" />
<glyph unicode="&#x16c;" horiz-adv-x="1546" d="M166 612v904h182v-900q0 -258 106.5 -369.5t319.5 -111.5t318.5 110.5t105.5 370.5v900h184v-904q0 -166 -34.5 -285.5t-108.5 -196.5t-189.5 -113.5t-275.5 -36.5q-162 0 -276.5 36.5t-188 113.5t-108.5 196.5t-35 285.5zM397 1970h135q0 -92 59.5 -144t176.5 -52 q119 0 178.5 52t59.5 144h135q0 -139 -93.5 -222t-279.5 -83t-278.5 84t-92.5 221z" />
<glyph unicode="&#x16d;" d="M147 283v823h181v-766q0 -111 39 -159t131 -48q98 0 202.5 42t202.5 91v840h180v-1106h-149l-12 135h-9q-84 -41 -147.5 -70.5t-117.5 -48t-106.5 -27.5t-113.5 -9q-281 0 -281 303zM233 1579h136q0 -111 60 -159t179 -48q117 0 177.5 48t60.5 159h133q0 -145 -88 -229 t-283 -84q-197 0 -284.5 84t-90.5 229z" />
<glyph unicode="&#x16e;" horiz-adv-x="1546" d="M166 612v904h182v-900q0 -258 106.5 -369.5t319.5 -111.5t318.5 110.5t105.5 370.5v900h184v-904q0 -166 -34.5 -285.5t-108.5 -196.5t-189.5 -113.5t-275.5 -36.5q-162 0 -276.5 36.5t-188 113.5t-108.5 196.5t-35 285.5zM522 1845q0 98 70 162t178 64q106 0 175 -63.5 t69 -162.5q0 -94 -69 -156.5t-175 -62.5q-109 0 -178.5 62.5t-69.5 156.5zM621 1845q0 -61 37.5 -95t111.5 -34q72 0 108.5 34t36.5 95q0 63 -36.5 99t-108.5 36q-74 0 -111.5 -35.5t-37.5 -99.5z" />
<glyph unicode="&#x16f;" d="M147 283v823h181v-766q0 -111 39 -159t131 -48q98 0 202.5 42t202.5 91v840h180v-1106h-149l-12 135h-9q-84 -41 -147.5 -70.5t-117.5 -48t-106.5 -27.5t-113.5 -9q-281 0 -281 303zM365 1452q0 98 69.5 160.5t179.5 62.5q106 0 176 -62.5t70 -160.5q0 -96 -70 -158.5 t-176 -62.5q-111 0 -180 62.5t-69 158.5zM467 1452q0 -61 37.5 -96t109.5 -35t108 35t36 96t-36 97t-108 36t-109.5 -36t-37.5 -97z" />
<glyph unicode="&#x170;" horiz-adv-x="1546" d="M166 612v904h182v-900q0 -258 106.5 -369.5t319.5 -111.5t318.5 110.5t105.5 370.5v900h184v-904q0 -166 -34.5 -285.5t-108.5 -196.5t-189.5 -113.5t-275.5 -36.5q-162 0 -276.5 36.5t-188 113.5t-108.5 196.5t-35 285.5zM522 1655l152 274h180l-201 -301zM848 1655 l151 274h183l-201 -301z" />
<glyph unicode="&#x171;" d="M147 283v823h181v-766q0 -111 39 -159t131 -48q98 0 202.5 42t202.5 91v840h180v-1106h-149l-12 135h-9q-84 -41 -147.5 -70.5t-117.5 -48t-106.5 -27.5t-113.5 -9q-281 0 -281 303zM344 1280l145 371h187l-207 -391zM725 1280l143 371h187l-205 -391z" />
<glyph unicode="&#x172;" horiz-adv-x="1546" d="M166 612v904h182v-900q0 -258 106.5 -369.5t319.5 -111.5t318.5 110.5t105.5 370.5v900h184v-904q0 -299 -114.5 -448.5t-368.5 -175.5q-123 -59 -179 -116.5t-56 -117.5q0 -70 94 -69q29 0 68.5 6t74.5 16v-110q-61 -25 -149 -25q-217 0 -217 172q0 66 36.5 122 t120.5 116q-139 8 -238.5 50t-164 118.5t-94 191.5t-29.5 270z" />
<glyph unicode="&#x173;" d="M147 283v823h181v-766q0 -111 39 -159t131 -48q98 0 202.5 42t202.5 91v840h180v-1141q-125 -59 -182 -116.5t-57 -116.5q0 -70 94 -70q29 0 69 6t74 17v-111q-61 -25 -149 -25q-217 0 -217 172q0 78 51 142.5t168 136.5l-12 135h-9q-84 -41 -147.5 -70.5t-117.5 -48 t-106.5 -27.5t-113.5 -9q-281 0 -281 303z" />
<glyph unicode="&#x174;" horiz-adv-x="2078" d="M39 1516h192l269 -1033l69 -286h13l75 286l289 1033h191l282 -1033l74 -286h16l70 286l272 1033h193l-418 -1516h-244l-276 997l-59 273h-13l-59 -273l-281 -997h-243zM702 1663v143l338 154l340 -154v-143l-340 152z" />
<glyph unicode="&#x175;" horiz-adv-x="1628" d="M47 1094v12h176l199 -762l35 -162h14l39 162l215 762h174l223 -762l41 -162h15l36 162l189 762h174v-12l-297 -1094h-205l-221 743l-35 148h-12l-35 -148l-213 -743h-203zM475 1292v144l338 151l340 -151v-144l-338 152z" />
<glyph unicode="&#x176;" horiz-adv-x="1298" d="M6 1516h197l377 -701l59 -135h18l60 135l377 701h196l-549 -1004v-512h-182v506zM311 1663v143l338 154l340 -154v-143l-340 152z" />
<glyph unicode="&#x177;" horiz-adv-x="1157" d="M33 1085v21h192l297 -754l49 -155h13l49 155l309 754h186v-21l-647 -1536l-164 31l-2 19l170 411zM244 1292v144l338 151l340 -151v-144l-338 152z" />
<glyph unicode="&#x178;" horiz-adv-x="1298" d="M6 1516h197l377 -701l59 -135h18l60 135l377 701h196l-549 -1004v-512h-182v506zM268 1792q0 113 115 113q117 0 117 -113q0 -115 -117 -115q-115 0 -115 115zM801 1792q0 113 117 113q55 0 85.5 -27t30.5 -86t-30.5 -87t-85.5 -28q-117 0 -117 115z" />
<glyph unicode="&#x179;" horiz-adv-x="1200" d="M68 0v137l815 1211v10h-789v158h1014v-134l-813 -1214v-12h835v-156h-1062zM539 1653l151 286h189l-201 -301z" />
<glyph unicode="&#x17a;" horiz-adv-x="1007" d="M76 2v119l606 825v10h-586v150h817v-113l-602 -829v-14h623v-148h-858zM446 1262l144 378h186l-203 -393z" />
<glyph unicode="&#x17b;" horiz-adv-x="1200" d="M68 0v137l815 1211v10h-789v158h1014v-134l-813 -1214v-12h835v-156h-1062zM496 1780q0 115 114 114q117 0 117 -114q0 -59 -30 -86t-87 -27t-85.5 26.5t-28.5 86.5z" />
<glyph unicode="&#x17c;" horiz-adv-x="1007" d="M76 2v119l606 825v10h-586v150h817v-113l-602 -829v-14h623v-148h-858zM381 1434q0 113 117 112q117 0 116 -112q1 -115 -116 -115t-117 115z" />
<glyph unicode="&#x17d;" horiz-adv-x="1200" d="M68 0v137l815 1211v10h-789v158h1014v-134l-813 -1214v-12h835v-156h-1062zM274 1806v146l338 -152l338 152v-146l-340 -151z" />
<glyph unicode="&#x17e;" horiz-adv-x="1007" d="M76 2v119l606 825v10h-586v150h817v-113l-602 -829v-14h623v-148h-858zM168 1427v144l340 -152l340 152v-144l-340 -153z" />
<glyph unicode="&#x18f;" horiz-adv-x="1409" d="M94 664q0 96 12 182h1014q-6 141 -36.5 241.5t-89 165t-145.5 95t-208 30.5q-100 0 -220 -18.5t-259 -59.5q0 2 -2 27t-3 52.5t-3 51t-2 25.5q49 18 110.5 33.5t129 27t134 17.5t125.5 6q324 0 488 -188.5t164 -565.5q0 -387 -162 -596.5t-469 -209.5q-274 0 -426 175 t-152 509zM270 707q-10 -283 87.5 -428.5t314.5 -145.5q221 0 329.5 139.5t118.5 434.5h-850z" />
<glyph unicode="&#x192;" horiz-adv-x="837" d="M61 950v156h240v55q0 145 23.5 240.5t82 152t158 81t252.5 30.5l10 -135q-106 -6 -173.5 -22.5t-106.5 -51.5t-53.5 -95.5t-14.5 -156.5v-98h293v-156h-293v-1321l-180 -80v1401h-238z" />
<glyph unicode="&#x1c4;" horiz-adv-x="2693" d="M182 6v1505q53 4 111.5 8.5t115 7.5t107.5 5t92 2q403 0 592 -187.5t189 -588.5q0 -203 -48.5 -350.5t-148.5 -242.5t-256 -141.5t-371 -46.5q-119 0 -222 7.5t-161 21.5zM365 150q74 -10 131 -14.5t125 -4.5q152 0 261 36t180 112.5t104.5 195.5t33.5 283t-32.5 281.5 t-103.5 192.5t-179.5 110.5t-257.5 35.5q-53 0 -127 -4t-135 -10v-1214zM1561 0v137l815 1211v10h-789v158h1014v-134l-813 -1214v-12h835v-156h-1062zM1767 1806v146l338 -152l338 152v-146l-340 -151z" />
<glyph unicode="&#x1c5;" horiz-adv-x="2500" d="M182 6v1505q53 4 111.5 8.5t115 7.5t107.5 5t92 2q403 0 592 -187.5t189 -588.5q0 -203 -48.5 -350.5t-148.5 -242.5t-256 -141.5t-371 -46.5q-119 0 -222 7.5t-161 21.5zM365 150q74 -10 131 -14.5t125 -4.5q152 0 261 36t180 112.5t104.5 195.5t33.5 283t-32.5 281.5 t-103.5 192.5t-179.5 110.5t-257.5 35.5q-53 0 -127 -4t-135 -10v-1214zM1569 2v119l606 825v10h-586v150h817v-113l-602 -829v-14h623v-148h-858zM1661 1427v144l340 -152l340 152v-144l-340 -153z" />
<glyph unicode="&#x1c6;" horiz-adv-x="2246" d="M96 545q0 147 39 255.5t110.5 181.5t173 108.5t224.5 35.5q72 0 137.5 -7t122.5 -13v549h178v-1655h-155l-17 135h-12q-115 -155 -342 -155q-225 0 -342 137t-117 428zM281 553q0 -231 75.5 -330.5t239.5 -99.5q61 0 116.5 17.5t98.5 49t67.5 77.5t24.5 106v592 q-55 10 -121.5 16t-140.5 6q-180 0 -270 -100.5t-90 -333.5zM1313 2v119l606 825v10h-586v150h817v-113l-602 -829v-14h623v-148h-858zM1405 1427v144l340 -152l340 152v-144l-340 -153z" />
<glyph unicode="&#x1c7;" horiz-adv-x="1630" d="M182 0v1516h183v-1364h692v-152h-875zM1108 -328q45 100 77 184.5t50 166t26.5 167.5t8.5 191v1135h182v-1145q0 -102 -11 -191.5t-37 -177.5t-68 -182t-103 -207z" />
<glyph unicode="&#x1c8;" horiz-adv-x="1572" d="M182 0v1516h183v-1364h692v-152h-875zM1102 -408q37 74 62.5 148t43 153.5t25.5 170t8 198.5v67.5v145.5v186.5v191.5t-1 160.5t-1 92.5h178v-930q-4 -170 -51 -328.5t-133 -298.5zM1212 1444q0 57 26 83.5t85 26.5q113 0 113 -110q0 -109 -113 -109q-59 0 -85 27t-26 82 z" />
<glyph unicode="&#x1c9;" horiz-adv-x="987" d="M160 0v1655h180v-1655h-180zM516 -408q37 74 62.5 148t43 153.5t25.5 170t8 198.5v67.5v145.5v186.5v191.5t-1 160.5t-1 92.5h178v-930q-4 -170 -51 -328.5t-133 -298.5zM627 1444q0 57 25.5 83.5t84.5 26.5q113 0 113 -110q0 -109 -113 -109q-59 0 -84.5 27t-25.5 82z " />
<glyph unicode="&#x1ca;" horiz-adv-x="2144" d="M182 0v1516h158l778 -1057l119 -180h14v1237h166v-1516h-160l-780 1057l-117 178l-12 -2v-1233h-166zM1622 -328q45 100 77 184.5t50 166t26.5 167.5t8.5 191v1135h182v-1145q0 -102 -11 -191.5t-37 -177.5t-68 -182t-103 -207z" />
<glyph unicode="&#x1cb;" horiz-adv-x="2086" d="M182 0v1516h158l778 -1057l119 -180h14v1237h166v-1516h-160l-780 1057l-117 178l-12 -2v-1233h-166zM1616 -408q37 74 62.5 148t43 153.5t25.5 170t8 198.5v67.5v145.5v186.5v191.5t-1 160.5t-1 92.5h178v-930q-4 -170 -51 -328.5t-133 -298.5zM1726 1444q0 57 26 83.5 t85 26.5q113 0 113 -110q0 -109 -113 -109q-59 0 -85 27t-26 82z" />
<glyph unicode="&#x1cc;" horiz-adv-x="1728" d="M156 0v1106h149l12 -129h11q82 39 148.5 67.5t122.5 47t105.5 26.5t96.5 8q141 0 216 -74.5t75 -228.5v-823h-181v764q0 115 -43 163t-135 48q-78 0 -181 -33t-216 -88v-854h-180zM1257 -408q37 74 63 148t43 153.5t25.5 170t8.5 198.5v67.5v145.5v186.5v191.5t-1 160.5 t-1 92.5h178v-930q-4 -170 -51 -328.5t-133 -298.5zM1368 1444q0 57 25.5 83.5t85.5 26.5q113 0 112 -110q1 -109 -112 -109q-59 0 -85 27t-26 82z" />
<glyph unicode="&#x1ea;" horiz-adv-x="1529" d="M104 756q0 385 171 582.5t489 197.5q319 0 490 -197.5t171 -582.5q0 -344 -137 -537.5t-399 -228.5q-121 -59 -176.5 -115.5t-55.5 -116.5q0 -70 95 -69q29 0 68.5 6t74.5 16v-110q-62 -25 -150 -25q-217 0 -217 172q0 66 36 121t118 115q-281 23 -429.5 217t-148.5 555z M291 756q0 -317 116.5 -469t356.5 -152t357.5 152.5t117.5 468.5q0 627 -475 626q-238 0 -355.5 -153.5t-117.5 -472.5z" />
<glyph unicode="&#x1eb;" horiz-adv-x="1216" d="M96 553q0 281 131 427t381 146t381 -146t131 -427q0 -231 -91 -372.5t-265 -182.5q-125 -59 -181.5 -116.5t-56.5 -117.5q0 -70 95 -69q29 0 68.5 6t74.5 16v-110q-62 -25 -150 -25q-217 0 -217 172q0 63 33 117.5t111 112.5q-217 18 -331 163.5t-114 405.5zM279 553 q0 -223 79.5 -324.5t249.5 -101.5q172 0 251 101.5t79 324.5t-79 324.5t-251 101.5q-170 0 -249.5 -101.5t-79.5 -324.5z" />
<glyph unicode="&#x1f1;" horiz-adv-x="2662" d="M182 6v1505q53 4 111.5 8.5t115 7.5t107.5 5t92 2q403 0 592 -187.5t189 -588.5q0 -203 -48.5 -350.5t-148.5 -242.5t-256 -141.5t-371 -46.5q-119 0 -222 7.5t-161 21.5zM365 150q74 -10 131 -14.5t125 -4.5q152 0 261 36t180 112.5t104.5 195.5t33.5 283t-32.5 281.5 t-103.5 192.5t-179.5 110.5t-257.5 35.5q-53 0 -127 -4t-135 -10v-1214zM1530 0v137l815 1211v10h-789v158h1014v-134l-813 -1214v-12h836v-156h-1063z" />
<glyph unicode="&#x1f2;" horiz-adv-x="2494" d="M182 6v1505q53 4 111.5 8.5t115 7.5t107.5 5t92 2q403 0 592 -187.5t189 -588.5q0 -203 -48.5 -350.5t-148.5 -242.5t-256 -141.5t-371 -46.5q-119 0 -222 7.5t-161 21.5zM365 150q74 -10 131 -14.5t125 -4.5q152 0 261 36t180 112.5t104.5 195.5t33.5 283t-32.5 281.5 t-103.5 192.5t-179.5 110.5t-257.5 35.5q-53 0 -127 -4t-135 -10v-1214zM1561 2v119l606 825v10h-586v150h817v-113l-602 -829v-14h623v-148h-858z" />
<glyph unicode="&#x1f3;" horiz-adv-x="2246" d="M96 545q0 147 39 255.5t110.5 181.5t173 108.5t224.5 35.5q72 0 137.5 -7t122.5 -13v549h178v-1655h-155l-17 135h-12q-115 -155 -342 -155q-225 0 -342 137t-117 428zM281 553q0 -231 75.5 -330.5t239.5 -99.5q61 0 116.5 17.5t98.5 49t67.5 77.5t24.5 106v592 q-55 10 -121.5 16t-140.5 6q-180 0 -270 -100.5t-90 -333.5zM1313 2v119l606 825v10h-586v150h817v-113l-602 -829v-14h623v-148h-858z" />
<glyph unicode="&#x1f4;" horiz-adv-x="1355" d="M104 754q0 782 723 782q90 0 188.5 -12.5t196.5 -36.5v-156q-123 29 -206.5 38t-163.5 9q-287 0 -419 -150.5t-132 -471.5q0 -317 125 -468t393 -151q47 0 113.5 7.5t130.5 17.5v608h172v-725q-51 -14 -106.5 -26.5t-111 -20.5t-106.5 -12t-94 -4q-702 0 -703 772z M657 1653l152 286h188l-200 -301z" />
<glyph unicode="&#x1f5;" horiz-adv-x="1236" d="M96 551q0 145 39 252.5t110.5 179.5t173 107.5t224.5 35.5q98 0 208 -12t232 -47v-958q0 -164 -43 -270.5t-115.5 -171t-170.5 -90.5t-209 -26q-98 0 -194.5 12.5t-174.5 35.5l12 141q76 -20 162 -33.5t172 -13.5t158 19.5t123 65.5t79.5 121.5t28.5 188.5v72h-10 q-117 -160 -346 -160q-223 0 -341 133t-118 418zM281 561q0 -225 75.5 -322.5t239.5 -97.5q61 0 117.5 17.5t98.5 49.5t66.5 78t24.5 105v574q-55 10 -121.5 16t-140.5 6q-180 0 -270 -98t-90 -328zM578 1262l143 378h186l-202 -393z" />
<glyph unicode="&#x1fa;" horiz-adv-x="1396" d="M16 0v14l488 1342q-45 31 -69.5 76t-24.5 104q0 92 61 157.5t166 82.5l123 213h188l-149 -226q84 -23 133 -84t49 -143q0 -55 -24.5 -102.5t-65.5 -75.5l489 -1344v-14h-178l-166 449h-678l-163 -449h-179zM408 606h577l-182 510l-62 168h-88l-61 -168zM537 1536 q0 -63 42.5 -100t116.5 -37q72 0 117 37t45 100t-44 100t-118 37q-76 0 -117.5 -37t-41.5 -100z" />
<glyph unicode="&#x1fb;" horiz-adv-x="1091" d="M80 281q0 160 100.5 243.5t321.5 100.5l264 20v80q0 72 -13.5 120t-45 77.5t-85 42t-133.5 12.5q-70 0 -150.5 -8t-174.5 -27l-14 137q109 20 197.5 29.5t178.5 9.5q215 0 317.5 -88t102.5 -274v-756h-149l-19 139h-12q-100 -72 -196.5 -110.5t-194.5 -38.5 q-143 0 -219 74.5t-76 216.5zM262 295q0 -166 178 -166q74 0 159 35t167 88v278l-215 -18q-160 -14 -224.5 -62.5t-64.5 -154.5zM301 1452q0 92 63.5 153.5t165.5 67.5l125 328h187l-180 -348q61 -27 98 -79t37 -122q0 -96 -70 -158.5t-176 -62.5q-111 0 -180.5 62.5 t-69.5 158.5zM403 1452q0 -61 38 -96t110 -35t107.5 35t35.5 96t-35.5 97t-107.5 36t-110 -36t-38 -97z" />
<glyph unicode="&#x1fc;" horiz-adv-x="1816" d="M12 0v14l615 1502h1071v-152h-678l27 -520h598v-154h-590l26 -538h639v-152h-821l-18 449h-506l-185 -449h-178zM440 606h434l-30 766h-88zM985 1653l152 286h188l-201 -301z" />
<glyph unicode="&#x1fd;" horiz-adv-x="1787" d="M82 281q0 158 101.5 241.5t318.5 100.5l266 20v96q0 133 -62.5 185.5t-216.5 52.5q-72 0 -151.5 -8t-171.5 -27l-16 137q111 20 199.5 29.5t176.5 9.5q287 0 355 -196h12q55 98 150.5 149t230.5 51q207 0 313.5 -124t106.5 -363q0 -49 -2 -83t-9 -60h-735 q8 -188 94 -277.5t261 -89.5q80 0 168 14.5t176 42.5l10 -139q-84 -29 -183.5 -46t-189.5 -17q-293 0 -412 194l-12 2q-82 -51 -149.5 -87t-126 -57.5t-109.5 -31.5t-100 -10q-143 0 -218 74.5t-75 216.5zM264 295q0 -168 178 -168q72 0 155 33t177 96q-2 6 -3 47t-2 90 t-1 91v51l-217 -19q-160 -14 -223.5 -65.5t-63.5 -155.5zM846 1262l143 378h187l-203 -393zM948 604h582q-6 203 -66.5 291t-193.5 88q-303 0 -322 -379z" />
<glyph unicode="&#x1fe;" horiz-adv-x="1533" d="M78 0l172 213q-141 193 -141 543q0 385 170 582.5t489 197.5q266 0 432 -143l98 123h156l-172 -213q72 -98 108.5 -234.5t36.5 -312.5q0 -383 -170 -579.5t-489 -196.5q-270 0 -436 143l-101 -123h-153zM293 756q0 -248 74 -396l727 902q-117 121 -326 120 q-238 0 -356.5 -153.5t-118.5 -472.5zM438 256q119 -121 330 -121q240 0 357.5 152.5t117.5 468.5q0 250 -78 401zM682 1653l152 286h188l-201 -301z" />
<glyph unicode="&#x1ff;" horiz-adv-x="1228" d="M51 0l148 170q-96 143 -97 383q0 274 128 423.5t384 149.5q205 0 334 -104l74 84h154l-150 -170q100 -143 100 -383q0 -276 -129 -424.5t-383 -148.5q-213 0 -335 104l-74 -84h-154zM285 553q0 -156 34 -246l523 596q-80 76 -228 76q-178 0 -253.5 -104.5t-75.5 -321.5z M383 205q77 -78 231 -78q178 0 254 104.5t76 321.5q0 152 -37 248zM551 1262l143 378h187l-203 -393z" />
<glyph unicode="&#x200;" horiz-adv-x="1394" d="M14 0v14l545 1502h277l544 -1502v-14h-180l-166 451h-678l-161 -451h-181zM264 1929h182l150 -274l-131 -27zM408 604h577l-186 512l-94 264h-17l-94 -264zM590 1929h182l152 -274l-131 -27z" />
<glyph unicode="&#x201;" horiz-adv-x="1091" d="M80 281q0 160 100.5 243.5t321.5 100.5l264 20v80q0 72 -13.5 120t-45 77.5t-85 42t-133.5 12.5q-70 0 -150.5 -8t-174.5 -27l-14 137q109 20 197.5 29.5t178.5 9.5q215 0 317.5 -88t102.5 -274v-756h-149l-19 139h-12q-100 -72 -196.5 -110.5t-194.5 -38.5 q-143 0 -219 74.5t-76 216.5zM106 1651h187l145 -371l-125 -20zM262 295q0 -166 178 -166q74 0 159 35t167 88v278l-215 -18q-160 -14 -224.5 -62.5t-64.5 -154.5zM487 1651h187l143 -371l-125 -20z" />
<glyph unicode="&#x202;" horiz-adv-x="1394" d="M14 0v14l545 1502h277l544 -1502v-14h-180l-166 451h-678l-161 -451h-181zM326 1675q0 137 92 221t280 84q186 0 278.5 -82.5t92.5 -222.5h-135q0 94 -59.5 145.5t-176.5 51.5q-119 0 -178 -51.5t-59 -145.5h-135zM408 604h577l-186 512l-94 264h-17l-94 -264z" />
<glyph unicode="&#x203;" horiz-adv-x="1091" d="M80 281q0 160 100.5 243.5t321.5 100.5l264 20v80q0 72 -13.5 120t-45 77.5t-85 42t-133.5 12.5q-70 0 -150.5 -8t-174.5 -27l-14 137q109 20 197.5 29.5t178.5 9.5q215 0 317.5 -88t102.5 -274v-756h-149l-19 139h-12q-100 -72 -196.5 -110.5t-194.5 -38.5 q-143 0 -219 74.5t-76 216.5zM180 1284q2 143 90 227t285 84q195 0 283 -84t90 -227h-135q0 111 -60.5 159t-177.5 48t-178.5 -48t-61.5 -159h-135zM262 295q0 -166 178 -166q74 0 159 35t167 88v278l-215 -18q-160 -14 -224.5 -62.5t-64.5 -154.5z" />
<glyph unicode="&#x204;" horiz-adv-x="1261" d="M182 0v1516h963v-152h-780v-520h727v-152h-727v-540h798v-152h-981zM236 1929h182l149 -274l-131 -27zM561 1929h182l152 -274l-131 -27z" />
<glyph unicode="&#x205;" horiz-adv-x="1114" d="M98 539q0 285 128 435t372 150q424 0 424 -493q0 -94 -14 -144h-729q10 -193 95 -276.5t259 -83.5q78 0 166 14.5t174 42.5l10 -137q-82 -31 -181.5 -48t-191.5 -17q-254 0 -383 140t-129 417zM121 1651h186l146 -371l-125 -20zM279 614h577q0 201 -63.5 286t-198.5 85 q-295 0 -315 -371zM502 1651h186l143 -371l-124 -20z" />
<glyph unicode="&#x206;" horiz-adv-x="1261" d="M182 0v1516h963v-152h-780v-520h727v-152h-727v-540h798v-152h-981zM295 1675q0 137 92 221t281 84q186 0 278 -82.5t92 -222.5h-135q0 94 -59.5 145.5t-175.5 51.5q-119 0 -178.5 -51.5t-59.5 -145.5h-135z" />
<glyph unicode="&#x207;" horiz-adv-x="1114" d="M98 539q0 285 128 435t372 150q424 0 424 -493q0 -94 -14 -144h-729q10 -193 95 -276.5t259 -83.5q78 0 166 14.5t174 42.5l10 -137q-82 -31 -181.5 -48t-191.5 -17q-254 0 -383 140t-129 417zM207 1284q2 143 90 227t285 84q195 0 282.5 -84t89.5 -227h-135 q0 111 -60.5 159t-176.5 48q-117 0 -178.5 -48t-61.5 -159h-135zM279 614h577q0 201 -63.5 286t-198.5 85q-295 0 -315 -371z" />
<glyph unicode="&#x208;" horiz-adv-x="546" d="M-143 1929h182l149 -274l-131 -27zM182 0v1516h183v-1516h-183zM182 1929h183l151 -274l-131 -27z" />
<glyph unicode="&#x209;" horiz-adv-x="493" d="M-205 1651h187l145 -371l-125 -20zM158 0v1106h178v-1106h-178zM176 1651h186l144 -371l-125 -20z" />
<glyph unicode="&#x20a;" horiz-adv-x="546" d="M-96 1675q0 137 92 221t280 84q186 0 278.5 -82.5t92.5 -222.5h-135q0 94 -59.5 145.5t-176.5 51.5q-119 0 -178 -51.5t-59 -145.5h-135zM182 0v1516h183v-1516h-183z" />
<glyph unicode="&#x20b;" horiz-adv-x="493" d="M-88 1284q2 143 84 227t258 84q178 0 260 -84t84 -227h-119q0 111 -57 159t-168 48t-167 -48t-56 -159h-119zM158 0v1106h178v-1106h-178z" />
<glyph unicode="&#x20c;" horiz-adv-x="1529" d="M104 756q0 385 171 582.5t489 197.5q319 0 490 -197.5t171 -582.5q0 -383 -171 -579.5t-490 -196.5q-317 0 -488.5 195.5t-171.5 580.5zM291 756q0 -317 116.5 -469t356.5 -152t357.5 152.5t117.5 468.5q0 627 -475 626q-238 0 -355.5 -153.5t-117.5 -472.5zM336 1929 h182l150 -274l-131 -27zM662 1929h182l151 -274l-131 -27z" />
<glyph unicode="&#x20d;" horiz-adv-x="1216" d="M96 553q0 281 131 427t381 146t381 -146t131 -427t-131 -427t-381 -146t-381 147t-131 426zM145 1651h187l145 -371l-125 -20zM279 553q0 -223 79.5 -324.5t249.5 -101.5q172 0 251 101.5t79 324.5t-79 324.5t-251 101.5q-170 0 -249.5 -101.5t-79.5 -324.5zM526 1651 h187l143 -371l-125 -20z" />
<glyph unicode="&#x20e;" horiz-adv-x="1529" d="M104 756q0 385 171 582.5t489 197.5q319 0 490 -197.5t171 -582.5q0 -383 -171 -579.5t-490 -196.5q-317 0 -488.5 195.5t-171.5 580.5zM291 756q0 -317 116.5 -469t356.5 -152t357.5 152.5t117.5 468.5q0 627 -475 626q-238 0 -355.5 -153.5t-117.5 -472.5zM391 1675 q0 137 92 221t281 84q186 0 278.5 -82.5t92.5 -222.5h-136q0 94 -59 145.5t-176 51.5q-119 0 -178.5 -51.5t-59.5 -145.5h-135z" />
<glyph unicode="&#x20f;" horiz-adv-x="1216" d="M96 553q0 281 131 427t381 146t381 -146t131 -427t-131 -427t-381 -146t-381 147t-131 426zM233 1284q2 143 90.5 227t284.5 84q195 0 283 -84t90 -227h-135q0 111 -60.5 159t-177.5 48t-178 -48t-61 -159h-136zM279 553q0 -223 79.5 -324.5t249.5 -101.5 q172 0 251 101.5t79 324.5t-79 324.5t-251 101.5q-170 0 -249.5 -101.5t-79.5 -324.5z" />
<glyph unicode="&#x210;" horiz-adv-x="1359" d="M182 0v1505q197 31 379 31q360 0 525 -116.5t165 -372.5q0 -180 -80.5 -291t-250.5 -158l380 -598h-202l-346 565q-41 -4 -86 -6t-93 -2q-41 0 -98 3t-110 9v-569h-183zM256 1929h182l150 -274l-131 -27zM365 725q31 -8 96 -13t135 -5q127 0 216 18t145.5 59t82 105.5 t25.5 157.5q0 180 -109.5 258.5t-363.5 78.5q-53 0 -116.5 -5t-110.5 -11v-643zM582 1929h182l151 -274l-131 -27z" />
<glyph unicode="&#x211;" horiz-adv-x="802" d="M2 1651h186l146 -371l-125 -20zM156 0v1106h149l12 -152h9q115 63 211 108.5t182 61.5h57v-170h-63q-92 -12 -189.5 -48t-187.5 -83v-823h-180zM383 1651h186l144 -371l-125 -20z" />
<glyph unicode="&#x212;" horiz-adv-x="1359" d="M182 0v1505q197 31 379 31q360 0 525 -116.5t165 -372.5q0 -180 -80.5 -291t-250.5 -158l380 -598h-202l-346 565q-41 -4 -86 -6t-93 -2q-41 0 -98 3t-110 9v-569h-183zM309 1675q0 137 92.5 221t280.5 84q186 0 278.5 -82.5t92.5 -222.5h-135q0 94 -59.5 145.5 t-176.5 51.5q-119 0 -178.5 -51.5t-59.5 -145.5h-135zM365 725q31 -8 96 -13t135 -5q127 0 216 18t145.5 59t82 105.5t25.5 157.5q0 180 -109.5 258.5t-363.5 78.5q-53 0 -116.5 -5t-110.5 -11v-643z" />
<glyph unicode="&#x213;" horiz-adv-x="802" d="M84 1284q2 143 90 227t285 84q195 0 282.5 -84t89.5 -227h-135q0 111 -60.5 159t-176.5 48q-117 0 -178.5 -48t-61.5 -159h-135zM156 0v1106h149l12 -152h9q115 63 211 108.5t182 61.5h57v-170h-63q-92 -12 -189.5 -48t-187.5 -83v-823h-180z" />
<glyph unicode="&#x214;" horiz-adv-x="1546" d="M166 612v904h182v-900q0 -258 106.5 -369.5t319.5 -111.5t318.5 110.5t105.5 370.5v900h184v-904q0 -166 -34.5 -285.5t-108.5 -196.5t-189.5 -113.5t-275.5 -36.5q-162 0 -276.5 36.5t-188 113.5t-108.5 196.5t-35 285.5zM340 1929h182l150 -274l-131 -27zM666 1929h182 l151 -274l-131 -27z" />
<glyph unicode="&#x215;" d="M147 283v823h181v-766q0 -111 39 -159t131 -48q98 0 202.5 42t202.5 91v840h180v-1106h-149l-12 135h-9q-84 -41 -147.5 -70.5t-117.5 -48t-106.5 -27.5t-113.5 -9q-281 0 -281 303zM160 1651h186l146 -371l-125 -20zM541 1651h186l143 -371l-125 -20z" />
<glyph unicode="&#x216;" horiz-adv-x="1546" d="M166 612v904h182v-900q0 -258 106.5 -369.5t319.5 -111.5t318.5 110.5t105.5 370.5v900h184v-904q0 -166 -34.5 -285.5t-108.5 -196.5t-189.5 -113.5t-275.5 -36.5q-162 0 -276.5 36.5t-188 113.5t-108.5 196.5t-35 285.5zM393 1675q0 137 92.5 221t280.5 84 q186 0 278.5 -82.5t92.5 -222.5h-136q0 94 -59 145.5t-176 51.5q-119 0 -178.5 -51.5t-59.5 -145.5h-135z" />
<glyph unicode="&#x217;" d="M147 283v823h181v-766q0 -111 39 -159t131 -48q98 0 202.5 42t202.5 91v840h180v-1106h-149l-12 135h-9q-84 -41 -147.5 -70.5t-117.5 -48t-106.5 -27.5t-113.5 -9q-281 0 -281 303zM240 1284q2 143 90 227t284 84q195 0 283 -84t90 -227h-135q0 111 -60.5 159t-177.5 48 t-178 -48t-61 -159h-135z" />
<glyph unicode="&#x218;" horiz-adv-x="1187" d="M88 41v156q123 -31 248 -48.5t221 -17.5q178 0 271.5 65.5t93.5 188.5q0 70 -27 118t-73 81.5t-111.5 57.5t-141.5 44q-121 33 -207 72t-141 91t-81.5 120.5t-26.5 158.5q0 94 36.5 172t105.5 132.5t165 84t217 29.5q86 0 183.5 -13t217.5 -40l-6 -154 q-98 27 -198.5 40.5t-182.5 13.5q-162 0 -255 -70t-93 -190q0 -57 18.5 -100.5t59.5 -77t106.5 -62.5t161.5 -55q100 -29 185.5 -62t146.5 -83t95 -121.5t34 -176.5q0 -203 -139.5 -310.5t-403.5 -107.5q-51 0 -110.5 4.5t-122 12.5t-126 20.5t-120.5 26.5zM399 -451l99 310 h188l-139 -310h-148z" />
<glyph unicode="&#x219;" horiz-adv-x="964" d="M92 25v147q102 -25 193.5 -40t173.5 -15q123 0 185.5 47t62.5 133q0 47 -16.5 79t-47.5 54.5t-74 35.5t-94 23q-63 12 -128.5 27.5t-119 49.5t-87.5 92.5t-34 156.5q0 150 108 234t300 84q35 0 67.5 -2.5t69.5 -7.5t82 -12t107 -19l-9 -150q-104 23 -173.5 34t-129.5 11 q-248 0 -247 -168q0 -49 19 -80.5t54 -52t82 -33t103 -22.5q74 -14 136 -36t108 -58.5t72 -93t26 -138.5q0 -154 -107.5 -241t-306.5 -87q-74 0 -160 11.5t-215 36.5zM311 -451l99 310h188l-139 -310h-148z" />
<glyph unicode="&#x21a;" horiz-adv-x="1228" d="M35 1362v154h1161v-154h-489v-1362h-185v1362h-487zM430 -451l98 310h189l-139 -310h-148z" />
<glyph unicode="&#x21b;" horiz-adv-x="817" d="M33 948v158h239l27 276l141 19v-295h328v-158h-326v-616q0 -104 46.5 -153.5t144.5 -49.5q31 0 67.5 5t77.5 18v-144q-47 -12 -98 -19t-98 -7q-158 0 -239 79.5t-81 233.5v653h-229zM348 -451l98 310h189l-139 -310h-148z" />
<glyph unicode="&#x2c6;" horiz-adv-x="923" d="M117 1292v144l338 151l340 -151v-144l-338 152z" />
<glyph unicode="&#x2c7;" horiz-adv-x="866" d="M90 1427v144l340 -152l340 152v-144l-340 -153z" />
<glyph unicode="&#x2d8;" horiz-adv-x="983" d="M115 1579h135q0 -111 60.5 -159t178.5 -48q117 0 177.5 48t60.5 159h133q0 -145 -88 -229t-283 -84q-197 0 -284.5 84t-89.5 229z" />
<glyph unicode="&#x2d9;" horiz-adv-x="516" d="M127 1434q0 113 117 112q117 0 116 -112q1 -115 -116 -115t-117 115z" />
<glyph unicode="&#x2da;" horiz-adv-x="712" d="M104 1452q0 98 70 160.5t180 62.5q106 0 176 -62.5t70 -160.5q0 -96 -70 -158.5t-176 -62.5q-111 0 -180.5 62.5t-69.5 158.5zM207 1452q0 -61 37.5 -96t109.5 -35t108 35t36 96t-36 97t-108 36t-109.5 -36t-37.5 -97z" />
<glyph unicode="&#x2db;" horiz-adv-x="610" d="M117 -279q0 78 51 142.5t168 136.5h149v-35q-125 -59 -182 -116.5t-57 -116.5q0 -70 94 -70q29 0 69 6t74 17v-111q-61 -25 -149 -25q-217 0 -217 172z" />
<glyph unicode="&#x2dc;" horiz-adv-x="1024" d="M80 1384q57 76 124.5 115t133.5 39q49 0 92 -13.5t84 -30.5t82 -30.5t86 -13.5q92 0 182 78l51 -55q-53 -76 -123.5 -116t-142.5 -40q-45 0 -88 13t-85 29.5t-84 30t-85 13.5q-45 0 -88 -17.5t-88 -58.5z" />
<glyph unicode="&#x2dd;" horiz-adv-x="882" d="M98 1280l146 371h186l-207 -391zM479 1280l144 371h186l-205 -391z" />
<glyph unicode="&#x3a9;" horiz-adv-x="1591" d="M98 0v145l416 -8q-86 53 -158.5 124t-125 160t-81 193.5t-28.5 225.5q0 158 48 285.5t136 219t212 141.5t278 50t277.5 -50t211.5 -141.5t136 -219.5t48 -285q0 -121 -29.5 -225.5t-81.5 -193.5t-124 -160t-158 -124l416 8v-145h-584v125q84 53 156 119.5t124 152.5 t80.5 191.5t28.5 236.5q0 127 -35.5 229.5t-101 175.5t-158 112.5t-206.5 39.5q-115 0 -206 -39.5t-156.5 -112.5t-100.5 -175.5t-35 -229.5q0 -166 45 -285.5t106.5 -202.5t127 -134t108.5 -78v-125h-586z" />
<glyph unicode="&#x3c0;" horiz-adv-x="1564" d="M25 848q55 258 337 258h1086l65 -53v-99h-303v-661q0 -74 40 -114t108 -40q10 0 29.5 1t29.5 5v-145q-16 -4 -48 -7t-54 -3q-135 0 -209 70.5t-74 201.5v692h-428v-1169h-176v1169h-55q-96 0 -146.5 -34.5t-72.5 -116.5z" />
<glyph unicode="&#x1e0c;" horiz-adv-x="1492" d="M182 6v1505q53 4 111.5 8.5t115 7.5t107.5 5t92 2q403 0 592 -187.5t189 -588.5q0 -203 -48.5 -350.5t-148.5 -242.5t-256 -141.5t-371 -46.5q-119 0 -222 7.5t-161 21.5zM365 150q74 -10 131 -14.5t125 -4.5q152 0 261 36t180 112.5t104.5 195.5t33.5 283t-32.5 281.5 t-103.5 192.5t-179.5 110.5t-257.5 35.5q-53 0 -127 -4t-135 -10v-1214zM604 -270q0 55 26.5 79.5t80.5 24.5q53 0 78.5 -24.5t25.5 -79.5t-25.5 -80t-78.5 -25t-80 24.5t-27 80.5z" />
<glyph unicode="&#x1e0d;" horiz-adv-x="1236" d="M96 545q0 147 39 255.5t110.5 181.5t173 108.5t224.5 35.5q72 0 137.5 -7t122.5 -13v549h178v-1655h-155l-17 135h-12q-115 -155 -342 -155q-225 0 -342 137t-117 428zM281 553q0 -231 75.5 -330.5t239.5 -99.5q61 0 116.5 17.5t98.5 49t67.5 77.5t24.5 106v592 q-55 10 -121.5 16t-140.5 6q-180 0 -270 -100.5t-90 -333.5zM504 -270q0 55 26.5 79.5t79.5 24.5t79 -24.5t26 -79.5t-26 -80t-79 -25t-79.5 24.5t-26.5 80.5z" />
<glyph unicode="&#x1e24;" horiz-adv-x="1570" d="M182 0v1516h183v-664h841v664h183v-1516h-183v700h-841v-700h-183zM694 -270q0 55 27 79.5t80 24.5t78.5 -24.5t25.5 -79.5t-25.5 -80t-78.5 -25t-80 24.5t-27 80.5z" />
<glyph unicode="&#x1e25;" d="M156 0v1655h178v-676q158 76 265.5 111.5t201.5 35.5q141 0 216 -74.5t75 -228.5v-823h-181v764q0 115 -43 163t-135 48q-78 0 -180 -33t-219 -88v-854h-178zM518 -270q0 55 26.5 79.5t80.5 24.5q53 0 78.5 -24.5t25.5 -79.5t-25.5 -80t-78.5 -25t-80 24.5t-27 80.5z" />
<glyph unicode="&#x1e44;" horiz-adv-x="1597" d="M182 0v1516h158l778 -1057l119 -180h14v1237h166v-1516h-160l-780 1057l-117 178l-12 -2v-1233h-166zM684 1780q0 115 115 114q117 0 116 -114q0 -59 -29.5 -86t-86.5 -27t-86 26.5t-29 86.5z" />
<glyph unicode="&#x1e45;" d="M156 0v1106h149l12 -129h11q82 39 148.5 67.5t122.5 47t105.5 26.5t96.5 8q141 0 216 -74.5t75 -228.5v-823h-181v764q0 115 -43 163t-135 48q-78 0 -181 -33t-216 -88v-854h-180zM512 1434q0 113 117 112q117 0 116 -112q1 -115 -116 -115t-117 115z" />
<glyph unicode="&#x1e5a;" horiz-adv-x="1359" d="M182 0v1505q197 31 379 31q360 0 525 -116.5t165 -372.5q0 -180 -80.5 -291t-250.5 -158l380 -598h-202l-346 565q-41 -4 -86 -6t-93 -2q-41 0 -98 3t-110 9v-569h-183zM365 725q31 -8 96 -13t135 -5q127 0 216 18t145.5 59t82 105.5t25.5 157.5q0 180 -109.5 258.5 t-363.5 78.5q-53 0 -116.5 -5t-110.5 -11v-643zM578 -270q0 55 26.5 79.5t79.5 24.5t78.5 -24.5t25.5 -79.5t-25.5 -80t-78.5 -25t-79.5 24.5t-26.5 80.5z" />
<glyph unicode="&#x1e5b;" horiz-adv-x="800" d="M137 -270q0 55 26.5 79.5t80.5 24.5q53 0 78.5 -24.5t25.5 -79.5t-25.5 -80t-78.5 -25t-80 24.5t-27 80.5zM156 0v1106h149l12 -152h9q115 63 211 108.5t182 61.5h57v-170h-63q-92 -12 -189.5 -48t-187.5 -83v-823h-180z" />
<glyph unicode="&#x1e62;" horiz-adv-x="1187" d="M88 41v156q123 -31 248 -48.5t221 -17.5q178 0 271.5 65.5t93.5 188.5q0 70 -27 118t-73 81.5t-111.5 57.5t-141.5 44q-121 33 -207 72t-141 91t-81.5 120.5t-26.5 158.5q0 94 36.5 172t105.5 132.5t165 84t217 29.5q86 0 183.5 -13t217.5 -40l-6 -154 q-98 27 -198.5 40.5t-182.5 13.5q-162 0 -255 -70t-93 -190q0 -57 18.5 -100.5t59.5 -77t106.5 -62.5t161.5 -55q100 -29 185.5 -62t146.5 -83t95 -121.5t34 -176.5q0 -203 -139.5 -310.5t-403.5 -107.5q-51 0 -110.5 4.5t-122 12.5t-126 20.5t-120.5 26.5zM469 -270 q0 55 26.5 79.5t79.5 24.5t79 -24.5t26 -79.5t-26 -80t-79 -25t-79.5 24.5t-26.5 80.5z" />
<glyph unicode="&#x1e63;" horiz-adv-x="964" d="M92 25v147q102 -25 193.5 -40t173.5 -15q123 0 185.5 47t62.5 133q0 47 -16.5 79t-47.5 54.5t-74 35.5t-94 23q-63 12 -128.5 27.5t-119 49.5t-87.5 92.5t-34 156.5q0 150 108 234t300 84q35 0 67.5 -2.5t69.5 -7.5t82 -12t107 -19l-9 -150q-104 23 -173.5 34t-129.5 11 q-248 0 -247 -168q0 -49 19 -80.5t54 -52t82 -33t103 -22.5q74 -14 136 -36t108 -58.5t72 -93t26 -138.5q0 -154 -107.5 -241t-306.5 -87q-74 0 -160 11.5t-215 36.5zM391 -270q0 55 26.5 79.5t80.5 24.5q53 0 78.5 -24.5t25.5 -79.5t-25.5 -80t-78.5 -25t-80 24.5t-27 80.5 z" />
<glyph unicode="&#x1e6c;" horiz-adv-x="1228" d="M35 1362v154h1161v-154h-489v-1362h-185v1362h-487zM510 -270q0 55 26.5 79.5t79.5 24.5t79 -24.5t26 -79.5t-26 -80t-79 -25t-79.5 24.5t-26.5 80.5z" />
<glyph unicode="&#x1e6d;" horiz-adv-x="817" d="M33 948v158h239l27 276l141 19v-295h328v-158h-326v-616q0 -104 46.5 -153.5t144.5 -49.5q31 0 67.5 5t77.5 18v-144q-47 -12 -98 -19t-98 -7q-158 0 -239 79.5t-81 233.5v653h-229zM416 -270q0 55 26.5 79.5t79.5 24.5t79 -24.5t26 -79.5t-26 -80t-79 -25t-79.5 24.5 t-26.5 80.5z" />
<glyph unicode="&#x1e80;" horiz-adv-x="2078" d="M39 1516h192l269 -1033l69 -286h13l75 286l289 1033h191l282 -1033l74 -286h16l70 286l272 1033h193l-418 -1516h-244l-276 997l-59 273h-13l-59 -273l-281 -997h-243zM764 1939h188l152 -274l-141 -27z" />
<glyph unicode="&#x1e81;" horiz-adv-x="1628" d="M47 1094v12h176l199 -762l35 -162h14l39 162l215 762h174l223 -762l41 -162h15l36 162l189 762h174v-12l-297 -1094h-205l-221 743l-35 148h-12l-35 -148l-213 -743h-203zM530 1651h195l145 -371l-135 -20z" />
<glyph unicode="&#x1e82;" horiz-adv-x="2078" d="M39 1516h192l269 -1033l69 -286h13l75 286l289 1033h191l282 -1033l74 -286h16l70 286l272 1033h193l-418 -1516h-244l-276 997l-59 273h-13l-59 -273l-281 -997h-243zM958 1653l152 286h188l-200 -301z" />
<glyph unicode="&#x1e83;" horiz-adv-x="1628" d="M47 1094v12h176l199 -762l35 -162h14l39 162l215 762h174l223 -762l41 -162h15l36 162l189 762h174v-12l-297 -1094h-205l-221 743l-35 148h-12l-35 -148l-213 -743h-203zM758 1262l143 378h186l-202 -393z" />
<glyph unicode="&#x1e84;" horiz-adv-x="2078" d="M39 1516h192l269 -1033l69 -286h13l75 286l289 1033h191l282 -1033l74 -286h16l70 286l272 1033h193l-418 -1516h-244l-276 997l-59 273h-13l-59 -273l-281 -997h-243zM657 1792q0 113 115 113q117 0 117 -113q0 -115 -117 -115q-115 0 -115 115zM1190 1792 q0 113 117 113q55 0 85.5 -27t30.5 -86t-30.5 -87t-85.5 -28q-117 0 -117 115z" />
<glyph unicode="&#x1e85;" horiz-adv-x="1628" d="M47 1094v12h176l199 -762l35 -162h14l39 162l215 762h174l223 -762l41 -162h15l36 162l189 762h174v-12l-297 -1094h-205l-221 743l-35 148h-12l-35 -148l-213 -743h-203zM463 1434q0 102 106 102q104 0 105 -102q-1 -105 -105 -105q-106 0 -106 105zM952 1434 q0 102 105 102q106 0 106 -102q0 -105 -106 -105q-104 0 -105 105z" />
<glyph unicode="&#x1e92;" horiz-adv-x="1200" d="M68 0v137l815 1211v10h-789v158h1014v-134l-813 -1214v-12h835v-156h-1062zM485 -270q0 55 27 79.5t80 24.5t78.5 -24.5t25.5 -79.5t-25.5 -80t-78.5 -25t-80 24.5t-27 80.5z" />
<glyph unicode="&#x1e93;" horiz-adv-x="1007" d="M76 2v119l606 825v10h-586v150h817v-113l-602 -829v-14h623v-148h-858zM391 -270q0 55 26.5 79.5t80.5 24.5q53 0 78.5 -24.5t25.5 -79.5t-25.5 -80t-78.5 -25t-80 24.5t-27 80.5z" />
<glyph unicode="&#x1eb8;" horiz-adv-x="1261" d="M182 0v1516h963v-152h-780v-520h727v-152h-727v-540h798v-152h-981zM598 -270q0 55 26.5 79.5t80.5 24.5q53 0 78.5 -24.5t25.5 -79.5t-25.5 -80t-78.5 -25t-80 24.5t-27 80.5z" />
<glyph unicode="&#x1eb9;" horiz-adv-x="1114" d="M98 539q0 285 128 435t372 150q424 0 424 -493q0 -94 -14 -144h-729q10 -193 95 -276.5t259 -83.5q78 0 166 14.5t174 42.5l10 -137q-82 -31 -181.5 -48t-191.5 -17q-254 0 -383 140t-129 417zM279 614h577q0 201 -63.5 286t-198.5 85q-295 0 -315 -371zM500 -270 q0 55 26.5 79.5t79.5 24.5t79 -24.5t26 -79.5t-26 -80t-79 -25t-79.5 24.5t-26.5 80.5z" />
<glyph unicode="&#x1ebc;" horiz-adv-x="1261" d="M182 0v1516h963v-152h-780v-520h727v-152h-727v-540h798v-152h-981zM266 1763q57 76 125 115t133 39q49 0 92 -13.5t84 -28.5t82 -28.5t88 -13.5q92 0 183 78l49 -56q-53 -74 -124 -114.5t-142 -40.5q-45 0 -88 13t-85 28.5t-83 29t-84 13.5q-47 0 -90.5 -17.5 t-90.5 -58.5z" />
<glyph unicode="&#x1ebd;" horiz-adv-x="1114" d="M98 539q0 285 128 435t372 150q424 0 424 -493q0 -94 -14 -144h-729q10 -193 95 -276.5t259 -83.5q78 0 166 14.5t174 42.5l10 -137q-82 -31 -181.5 -48t-191.5 -17q-254 0 -383 140t-129 417zM162 1384q57 76 124.5 115t133.5 39q49 0 92 -13.5t84 -30.5t82 -30.5 t86 -13.5q92 0 182 78l51 -55q-53 -76 -123.5 -116t-142.5 -40q-45 0 -88 13t-85 29.5t-84 30t-85 13.5q-45 0 -88 -17.5t-88 -58.5zM279 614h577q0 201 -63.5 286t-198.5 85q-295 0 -315 -371z" />
<glyph unicode="&#x1eca;" horiz-adv-x="546" d="M168 -270q0 55 26.5 79.5t79.5 24.5t79 -24.5t26 -79.5t-26 -80t-79 -25t-79.5 24.5t-26.5 80.5zM182 0v1516h183v-1516h-183z" />
<glyph unicode="&#x1ecb;" horiz-adv-x="493" d="M135 1444q0 111 111 110q115 0 114 -110q1 -109 -114 -109q-111 0 -111 109zM141 -270q0 55 27 79.5t80 24.5t78.5 -24.5t25.5 -79.5t-25.5 -80t-78.5 -25t-80 24.5t-27 80.5zM158 0v1106h178v-1106h-178z" />
<glyph unicode="&#x1ecc;" horiz-adv-x="1529" d="M104 756q0 385 171 582.5t489 197.5q319 0 490 -197.5t171 -582.5q0 -383 -171 -579.5t-490 -196.5q-317 0 -488.5 195.5t-171.5 580.5zM291 756q0 -317 116.5 -469t356.5 -152t357.5 152.5t117.5 468.5q0 627 -475 626q-238 0 -355.5 -153.5t-117.5 -472.5zM662 -270 q0 55 26.5 79.5t79.5 24.5t78.5 -24.5t25.5 -79.5t-25.5 -80t-78.5 -25t-79.5 24.5t-26.5 80.5z" />
<glyph unicode="&#x1ecd;" horiz-adv-x="1216" d="M96 553q0 281 131 427t381 146t381 -146t131 -427t-131 -427t-381 -146t-381 147t-131 426zM279 553q0 -223 79.5 -324.5t249.5 -101.5q172 0 251 101.5t79 324.5t-79 324.5t-251 101.5q-170 0 -249.5 -101.5t-79.5 -324.5zM504 -270q0 55 26.5 79.5t79.5 24.5t79 -24.5 t26 -79.5t-26 -80t-79 -25t-79.5 24.5t-26.5 80.5z" />
<glyph unicode="&#x1ee4;" horiz-adv-x="1546" d="M166 612v904h182v-900q0 -258 106.5 -369.5t319.5 -111.5t318.5 110.5t105.5 370.5v900h184v-904q0 -166 -34.5 -285.5t-108.5 -196.5t-189.5 -113.5t-275.5 -36.5q-162 0 -276.5 36.5t-188 113.5t-108.5 196.5t-35 285.5zM659 -270q0 55 27 79.5t80 24.5t78.5 -24.5 t25.5 -79.5t-25.5 -80t-78.5 -25t-80 24.5t-27 80.5z" />
<glyph unicode="&#x1ee5;" d="M147 283v823h181v-766q0 -111 39 -159t131 -48q98 0 202.5 42t202.5 91v840h180v-1106h-149l-12 135h-9q-84 -41 -147.5 -70.5t-117.5 -48t-106.5 -27.5t-113.5 -9q-281 0 -281 303zM500 -270q0 55 26.5 79.5t79.5 24.5t79 -24.5t26 -79.5t-26 -80t-79 -25t-79.5 24.5 t-26.5 80.5z" />
<glyph unicode="&#x1ef2;" horiz-adv-x="1298" d="M6 1516h197l377 -701l59 -135h18l60 135l377 701h196l-549 -1004v-512h-182v506zM381 1939h188l152 -274l-141 -27z" />
<glyph unicode="&#x1ef3;" horiz-adv-x="1157" d="M33 1085v21h192l297 -754l49 -155h13l49 155l309 754h186v-21l-647 -1536l-164 31l-2 19l170 411zM299 1651h195l145 -371l-135 -20z" />
<glyph unicode="&#x1ef8;" horiz-adv-x="1298" d="M6 1516h197l377 -701l59 -135h18l60 135l377 701h196l-549 -1004v-512h-182v506zM248 1763q57 76 124.5 115t133.5 39q49 0 92 -13.5t84 -28.5t82 -28.5t88 -13.5q92 0 182 78l49 -56q-53 -74 -123.5 -114.5t-142.5 -40.5q-45 0 -88 13t-85 28.5t-83 29t-84 13.5 q-47 0 -90 -17.5t-90 -58.5z" />
<glyph unicode="&#x1ef9;" horiz-adv-x="1157" d="M33 1085v21h192l297 -754l49 -155h13l49 155l309 754h186v-21l-647 -1536l-164 31l-2 19l170 411zM162 1384q57 76 124.5 115t133.5 39q49 0 92 -13.5t84 -30.5t82 -30.5t86 -13.5q92 0 182 78l51 -55q-53 -76 -123.5 -116t-142.5 -40q-45 0 -88 13t-85 29.5t-84 30 t-85 13.5q-45 0 -88 -17.5t-88 -58.5z" />
<glyph unicode="&#x2000;" horiz-adv-x="1053" />
<glyph unicode="&#x2001;" horiz-adv-x="2107" />
<glyph unicode="&#x2002;" horiz-adv-x="1053" />
<glyph unicode="&#x2003;" horiz-adv-x="2107" />
<glyph unicode="&#x2004;" horiz-adv-x="702" />
<glyph unicode="&#x2005;" horiz-adv-x="526" />
<glyph unicode="&#x2006;" horiz-adv-x="351" />
<glyph unicode="&#x2007;" horiz-adv-x="351" />
<glyph unicode="&#x2008;" horiz-adv-x="263" />
<glyph unicode="&#x2009;" horiz-adv-x="421" />
<glyph unicode="&#x200a;" horiz-adv-x="117" />
<glyph unicode="&#x2010;" horiz-adv-x="940" d="M137 500v147h666v-147h-666z" />
<glyph unicode="&#x2011;" horiz-adv-x="940" d="M137 500v147h666v-147h-666z" />
<glyph unicode="&#x2012;" horiz-adv-x="940" d="M137 500v147h666v-147h-666z" />
<glyph unicode="&#x2013;" horiz-adv-x="1253" d="M141 500v147h973v-147h-973z" />
<glyph unicode="&#x2014;" horiz-adv-x="1603" d="M141 500v147h1323v-147h-1323z" />
<glyph unicode="&#x2018;" horiz-adv-x="430" d="M115 1247q0 102 30.5 214t87.5 198l101 -12q-35 -78 -53.5 -173.5t-18.5 -185.5q0 -53 8.5 -104t30.5 -109l-162 -16q-25 80 -24 188z" />
<glyph unicode="&#x2019;" horiz-adv-x="428" d="M102 1073q35 76 53.5 172t18.5 187q0 53 -8 104t-31 106l162 17q27 -74 27 -186q0 -104 -33 -216t-88 -198z" />
<glyph unicode="&#x201a;" horiz-adv-x="444" d="M82 -274q35 76 53.5 172t18.5 186q0 53 -8.5 104.5t-30.5 106.5l161 16q27 -74 27 -186q0 -104 -32.5 -216t-88.5 -198z" />
<glyph unicode="&#x201c;" horiz-adv-x="872" d="M115 1247q0 102 30.5 214t87.5 198l101 -12q-35 -78 -53.5 -173.5t-18.5 -185.5q0 -53 8.5 -104t30.5 -109l-162 -16q-25 80 -24 188zM557 1247q0 102 30.5 214t88.5 198l100 -12q-35 -78 -53 -173.5t-18 -185.5q0 -53 8 -104t30 -109l-161 -16q-25 80 -25 188z" />
<glyph unicode="&#x201d;" horiz-adv-x="870" d="M102 1073q35 76 53.5 172t18.5 187q0 53 -8 104t-31 106l162 17q27 -74 27 -186q0 -104 -33 -216t-88 -198zM545 1073q35 76 53 172t18 187q0 53 -8 104t-30 106l161 17q27 -74 27 -186q0 -104 -33 -216t-88 -198z" />
<glyph unicode="&#x201e;" horiz-adv-x="884" d="M82 -274q35 76 53.5 172t18.5 186q0 53 -8.5 104.5t-30.5 106.5l161 16q27 -74 27 -186q0 -104 -32.5 -216t-88.5 -198zM524 -274q35 76 53.5 172t18.5 186q0 53 -8 104.5t-31 106.5l162 16q27 -74 26 -186q0 -104 -32.5 -216t-87.5 -198z" />
<glyph unicode="&#x2020;" horiz-adv-x="1083" d="M66 1026v148h96l336 -29l-41 348v162h168v-162l-39 -348l336 29h94v-148h-94l-336 29l39 -348v-164l-39 -410h-88l-39 410v164l39 348l-336 -29h-96z" />
<glyph unicode="&#x2021;" horiz-adv-x="1183" d="M117 76v147h96l334 -30l-39 350v166l39 346l-334 -29h-96v148h96l334 -29l-39 348v162h166v-162l-39 -348l334 29h96v-148h-96l-334 29l39 -348v-164l-39 -350l334 30h96v-147h-96l-334 28l39 -348v-164h-164v164l37 348l-334 -28h-96z" />
<glyph unicode="&#x2022;" horiz-adv-x="679" d="M170 758q0 92 49 130t121 38t120 -38t48 -130t-48 -129t-120 -37t-121 37t-49 129z" />
<glyph unicode="&#x2026;" horiz-adv-x="1382" d="M125 104q0 57 31.5 84t85.5 27q53 0 84.5 -27.5t31.5 -83.5q0 -55 -31.5 -83.5t-84.5 -28.5t-85 28.5t-32 83.5zM584 104q0 57 31.5 84t84.5 27t85 -27.5t32 -83.5q0 -55 -32 -83.5t-85 -28.5t-84.5 28.5t-31.5 83.5zM1024 104q0 57 31.5 84t85.5 27q53 0 84.5 -27.5 t31.5 -83.5q0 -55 -31.5 -83.5t-84.5 -28.5t-85 28.5t-32 83.5z" />
<glyph unicode="&#x202f;" horiz-adv-x="421" />
<glyph unicode="&#x2030;" horiz-adv-x="2836" d="M84 1055q0 240 94 360.5t277 120.5q182 0 276 -121t94 -360q0 -242 -94 -363t-276 -121t-276.5 121t-94.5 363zM225 1055q0 -182 56.5 -269.5t173.5 -87.5t173 87t56 270q0 354 -229 354t-230 -354zM555 0l705 1516h165l-706 -1516h-164zM1157 461q0 240 95.5 361.5 t277.5 121.5q180 0 275.5 -122t95.5 -361q0 -242 -95.5 -363t-275.5 -121q-182 0 -277.5 121t-95.5 363zM1298 461q0 -182 57.5 -269.5t174.5 -87.5q115 0 172 87.5t57 269.5q0 356 -229 356q-231 0 -232 -356zM2011 461q0 238 93.5 360.5t277.5 122.5t277.5 -123t93.5 -360 q0 -240 -93.5 -362t-277.5 -122t-277.5 122t-93.5 362zM2152 461q1 -357 230 -357t229 357q0 356 -229 356t-230 -356z" />
<glyph unicode="&#x2039;" horiz-adv-x="718" d="M70 549v8l368 487h191l-369 -487v-8l369 -488h-191z" />
<glyph unicode="&#x203a;" horiz-adv-x="718" d="M94 61l367 488v8l-367 487h189l366 -487v-8l-366 -488h-189z" />
<glyph unicode="&#x2044;" horiz-adv-x="503" d="M-184 0l706 1516h164l-706 -1516h-164z" />
<glyph unicode="&#x205f;" horiz-adv-x="526" />
<glyph unicode="&#x20a1;" horiz-adv-x="1230" d="M106 754q0 397 170 589.5t515 192.5h35.5t39.5 -2l35 121h121l-37 -133q35 -4 72 -9.5t71 -11.5v-155q-104 18 -186 24l-338 -1206q80 -27 193 -27q33 0 77 3t90 8.5t90 12.5t74 15v-153q-72 -16 -165.5 -28.5t-169.5 -12.5q-133 0 -234 26l-31 -114h-120l43 153 q-344 160 -345 707zM293 756q0 -408 203 -543l327 1165h-12q-268 0 -393 -148t-125 -474z" />
<glyph unicode="&#x20a3;" horiz-adv-x="1339" d="M68 246v127h227v1143h954v-152h-770v-520h703v-152h-703v-319h250v-127h-250v-246h-184v246h-227z" />
<glyph unicode="&#x20a4;" horiz-adv-x="1327" d="M121 0v162h311v364h-311v113h311v225h-311v113h311v94q0 231 106.5 344t346.5 113q76 0 158.5 -13.5t185.5 -44.5l-17 -149q-90 25 -168.5 37t-140.5 12q-160 0 -224.5 -68.5t-64.5 -230.5v-94h437l-21 -113h-416v-225h406l-21 -113h-385v-364h588v-162h-1081z" />
<glyph unicode="&#x20a6;" horiz-adv-x="1781" d="M102 500v110h170v291h-170v111h170v504h158l371 -504h540v504h166v-504h176v-111h-176v-291h176v-110h-176v-500h-159l-369 500h-541v-500h-166v500h-170zM438 610h459l-215 291h-244v-291zM438 1012h162l-149 223l-13 -2v-221zM883 901l213 -291h245v291h-458zM1178 500 l149 -221h14v221h-163z" />
<glyph unicode="&#x20a9;" horiz-adv-x="2232" d="M113 496v110h252l-78 289h-174v111h143l-137 510h192l131 -510h441l143 510h191l139 -510h440l135 510h193l-142 -510h136v-111h-166l-80 -289h246v-110h-277l-135 -496h-244l-137 496h-412l-139 -496h-244l-135 496h-282zM471 895l76 -289h223l82 289h-381zM575 496 l74 -299h13l77 299h-164zM944 606h350l-80 289h-188zM1057 1006h127l-58 264h-12zM1386 895l78 -289h228l75 289h-381zM1495 496l78 -299h16l72 299h-166z" />
<glyph unicode="&#x20ac;" horiz-adv-x="1294" d="M90 526v119h172q-2 27 -3 54.5t-1 56.5t1 57.5t3 56.5h-172v119h182q45 285 219.5 415t505.5 130q72 0 121 -5t90 -11l-57 -154q-20 4 -52 7t-69 3q-135 0 -234.5 -20.5t-168 -66.5t-109.5 -118.5t-59 -179.5h579l-37 -119h-557q-2 -29 -2 -56.5v-55.5v-58.5t2 -54.5h519 l-37 -119h-467q18 -104 60 -177t110.5 -120t166 -68.5t228.5 -21.5q33 0 73 3t85 12v-160q-55 -14 -174 -14q-334 2 -511.5 134t-222.5 412h-184z" />
<glyph unicode="&#x20b9;" horiz-adv-x="1384" d="M141 569v144h224q121 0 209 13t145 45t88 83t39 127h-705v121h705q-8 76 -38 129t-86 85t-140 46t-201 14q-59 0 -112.5 -2t-127.5 -6v148h1186l-41 -119h-373q119 -104 136 -295h213l-41 -121h-174q-16 -141 -105.5 -238.5t-251.5 -138.5v-8l400 -596h-228l-368 569 h-353z" />
<glyph unicode="&#x20ba;" horiz-adv-x="1349" d="M98 506v119l305 67v228l-305 -68v119l305 67v478h199v-435l424 95v-119l-424 -94v-228l424 94v-118l-424 -95v-450h258q61 0 103.5 21.5t68 68.5t35.5 120t10 177h199q0 -291 -100.5 -422t-315.5 -131h-457v573z" />
<glyph unicode="&#x2122;" horiz-adv-x="1898" d="M68 1403v113h690v-113h-281v-748h-131v748h-278zM868 655v861h160l277 -664l276 664h160v-861h-121v660l-260 -625h-111l-260 623v-658h-121z" />
<glyph unicode="&#x2202;" horiz-adv-x="1171" d="M96 530q0 106 33 195.5t92.5 154t142 101.5t183.5 37q92 0 172 -38t147 -101q-23 250 -111.5 382t-236.5 132q-35 0 -76 -9.5t-80.5 -26t-77.5 -38t-67 -45.5l-59 98q33 33 77 61.5t94 50t101 34t98 12.5q123 0 219.5 -57.5t163 -166t101.5 -267t35 -361.5 q0 -166 -34 -293t-95.5 -215t-150 -133t-194.5 -45q-113 0 -200.5 42t-149 114.5t-94.5 171t-33 210.5zM268 530q0 -84 20.5 -156.5t59.5 -125.5t95 -83t128 -30q145 0 224 128t79 401v79q-61 66 -132.5 104t-163.5 38q-68 0 -124.5 -25.5t-97.5 -73t-64.5 -113 t-23.5 -143.5z" />
<glyph unicode="&#x2206;" horiz-adv-x="1527" d="M51 0l602 1516h221l603 -1516h-1426zM283 152h960l-479 1204z" />
<glyph unicode="&#x220f;" horiz-adv-x="1550" d="M195 -219v1735h1161v-1735h-180v1585h-801v-1585h-180z" />
<glyph unicode="&#x2211;" horiz-adv-x="1214" d="M78 -96l532 749l-532 750v113h1040v-152h-823l500 -711l-500 -710h823v-150h-1040v111z" />
<glyph unicode="&#x221a;" horiz-adv-x="1415" d="M29 895l344 147l405 -895l443 1596h170l-492 -1743h-227l-393 844l-193 -86z" />
<glyph unicode="&#x221e;" horiz-adv-x="1859" d="M106 643q0 74 30 137.5t82 109.5t123 72.5t155 26.5q123 0 233.5 -61.5t200.5 -175.5q92 109 199.5 173t238.5 64q82 0 153.5 -26.5t123 -72.5t81 -109.5t29.5 -139.5q0 -78 -28.5 -144.5t-81 -114.5t-123 -74.5t-154.5 -26.5q-59 0 -111.5 13t-104.5 44t-106.5 81 t-115.5 124q-47 -51 -94.5 -98.5t-98.5 -84t-109 -58t-132 -21.5q-86 0 -158 26.5t-123 74.5t-80 114.5t-29 146.5zM262 643q0 -53 18.5 -96t51.5 -76t78 -50.5t100 -17.5q41 0 79 12.5t79 41t87 75t101 113.5q-158 223 -350 223q-106 0 -175 -63.5t-69 -161.5zM1004 643 q57 -68 103 -113t87 -73.5t80 -41t82 -12.5q109 0 176 66t67 172q0 47 -19 89t-52 73t-79 48t-97 17q-96 0 -185.5 -57t-162.5 -168z" />
<glyph unicode="&#x222b;" horiz-adv-x="677" d="M37 -389l22 110q37 -6 65 -9t52 -3q63 0 103 29t40 106v25l-106 1401q-2 10 -2 20v21q0 131 62.5 192.5t168.5 61.5q47 0 93.5 -6.5t103.5 -22.5l-21 -109q-70 20 -120 21q-55 0 -93 -32t-38 -113v-29l106 -1417q0 -8 1 -17.5t1 -15.5q0 -68 -20.5 -113t-57.5 -73.5 t-87 -41t-107 -12.5q-41 0 -83 7.5t-83 19.5z" />
<glyph unicode="&#x2248;" horiz-adv-x="1077" d="M143 434v125q53 20 107.5 38.5t120.5 18.5q47 0 89 -11t82 -23.5t81 -23.5t88 -11q66 0 119 15.5t106 41.5v-121q-53 -20 -106.5 -41.5t-118.5 -21.5q-47 0 -88 11t-81 23.5t-82 23.5t-89 11q-66 0 -120 -14t-108 -41zM143 858v125q53 18 107.5 38.5t120.5 20.5 q47 0 89 -11t82 -24.5t81 -24.5t88 -11q66 0 119 16.5t106 42.5v-121q-53 -23 -106.5 -45t-118.5 -22q-47 0 -88 11t-81 25.5t-82 25.5t-89 11q-66 0 -120 -16t-108 -41z" />
<glyph unicode="&#x2260;" horiz-adv-x="987" d="M96 442v133h289l84 308h-373v131h408l53 198l125 -30l-45 -168h252v-131h-289l-82 -308h371v-133h-408l-57 -217l-123 33l49 184h-254z" />
<glyph unicode="&#x2264;" horiz-adv-x="1110" d="M141 158v129h817v-129h-817zM141 733v123l822 332v-144l-648 -251l641 -248v-144z" />
<glyph unicode="&#x2265;" horiz-adv-x="1107" d="M139 158v129h817v-129h-817zM158 1044v144l819 -332v-123l-815 -332v144l639 248z" />
<glyph unicode="&#x25ca;" horiz-adv-x="1146" d="M72 748v22l387 746h229l385 -746v-22l-385 -748h-229zM248 758l325 -641l324 641l-324 641z" />
<glyph unicode="&#x25fc;" horiz-adv-x="1105" d="M0 0v1106h1106v-1106h-1106z" />
</font>
</defs>
</svg>
